SplineFontDB: 3.2
FontName: sitelen-pona-pona
FullName: sitelen pona pona
FamilyName: sitelen-pona
Weight: Regular
Copyright: Copyright (c) 2020, Jack Humbert
UComments: "2020-3-4: Created with FontForge (http://fontforge.org)"
Version: 0.1
ItalicAngle: 0
UnderlinePosition: -100
UnderlineWidth: 50
Ascent: 750
Descent: 250
InvalidEm: 0
LayerCount: 2
Layer: 0 0 "Vector" 1
Layer: 1 0 "Fore" 0
XUID: [1021 424 2030559194 30619]
FSType: 0
OS2Version: 0
OS2_WeightWidthSlopeOnly: 0
OS2_UseTypoMetrics: 1
CreationTime: 1583342003
ModificationTime: 1583854161
PfmFamily: 17
TTFWeight: 400
TTFWidth: 5
LineGap: 90
VLineGap: 0
OS2TypoAscent: 0
OS2TypoAOffset: 1
OS2TypoDescent: 0
OS2TypoDOffset: 1
OS2TypoLinegap: 90
OS2WinAscent: 0
OS2WinAOffset: 1
OS2WinDescent: 0
OS2WinDOffset: 1
HheadAscent: 0
HheadAOffset: 1
HheadDescent: 0
HheadDOffset: 1
OS2Vendor: 'PfEd'
Lookup: 4 0 1 "tokiponaWords" { "tokiponaWords subtable"  } ['liga' ('latn' <'dflt' > 'DFLT' <'dflt' > ) ]
Lookup: 6 0 0 "spaceShorten" { "spaceShorten contextual 0"  "spaceShorten contextual 1"  "spaceShorten contextual 2"  "spaceShorten contextual 3"  } ['salt' ('latn' <'dflt' > 'DFLT' <'dflt' > ) ]
Lookup: 1 0 0 "Single Substitution lookup 2" { "Single Substitution lookup 2 subtable"  } []
Lookup: 6 0 0 "tokiponaWordsSalt1s" { "tokiponaWordsSalt1s contextual 0"  "tokiponaWordsSalt1s contextual 1"  "tokiponaWordsSalt1s contextual 2"  "tokiponaWordsSalt1s contextual 3"  } ['salt' ('latn' <'dflt' > 'DFLT' <'dflt' > ) ]
Lookup: 4 0 0 "Ligature Substitution lookup 4" { "Ligature Substitution lookup 4 subtable"  } []
Lookup: 4 0 0 "Ligature Substitution lookup 5" { "Ligature Substitution lookup 5 subtable"  } []
Lookup: 4 0 0 "Ligature Substitution lookup 6" { "Ligature Substitution lookup 6 subtable"  } []

StartChar: tp_a
Encoding: 60928 60928 0
Width: 400
VWidth: 0
Flags: HW
HStem: 15 50<136.008 235.992> 208.744 48.2558<182.507 195.174> 425 50<136.737 296.796>
VStem: 65 50<86.0075 185.992> 257 50<86.0075 185.992>
LayerCount: 2
Back
SplineSet
186 232 m 5
 100 450 l 5
 272 450 l 1029
90 136 m 4
 90 189 133 232 186 232 c 4
 239 232 282 189 282 136 c 4
 282 83 239 40 186 40 c 4
 133 40 90 83 90 136 c 4
EndSplineSet
Fore
SplineSet
115 136 m 0
 115 96.8071427016 146.807092901 65 186 65 c 0
 225.192857298 65 257 96.8070929007 257 136 c 0
 257 175.192857298 225.192907099 207 186 207 c 0
 146.807142702 207 115 175.192907099 115 136 c 0
203.509135896 255.741424517 m 1
 262.02452944 247.253349066 307 196.861062686 307 136 c 0
 307 69.1929070993 252.807142702 15 186 15 c 0
 119.192907099 15 65 69.1928572984 65 136 c 0
 65 190.733479848 101.375001762 237.000142229 151.260541093 251.93544079 c 1
 76.7442024552 440.825694547 l 2
 75.588559416 443.755115274 75.044772718 446.787020705 75.044772718 449.780104723 c 0
 75.044772718 460.445343141 81.9492674177 470.617663583 92.678556512 473.903900628 c 0
 95.0494460263 474.630072221 98.1914216934 475 100 475 c 2
 272 475 l 2
 285.617128764 475 297 463.617128764 297 450 c 0
 297 436.382871236 285.617128764 425 272 425 c 2
 136.737404283 425 l 1
 203.509135896 255.741424517 l 1
EndSplineSet
Validated: 524289
Ligature2: "Ligature Substitution lookup 4 subtable" a tp_space
Ligature2: "tokiponaWords subtable" percent a space
LCarets2: 2 0 0
EndChar

StartChar: tp_akesi
Encoding: 60929 60929 1
Width: 560
VWidth: 0
Flags: W
HStem: 5 50<196.369 363.631> 225 50<106.229 453.771> 445 50<196.369 363.631> 541 78<125.281 194.719 366.281 435.719>
VStem: 55 51.2285<150.77 225 275 349.23> 121 78<545.281 614.719> 362 78<545.281 614.719> 453.771 51.2285<150.77 225 275 349.23>
LayerCount: 2
Back
Refer: 153 -1 S 1 0 0 1 160 580 2
Refer: 153 -1 S 1 0 0 1 401 580 2
Refer: 36 60964 S 1 0 0 1 0 0 2
Fore
SplineSet
453.771484375 225 m 1
 106.228515625 225 l 1
 115.990234375 127.077148438 183.146484375 55 280 55 c 0
 376.853515625 55 444.009765625 127.077148438 453.771484375 225 c 1
106.228515625 275 m 1
 453.771484375 275 l 1
 444.009765625 372.922851562 376.853515625 445 280 445 c 0
 183.146484375 445 115.990234375 372.922851562 106.228515625 275 c 1
55 250 m 0
 55 381.594726562 142.926757812 495 280 495 c 0
 417.073242188 495 505 381.594726562 505 250 c 0
 505 118.405273438 417.073242188 5 280 5 c 0
 142.926757812 5 55 118.405273438 55 250 c 0
362 580 m 0
 362 601.462890625 379.537109375 619 401 619 c 0
 422.462890625 619 440 601.462890625 440 580 c 0
 440 558.537109375 422.462890625 541 401 541 c 0
 379.537109375 541 362 558.537109375 362 580 c 0
121 580 m 0
 121 601.462890625 138.537109375 619 160 619 c 0
 181.462890625 619 199 601.462890625 199 580 c 0
 199 558.537109375 181.462890625 541 160 541 c 0
 138.537109375 541 121 558.537109375 121 580 c 0
EndSplineSet
Ligature2: "Ligature Substitution lookup 233 subtable" a k e s i
Ligature2: "Ligature Substitution lookup 220 subtable" a k e s i tp_space
Ligature2: "tokiponaWords subtable" percent a k e s i space
LCarets2: 6 0 0 0 0 0 0
EndChar

StartChar: tp_ala
Encoding: 60930 60930 2
Width: 500
VWidth: 0
Flags: HW
LayerCount: 2
Back
SplineSet
100 400 m 1
 380 100 l 1025
100 100 m 1
 380 400 l 1025
EndSplineSet
Fore
SplineSet
82.942043741 81.7236182939 m 0
 77.7354369502 86.5831179653 75.1002371803 93.3019517939 75.1002371803 100.030130058 c 0
 75.1002371803 106.166023863 77.2919024918 112.309689328 81.7236182939 117.057956259 c 2
 205.802859119 250 l 1
 81.7236182939 382.942043741 l 2
 77.2919024918 387.690310672 75.1002371803 393.833976137 75.1002371803 399.969869942 c 0
 75.1002371803 406.698048206 77.7354369502 413.416882035 82.942043741 418.276381706 c 0
 87.6903106718 422.708097508 93.8339761367 424.89976282 99.9698699423 424.89976282 c 0
 106.698048206 424.89976282 113.416882035 422.26456305 118.276381706 417.057956259 c 2
 240 286.639793801 l 1
 361.723618294 417.057956259 l 2
 366.583117965 422.26456305 373.301951794 424.89976282 380.030130058 424.89976282 c 0
 386.166023863 424.89976282 392.309689328 422.708097508 397.057956259 418.276381706 c 0
 402.26456305 413.416882035 404.89976282 406.698048206 404.89976282 399.969869942 c 0
 404.89976282 393.833976137 402.708097508 387.690310672 398.276381706 382.942043741 c 2
 274.197140881 250 l 1
 398.276381706 117.057956259 l 2
 402.708097508 112.309689328 404.89976282 106.166023863 404.89976282 100.030130058 c 0
 404.89976282 93.3019517938 402.26456305 86.5831179653 397.057956259 81.7236182939 c 0
 392.309689328 77.2919024918 386.166023863 75.1002371803 380.030130058 75.1002371803 c 0
 373.301951794 75.1002371803 366.583117965 77.7354369502 361.723618294 82.942043741 c 2
 240 213.360206199 l 1
 118.276381706 82.942043741 l 2
 113.416882035 77.7354369502 106.698048206 75.1002371803 99.9698699422 75.1002371803 c 0
 93.8339761366 75.1002371803 87.6903106718 77.2919024918 82.942043741 81.7236182939 c 0
EndSplineSet
Validated: 524289
Ligature2: "Ligature Substitution lookup 60 subtable" a l a
Ligature2: "Ligature Substitution lookup 38 subtable" a l a tp_space
Ligature2: "tokiponaWords subtable" percent a l a space
LCarets2: 4 0 0 0 0
EndChar

StartChar: tp_alasa
Encoding: 60931 60931 3
Width: 560
VWidth: 0
Flags: HW
HStem: 25 50<125 375.933> 225 50<125 453.897> 425 50<125 375.826>
VStem: 75 50<75 225 275 425> 453.897 51.1035<150.501 225 275 350.358>
CounterMasks: 1 e0
LayerCount: 2
Back
SplineSet
100 250 m 5
 480 250 l 1028
100 450 m 5
 100 50 l 5
 100 50 202 50 280 50 c 31
 390 50 480 111.986328125 480 250 c 7
 480 390 390 450 280 450 c 31
 202 450 100 450 100 450 c 5
EndSplineSet
Fore
SplineSet
125 275 m 1
 453.931492128 275 l 1
 444.442423405 382.079306828 372.774978661 425 280 425 c 2
 125 425 l 1
 125 275 l 1
125 225 m 1
 125 75 l 1
 280 75 l 2
 372.444162091 75 444.252482034 119.500592471 453.896543271 225 c 1
 125 225 l 1
75 450 m 2
 75 460.729904333 84.8674621445 475 100 475 c 2
 280 475 l 2
 400.315747629 475 505 404.551649152 505 250 c 0
 505 97.4837580522 400.561768207 25 280 25 c 2
 100 25 l 2
 89.2700956673 25 75 34.8674621445 75 50 c 2
 75 250 l 1
 75 450 l 2
EndSplineSet
Validated: 524289
Ligature2: "Ligature Substitution lookup 234 subtable" a l a s a
Ligature2: "Ligature Substitution lookup 221 subtable" a l a s a tp_space
Ligature2: "tokiponaWords subtable" percent a l a s a space
LCarets2: 6 0 0 0 0 0 0
EndChar

StartChar: tp_ale
Encoding: 60932 60932 4
Width: 602
VWidth: 0
Flags: HW
HStem: 90 50<130.799 242.43 358.871 478.131> 360 50<127.248 240.766 356.513 473.051>
VStem: 58 50<162.531 341.202> 275 50.0086<175.754 323.668> 495 50<155.352 339.088>
LayerCount: 2
Back
SplineSet
83 258.099609375 m 7
 83 147.381835938 126 115 186 115 c 7
 300 115 300 250 300 250 c 5
 300 250 300 385 412 385 c 7
 472 385 520 358 520 250 c 7
 520 143.349609375 486 115 416 115 c 7
 300 115 300 250 300 250 c 5
 300.278320312 250 300 385 180 385 c 7
 132 385 83 360.719726562 83 258.099609375 c 7
EndSplineSet
Fore
SplineSet
275.015821405 251.328997659 m 0
 274.944975926 254.343513602 274.409578514 264.098154864 272.011921427 276.083538872 c 0
 264.738481201 312.44193833 245.303101598 360 180 360 c 0
 144.360734225 360 108 349.68079911 108 258.099609375 c 0
 108 155.348658035 140.975378982 140 186 140 c 0
 250.946819322 140 268.158616675 195.349291634 273.400309671 231.950768587 c 0
 274.917407508 242.544296585 274.998096156 249.851438966 274.999982999 250.051642982 c 0
 275.001322166 250.41644652 275.015821405 250.709764193 275.015821405 251.328997659 c 0
325.022887913 251.004665961 m 0
 325.022887913 250.520512292 325.022887913 250.120174601 325.008621552 249.563684938 c 0
 325.034483146 248.465124562 325.180148906 244.137479408 325.827851357 238.235451212 c 0
 329.574894677 204.091446785 345.020800075 140 416 140 c 0
 472.383547666 140 495 150.92792923 495 250 c 0
 495 347.248380386 460.006730569 360 412 360 c 0
 353.309359358 360 334.700794227 313.232100543 327.829432448 275.842777398 c 0
 325.626154583 263.854023097 325.124349581 254.245550938 325.022887913 251.004665961 c 0
299.296598929 344.462094412 m 1
 318.250778957 378.295925855 354.41651724 410 412 410 c 0
 483.993269431 410 545 368.751619614 545 250 c 0
 545 135.77128952 499.616452334 90 416 90 c 0
 357.313304377 90 319.97781764 121.352038943 300.188622144 155.291766245 c 1
 280.752467379 121.464487318 243.948542571 90 186 90 c 0
 111.024621018 90 58 139.41501384 58 258.099609375 c 0
 58 371.758654015 119.639265775 410 180 410 c 0
 240.19004568 410 278.726359034 378.671816857 299.296598929 344.462094412 c 1
EndSplineSet
Validated: 524289
Ligature2: "Ligature Substitution lookup 62 subtable" a l i
Ligature2: "Ligature Substitution lookup 61 subtable" a l e
Ligature2: "Ligature Substitution lookup 40 subtable" a l i tp_space
Ligature2: "Ligature Substitution lookup 39 subtable" a l e tp_space
Ligature2: "tokiponaWords subtable" percent a l i space
Ligature2: "tokiponaWords subtable" percent a l e space
EndChar

StartChar: tp_anpa
Encoding: 60933 60933 5
Width: 600
VWidth: 0
Flags: W
HStem: -139 78<265.281 334.719> 25 50<125 475> 455 20G<93.1914 106.809 493.191 506.809>
VStem: 75 50<75 474.796> 261 78<-134.719 -65.2807> 475 50<75 474.796>
CounterMasks: 1 1c
LayerCount: 2
Back
SplineSet
100 450 m 1
 100 50 l 1
 500 50 l 1
 500 450 l 1025
EndSplineSet
Refer: 153 -1 S 1 0 0 1 300 -100 2
Fore
SplineSet
100 475 m 0
 113.617128764 475 125 463.617128764 125 450 c 2
 125 75 l 1
 475 75 l 1
 475 450 l 2
 475 463.617128764 486.382871236 475 500 475 c 0
 513.617128764 475 525 463.617128764 525 450 c 2
 525 50 l 2
 525 39.2700956673 515.132537856 25 500 25 c 2
 100 25 l 2
 89.2700956673 25 75 34.8674621445 75 50 c 2
 75 450 l 2
 75 463.617128764 86.3828712355 475 100 475 c 0
EndSplineSet
Refer: 153 -1 N 1 0 0 1 300 -100 2
LCarets2: 5 0 0 0 0 0
Ligature2: "Ligature Substitution lookup 151 subtable" a n p a
Ligature2: "Ligature Substitution lookup 82 subtable" a n p a tp_space
Ligature2: "tokiponaWords subtable" percent a n p a space
EndChar

StartChar: tp_ante
Encoding: 60934 60934 6
Width: 600
VWidth: 0
Flags: W
HStem: 25 21G<493.191 506.809> 455 20G<93.1914 106.809>
VStem: 75 50<283.178 474.796> 475 50<25.2041 202.269>
LayerCount: 2
Back
SplineSet
100 50 m 5
 500 242 l 5
 500 50 l 1029
100 450 m 5
 100 242 l 4
 500 450 l 1029
EndSplineSet
Fore
SplineSet
77.4619235633 39.1817233104 m 0
 71.5693688956 51.4578788681 76.9055677527 66.645521769 89.1817233104 72.5380764367 c 2
 489.18172331 264.538076437 l 2
 502.136973744 270.756596645 518.134452714 264.419860217 523.317373093 251.016657476 c 0
 524.425939206 248.149869011 525 244.108944515 525 242 c 2
 525 50 l 2
 525 36.3828712355 513.617128764 25 500 25 c 0
 486.382871236 25 475 36.3828712355 475 50 c 2
 475 202.269150752 l 1
 110.81827669 27.4619235633 l 2
 98.5421211319 21.5693688956 83.354478231 26.9055677527 77.4619235633 39.1817233104 c 0
100 475 m 0
 113.617128764 475 125 463.617128764 125 450 c 2
 125 283.178005607 l 1
 488.466181584 472.180420031 l 2
 500.547527008 478.462719652 515.89812041 473.61516384 522.180420031 461.533818416 c 0
 528.462719652 449.452472992 523.61516384 434.10187959 511.533818416 427.819579969 c 2
 111.533818416 219.819579969 l 2
 110.234181011 219.143768518 105.213154949 217.332972633 101.961427136 217.077062701 c 0
 87.6353201526 215.949602697 75 227.629596131 75 242 c 2
 75 450 l 2
 75 463.617128764 86.3828712355 475 100 475 c 0
EndSplineSet
LCarets2: 5 0 0 0 0 0
Ligature2: "Ligature Substitution lookup 152 subtable" a n t e
Ligature2: "Ligature Substitution lookup 83 subtable" a n t e tp_space
Ligature2: "tokiponaWords subtable" percent a n t e space
EndChar

StartChar: tp_anu
Encoding: 60935 60935 7
Width: 460
VWidth: 0
Flags: W
HStem: 75 21G<223.191 236.809>
VStem: 205 50<75.2041 239.645>
LayerCount: 2
Back
SplineSet
230 250 m 4
 230 100 l 1028
80 400 m 29
 230 250 l 5
 380 400 l 1053
EndSplineSet
Fore
SplineSet
62.3223304703 417.67766953 m 0
 71.95109456 427.306433619 88.04890544 427.306433619 97.6776695297 417.67766953 c 2
 230 285.355339059 l 1
 362.32233047 417.67766953 l 2
 371.95109456 427.306433619 388.04890544 427.306433619 397.67766953 417.67766953 c 0
 407.306433619 408.04890544 407.306433619 391.95109456 397.67766953 382.32233047 c 2
 255 239.644660941 l 1
 255 100 l 2
 255 86.3828712355 243.617128764 75 230 75 c 0
 216.382871236 75 205 86.3828712355 205 100 c 2
 205 239.644660941 l 1
 62.3223304703 382.32233047 l 2
 52.6935663807 391.95109456 52.6935663807 408.04890544 62.3223304703 417.67766953 c 0
EndSplineSet
Ligature2: "Ligature Substitution lookup 63 subtable" a n u
Ligature2: "Ligature Substitution lookup 41 subtable" a n u tp_space
Ligature2: "tokiponaWords subtable" percent a n u space
LCarets2: 4 0 0 0 0
EndChar

StartChar: tp_awen
Encoding: 60936 60936 8
Width: 600
VWidth: 0
Flags: HW
LayerCount: 2
Back
SplineSet
80 50 m 5
 180 50 l 5
 300 450 l 5
 420 50 l 5
 520 50 l 1029
EndSplineSet
Fore
SplineSet
55 50 m 0
 55 63.6171287645 66.3828712355 75 80 75 c 2
 161.399233728 75 l 1
 276.054342869 457.183697139 l 2
 279.293082049 467.979494404 289.501348019 474.956489173 300.218435676 474.956489173 c 0
 303.165345945 474.956489173 306.150728313 474.428957359 309.040259802 473.308232509 c 0
 316.440595844 470.437960797 322.098475752 463.340968402 323.945657131 457.183697139 c 2
 438.600766272 75 l 1
 520 75 l 2
 533.617128764 75 545 63.6171287645 545 50 c 0
 545 36.3828712355 533.617128764 25 520 25 c 2
 420 25 l 2
 409.59171841 25 399.251734666 32.1583302044 396.054342869 42.8163028608 c 2
 300 362.997445759 l 1
 203.945657131 42.8163028608 l 2
 200.954859423 32.8469771701 191.12725013 25 180 25 c 2
 80 25 l 2
 66.3828712355 25 55 36.3828712355 55 50 c 0
EndSplineSet
Validated: 524289
Ligature2: "Ligature Substitution lookup 153 subtable" a w e n
Ligature2: "Ligature Substitution lookup 84 subtable" a w e n tp_space
Ligature2: "tokiponaWords subtable" percent a w e n space
EndChar

StartChar: tp_e
Encoding: 60937 60937 9
Width: 570
VWidth: 0
Flags: HW
LayerCount: 2
Back
SplineSet
100 400 m 5
 280 250 l 5
 100 100 l 1029
300 400 m 5
 480 250 l 5
 300 100 l 1029
EndSplineSet
Fore
SplineSet
280.79446801 416.004609992 m 0
 285.680613724 421.867984849 292.864600611 424.902802921 300.077554516 424.902802921 c 0
 305.733380525 424.902802921 311.407016765 423.036859679 316.004609992 419.20553199 c 2
 496.004609992 269.20553199 l 2
 502.03195177 264.182747175 504.645194849 257.228398769 504.645194849 250.391235354 c 0
 504.645194849 242.765826659 501.394665144 235.286180637 496.004609992 230.79446801 c 2
 316.004609992 80.7944680101 l 2
 311.407016765 76.9631403213 305.733380525 75.097197079 300.077554516 75.097197079 c 0
 292.864600611 75.097197079 285.680613724 78.132015151 280.79446801 83.9953900084 c 0
 276.963140321 88.592983235 275.097197079 94.2666194754 275.097197079 99.9224454843 c 0
 275.097197079 107.135399389 278.132015151 114.319386276 283.995390008 119.20553199 c 2
 440.94875162 250 l 1
 283.995390008 380.79446801 l 2
 278.132015151 385.680613724 275.097197079 392.864600611 275.097197079 400.077554516 c 0
 275.097197079 405.733380525 276.963140321 411.407016765 280.79446801 416.004609992 c 0
80.7944680101 416.004609992 m 0
 85.6806137245 421.867984849 92.864600611 424.902802921 100.077554516 424.902802921 c 0
 105.733380525 424.902802921 111.407016765 423.036859679 116.004609992 419.20553199 c 2
 296.004609992 269.20553199 l 2
 302.03195177 264.182747175 304.645194849 257.228398769 304.645194849 250.391235354 c 0
 304.645194849 242.765826659 301.394665144 235.286180637 296.004609992 230.79446801 c 2
 116.004609992 80.7944680101 l 2
 111.407016765 76.9631403213 105.733380525 75.097197079 100.077554516 75.097197079 c 0
 92.8646006113 75.097197079 85.6806137246 78.132015151 80.7944680101 83.9953900084 c 0
 76.9631403213 88.5929832349 75.097197079 94.2666194751 75.097197079 99.9224454838 c 0
 75.097197079 107.135399389 78.132015151 114.319386276 83.9953900084 119.20553199 c 2
 240.94875162 250 l 1
 83.9953900084 380.79446801 l 2
 78.132015151 385.680613724 75.097197079 392.864600611 75.097197079 400.077554516 c 0
 75.097197079 405.733380525 76.9631403213 411.407016765 80.7944680101 416.004609992 c 0
EndSplineSet
Validated: 524289
Ligature2: "Ligature Substitution lookup 5 subtable" e tp_space
Ligature2: "tokiponaWords subtable" percent e space
LCarets2: 2 0 0
EndChar

StartChar: tp_en
Encoding: 60938 60938 10
Width: 460
VWidth: 0
Flags: HW
LayerCount: 2
Back
SplineSet
80 250 m 5
 380 250 l 1029
230 400 m 5
 230 100 l 1029
EndSplineSet
Fore
SplineSet
230 425 m 0
 243.617128764 425 255 413.617128764 255 400 c 2
 255 275 l 1
 380 275 l 2
 393.617128764 275 405 263.617128764 405 250 c 0
 405 236.382871236 393.617128764 225 380 225 c 2
 255 225 l 1
 255 100 l 2
 255 86.3828712355 243.617128764 75 230 75 c 0
 216.382871236 75 205 86.3828712355 205 100 c 2
 205 225 l 1
 80 225 l 2
 66.3828712355 225 55 236.382871236 55 250 c 0
 55 263.617128764 66.3828712355 275 80 275 c 2
 205 275 l 1
 205 400 l 2
 205 413.617128764 216.382871236 425 230 425 c 0
EndSplineSet
Validated: 524289
Ligature2: "Ligature Substitution lookup 25 subtable" e n
Ligature2: "Ligature Substitution lookup 12 subtable" e n tp_space
Ligature2: "tokiponaWords subtable" percent e n space
EndChar

StartChar: tp_esun
Encoding: 60939 60939 11
Width: 600
VWidth: 0
Flags: HW
LayerCount: 2
Back
SplineSet
146 450 m 5
 146 450 228.989257812 280 416 280 c 7
 482.030273438 280 520 304 520 364 c 7
 520 416.009765625 481 450 418 450 c 7
 221 450 378.038831292 50 172 50 c 7
 111 50 78 79.9919360083 78 142 c 7
 78 196.037024344 120.960799379 228 172 228 c 7
 286.00390625 228 300 50 400 50 c 7
 492 50 500 122 500 122 c 1029
EndSplineSet
Fore
SplineSet
332.422823047 318.420871759 m 1
 357.16976002 310.105389191 384.892577882 305 416 305 c 0
 475.680975942 305 495 320.836154635 495 364 c 0
 495 399.97379365 471.546350226 425 418 425 c 0
 362.987466448 425 344.397480991 388.172207299 332.422823047 318.420871759 c 1
255.664309271 146.326653766 m 0
 253.962418696 148.663995618 252.225172771 151.004741358 250.548228135 153.20673766 c 0
 226.810069778 184.377317646 204.610371376 203 172 203 c 0
 131.122842347 203 103 179.851779159 103 142 c 0
 103 92.6355478287 122.070023754 75 172 75 c 0
 220.023569501 75 240.001463772 98.1293521275 254.179103108 141.59170746 c 0
 254.658526634 143.061407397 255.179660019 144.726333806 255.664309271 146.326653766 c 0
309.815188249 156.15608561 m 0
 311.094245614 154.279667469 312.497037365 152.216062544 313.626268814 150.552285024 c 0
 344.926872507 104.434865212 367.585337436 75 400 75 c 0
 469.857486775 75 474.620976142 121.308961432 475.397347056 126.439587189 c 0
 477.526525465 138.297351984 488.215924393 146.995358737 500.081816703 146.995358737 c 0
 501.003454266 146.995358737 501.932189389 146.94288533 502.864562239 146.835343428 c 0
 515.351066498 145.395123013 524.965618931 135.132058905 524.965618931 121.455895894 c 0
 524.965618931 115.463293452 511.210688853 25 400 25 c 0
 347.088622308 25 314.405085824 62.8080853393 289.900389788 96.913679213 c 1
 268.899420498 55.3516422689 230.449449404 25 172 25 c 0
 99.9299762455 25 53 67.3483241879 53 142 c 0
 53 212.222269529 110.798756411 253 172 253 c 0
 213.17831536 253 244.746132617 233.320123396 268.31635481 209.299366073 c 1
 271.722330451 234.210512364 274.28922982 261.0002101 277.482321915 287.218336984 c 1
 171.585116039 340.298858438 125.209770135 435.61080597 123.202133114 439.71046321 c 0
 121.92074539 442.805322989 121.273216398 446.20337998 121.273216398 449.633488438 c 0
 121.273216398 458.669789495 125.767131839 467.928530911 135.004896689 472.452342933 c 0
 138.454168278 474.141480569 142.021595016 474.899782827 145.508887155 474.899782827 c 0
 154.905321486 474.899782827 163.719961368 469.394345118 168.073764487 461.758648113 c 0
 169.443714221 458.996323613 207.018907107 384.909467145 285.484874759 339.638296616 c 1
 298.73936719 406.703076997 330.645309176 475 418 475 c 0
 490.453649774 475 545 432.0457376 545 364 c 0
 545 287.163845365 488.379570933 255 416 255 c 0
 383.333381422 255 352.892045358 259.956855367 325.577303628 268.128447075 c 1
 321.760389656 234.730602602 318.433247556 199.463594896 311.983941973 166.566682147 c 0
 311.351167521 163.338997294 310.572358529 159.606648244 309.815188249 156.15608561 c 0
EndSplineSet
Validated: 524289
Ligature2: "Ligature Substitution lookup 154 subtable" e s u n
Ligature2: "Ligature Substitution lookup 85 subtable" e s u n tp_space
Ligature2: "tokiponaWords subtable" percent e s u n space
EndChar

StartChar: tp_ijo
Encoding: 60940 60940 12
Width: 560
VWidth: 0
Flags: W
HStem: 5 50<197.097 362.903> 445 50<197.097 362.903>
VStem: 55 50<151.252 348.748> 455 50<151.252 348.748>
AnchorPoint: "Small" 275 250 basechar 0
LayerCount: 2
Back
SplineSet
80 250 m 4
 80 371 159 470 280 470 c 4
 401 470 480 371 480 250 c 4
 480 129 401 30 280 30 c 4
 159 30 80 129 80 250 c 4
EndSplineSet
Fore
SplineSet
55 250 m 0
 55 381.595035204 142.926527009 495 280 495 c 0
 417.072906967 495 505 381.594971727 505 250 c 0
 505 118.404964796 417.073472991 5 280 5 c 0
 142.927093033 5 55 118.405028273 55 250 c 0
105 250 m 0
 105 139.594971727 175.072906967 55 280 55 c 0
 384.926527009 55 455 139.595035204 455 250 c 0
 455 360.405028273 384.927093033 445 280 445 c 0
 175.073472991 445 105 360.404964796 105 250 c 0
EndSplineSet
Validated: 524289
Ligature2: "Ligature Substitution lookup 64 subtable" i j o
Ligature2: "Ligature Substitution lookup 42 subtable" i j o tp_space
Ligature2: "tokiponaWords subtable" percent i j o space
LCarets2: 4 0 0 0 0
EndChar

StartChar: tp_ike
Encoding: 60941 60941 13
Width: 560
VWidth: 0
Flags: HW
HStem: 25 21G<93.1914 106.809 453.191 466.809> 25 21G<93.1914 106.809 453.191 466.809> 445 50<201.394 351.336>
VStem: 75 50<25.2041 356.369> 435 50<25.2041 354.026>
LayerCount: 2
Back
SplineSet
100 50 m 5
 100 50 100 172 100 250 c 31
 100 357 156.390625 470 269 470 c 7
 398.72265625 470 460 363 460 250 c 31
 460 172 460 50 460 50 c 1029
EndSplineSet
Fore
SplineSet
100 25 m 0xb8
 86.3828712355 25 75 36.3828712355 75 50 c 2
 75 250 l 2
 75 362.35199447 135.360140512 495 269 495 c 0
 416.782184755 495 485 370.738867357 485 250 c 2
 485 50 l 2
 485 36.3828712355 473.617128764 25 460 25 c 0
 446.382871236 25 435 36.3828712355 435 50 c 2
 435 250 l 2
 435 355.261132643 380.663127745 445 269 445 c 0
 177.421109488 445 125 351.64800553 125 250 c 2
 125 50 l 2
 125 36.3828712355 113.617128764 25 100 25 c 0xb8
EndSplineSet
Validated: 8912897
Ligature2: "Ligature Substitution lookup 65 subtable" i k e
Ligature2: "Ligature Substitution lookup 43 subtable" i k e tp_space
Ligature2: "tokiponaWords subtable" percent i k e space
LCarets2: 4 0 0 0 0
EndChar

StartChar: tp_ilo
Encoding: 60942 60942 14
Width: 600
VWidth: 0
Flags: HW
LayerCount: 2
Back
SplineSet
300 450 m 5
 300 -100 l 1029
100 450 m 5
 100 50 l 5
 500 50 l 5
 500 450 l 5
 100 450 l 5
EndSplineSet
Fore
SplineSet
325 75 m 1
 475 75 l 1
 475 425 l 1
 325 425 l 1
 325 75 l 1
75 450 m 2
 75 460.729904333 84.8674621445 475 100 475 c 2
 300 475 l 1
 500 475 l 2
 510.729904333 475 525 465.132537856 525 450 c 2
 525 50 l 2
 525 39.2700956673 515.132537856 25 500 25 c 2
 325 25 l 1
 325 -100 l 2
 325 -113.617128764 313.617128764 -125 300 -125 c 0
 286.382871236 -125 275 -113.617128764 275 -100 c 2
 275 25 l 1
 100 25 l 2
 89.2700956673 25 75 34.8674621445 75 50 c 2
 75 450 l 2
125 425 m 1
 125 75 l 1
 275 75 l 1
 275 425 l 1
 125 425 l 1
EndSplineSet
Validated: 524289
Ligature2: "Ligature Substitution lookup 66 subtable" i l o
Ligature2: "Ligature Substitution lookup 44 subtable" i l o tp_space
Ligature2: "tokiponaWords subtable" percent i l o space
EndChar

StartChar: tp_insa
Encoding: 60943 60943 15
Width: 600
VWidth: 0
Flags: W
HStem: 25 50<125 475> 211 78<265.281 334.719> 455 20G<93.1914 106.809 493.191 506.809>
VStem: 75 50<75 474.796> 261 78<215.281 284.719> 475 50<75 474.796>
CounterMasks: 1 1c
LayerCount: 2
Back
SplineSet
100 450 m 1
 100 50 l 1
 500 50 l 1
 500 450 l 1025
EndSplineSet
Refer: 153 -1 S 1 0 0 1 300 250 2
Fore
SplineSet
100 475 m 0
 113.617128764 475 125 463.617128764 125 450 c 2
 125 75 l 1
 475 75 l 1
 475 450 l 2
 475 463.617128764 486.382871236 475 500 475 c 0
 513.617128764 475 525 463.617128764 525 450 c 2
 525 50 l 2
 525 39.2700956673 515.132537856 25 500 25 c 2
 100 25 l 2
 89.2700956673 25 75 34.8674621445 75 50 c 2
 75 450 l 2
 75 463.617128764 86.3828712355 475 100 475 c 0
EndSplineSet
Refer: 153 -1 N 1 0 0 1 300 250 2
LCarets2: 5 0 0 0 0 0
Ligature2: "Ligature Substitution lookup 155 subtable" i n s a
Ligature2: "Ligature Substitution lookup 86 subtable" i n s a tp_space
Ligature2: "tokiponaWords subtable" percent i n s a space
EndChar

StartChar: tp_jaki
Encoding: 60944 60944 16
Width: 600
VWidth: 0
Flags: HW
LayerCount: 2
Back
SplineSet
244 600 m 29
 244 600 100 560 100 446 c 7
 100 349.98828125 304.48046875 228.5 304.48046875 165.5 c 7
 304.48046875 102.5 235.360351562 50 192.16015625 50 c 7
 148.959960938 50 98.560546875 84.5 98.560546875 150.5 c 7
 98.560546875 255.5 500 334.490234375 500 450 c 7
 500 546.01171875 436.672851562 565.5 404.959960938 565.5 c 7
 373.247070312 565.5 327.200195312 534.009765625 327.200195312 427.5 c 7
 327.200195312 328.48828125 500 188 500 188 c 1029
EndSplineSet
Fore
SplineSet
375.359168506 361.635658608 m 1
 441.104101316 396.883583655 475 429.676888199 475 450 c 0
 475 530.543801548 427.08372305 540.5 404.959960938 540.5 c 0
 392.618197752 540.5 352.200195312 527.872943454 352.200195312 427.5 c 0
 352.200195312 410.123268701 360.51772673 386.678695361 375.359168506 361.635658608 c 1
227.276976037 233.788959491 m 1
 158.186514019 198.407882517 123.560546875 166.529212177 123.560546875 150.5 c 0
 123.560546875 99.1908315338 161.429456074 75 192.16015625 75 c 0
 221.481804909 75 279.48046875 119.130890691 279.48046875 165.5 c 0
 279.48046875 171.587395693 261.711485855 199.229212951 227.276976037 233.788959491 c 1
404.123461219 320.338878263 m 1
 452.824690376 258.719946508 515.781546055 207.389244547 515.781546055 207.389244547 c 2
 521.782290245 202.505040804 524.903753264 195.226016095 524.903753264 187.9131568 c 0
 524.903753264 182.355720316 523.101014593 176.778743341 519.389244547 172.218453945 c 0
 514.562247126 166.287993576 507.555326566 163.010868923 500.212209161 163.010868923 c 0
 495.035843931 163.010868923 489.69241484 164.639346713 484.827769068 168.114812129 c 0
 482.827131153 169.743197357 412.718829731 226.548715916 358.878863186 297.111599857 c 1
 331.147885279 283.512390947 302.055626394 270.067408449 274.5718601 256.986314022 c 1
 301.827966154 228.666860808 329.48046875 200.020822894 329.48046875 165.5 c 0
 329.48046875 85.8691093088 249.238898216 25 192.16015625 25 c 0
 136.490465801 25 73.560546875 69.8091684662 73.560546875 150.5 c 0
 73.560546875 205.456918602 133.161693009 240.422492848 189.746860545 270.607342865 c 1
 138.24684364 321.030963184 75 380.573275476 75 446 c 0
 75 582.60869146 237.836199328 624.235296312 238.029712801 624.289360172 c 0
 239.736119767 624.652358246 241.492117189 624.831322224 243.259686005 624.831322224 c 0
 253.826490212 624.831322224 264.806837054 618.43544256 268.077970433 606.726911611 c 0
 268.687636168 604.54470462 268.971389925 602.381046845 268.971389925 600.269496612 c 0
 268.971389925 589.157510773 261.113206831 579.48857402 251.540866866 576.153386835 c 0
 243.319968351 573.81645792 125 535.453401166 125 446 c 0
 125 409.691563038 178.901447912 350.976507631 236.958003597 294.400510286 c 1
 267.638627477 309.236114957 300.156314228 324.148917567 330.675274753 338.980686566 c 1
 314.521513291 366.998317106 302.200195312 397.208194945 302.200195312 427.5 c 0
 302.200195312 540.146587796 353.875942873 590.5 404.959960938 590.5 c 0
 446.261980075 590.5 525 561.479635952 525 450 c 0
 525 391.373525501 463.71574588 352.788503182 404.123461219 320.338878263 c 1
EndSplineSet
Validated: 524289
Ligature2: "Ligature Substitution lookup 156 subtable" j a k i
Ligature2: "Ligature Substitution lookup 87 subtable" j a k i tp_space
Ligature2: "tokiponaWords subtable" percent j a k i space
EndChar

StartChar: tp_jan
Encoding: 60945 60945 17
Width: 560
VWidth: 0
Flags: HW
HStem: 5 50<195.691 364.309> 445 50<197.097 362.903>
VStem: 55 50<151.173 348.748> 455 50<151.173 348.748>
LayerCount: 2
Back
SplineSet
460 -100 m 5
 410 70 l 1029
100 -100 m 5
 150 70 l 1029
EndSplineSet
Refer: 12 60940 S 1 0 0 1 0 0 2
Fore
SplineSet
105 250 m 0
 105 139.594726562 175.073242188 55 280 55 c 0
 384.926757812 55 455 139.594726562 455 250 c 0
 455 360.405273438 384.926757812 445 280 445 c 0
 175.073242188 445 105 360.405273438 105 250 c 0
467.0541581 -123.984137539 m 0
 464.774692661 -124.65456855 462.462699181 -124.97332777 460.178517375 -124.97332777 c 0
 449.371865728 -124.97332777 439.187726617 -117.838496228 436.015862461 -107.0541581 c 2
 393.957858823 35.9430542671 l 1
 361.690059973 16.314570391 323.296729718 5 280 5 c 0
 236.703270282 5 198.309940027 16.314570391 166.042141177 35.9430542671 c 1
 123.984137539 -107.0541581 l 2
 120.812273383 -117.838496228 110.628134272 -124.97332777 99.8214826248 -124.97332777 c 0
 97.537300819 -124.97332777 95.225307339 -124.65456855 92.9458419002 -123.984137539 c 0
 82.1615037718 -120.812273383 75.0266722297 -110.628134272 75.0266722297 -99.8214826245 c 0
 75.0266722297 -97.5373008188 75.3454314493 -95.2253073389 76.0158624607 -92.9458419002 c 2
 123.857050193 69.7141963905 l 1
 79.9004885465 115.091897853 55 179.970360559 55 250 c 0
 55 381.594726562 142.926757812 495 280 495 c 0
 417.073242188 495 505 381.594726562 505 250 c 0
 505 179.970360559 480.099511454 115.091897853 436.142949807 69.7141963905 c 1
 483.984137539 -92.9458419002 l 2
 484.65456855 -95.225307339 484.97332777 -97.537300819 484.97332777 -99.8214826248 c 0
 484.97332777 -110.628134272 477.838496228 -120.812273383 467.0541581 -123.984137539 c 0
EndSplineSet
Validated: 524289
Ligature2: "Ligature Substitution lookup 67 subtable" j a n
Ligature2: "Ligature Substitution lookup 45 subtable" j a n tp_space
Ligature2: "tokiponaWords subtable" percent j a n space
LCarets2: 4 0 0 0 0
EndChar

StartChar: tp_jelo
Encoding: 60946 60946 18
Width: 600
VWidth: 0
Flags: HW
LayerCount: 2
Back
SplineSet
300 374.6796875 m 5
 100 50 l 5
 500 50 l 5
 300 374.6796875 l 5
100 486.6796875 m 1
 191.639648438 487.33984375 l 1024
500 487 m 1
 408.360351562 487.33984375 l 1024
300 700 m 1
 300 600 l 1024
191.639648438 487.33984375 m 0
 191.639648438 548.909179688 240.780273438 600 300 600 c 0
 359.219726562 600 408.360351562 548.909179688 408.360351562 487.33984375 c 0
 408.360351562 425.76953125 359.219726562 374.6796875 300 374.6796875 c 4
 240.780273438 374.6796875 191.639648438 425.76953125 191.639648438 487.33984375 c 0
EndSplineSet
Fore
SplineSet
300 327.012727724 m 1
 144.762245729 75 l 1
 455.237754271 75 l 1
 300 327.012727724 l 1
300 725 m 0
 313.617128764 725 325 713.617128764 325 700 c 2
 325 622.551939617 l 1
 378.948216493 611.848643863 421.167274918 567.234855194 431.125399194 512.25559195 c 1
 500.092711348 511.999828092 l 2
 513.679536402 511.94944163 524.999996092 500.57496169 524.999996092 486.997886406 c 0
 524.974628366 473.317804633 513.561219256 461.949536588 499.907288652 462.000171908 c 2
 431.095260833 462.255359897 l 1
 422.076939556 412.801219609 386.957519253 371.764759731 340.690092349 356.290414935 c 1
 521.285687785 63.1118074854 l 2
 522.811381681 60.6349983986 524.99826239 54.8824906825 524.99826239 50.0467891501 c 0
 524.99826239 36.5283425905 513.726483286 25 500 25 c 2
 100 25 l 2
 97.6586433788 25 92.0972588372 25.9583375661 88.598622792 27.7512113192 c 0
 79.9959636603 32.1596383648 75.0840255258 41.1008926506 75.0840255258 50.2061347227 c 0
 75.0840255258 54.6370102184 76.2472110508 59.1067193097 78.7143122154 63.1118074854 c 2
 259.310499031 356.291374981 l 1
 213.070083894 371.758766795 177.962394024 412.761021698 168.919812081 462.17552528 c 1
 100.180091023 461.680336164 l 2
 86.5288384051 461.58199489 75.000014824 472.936125166 75.000014824 486.675549832 c 0
 75.000014824 500.214990514 86.261824878 511.581368732 99.819908977 511.679038836 c 2
 168.85979999 512.176390324 l 1
 178.790543374 567.196352886 221.022797757 611.845289033 275 622.552415811 c 1
 275 700 l 2
 275 713.617128764 286.382871236 725 300 725 c 0
216.639648438 487.33984375 m 0
 216.639648438 438.833074521 255.520268303 399.6796875 300 399.6796875 c 0
 344.475415276 399.6796875 383.360351562 438.839949881 383.360351562 487.33984375 c 0
 383.360351562 535.845682648 344.479537848 575 300 575 c 0
 255.524776217 575 216.639648438 535.838801743 216.639648438 487.33984375 c 0
EndSplineSet
Validated: 524321
Ligature2: "Ligature Substitution lookup 157 subtable" j e l o
Ligature2: "Ligature Substitution lookup 88 subtable" j e l o tp_space
Ligature2: "tokiponaWords subtable" percent j e l o space
EndChar

StartChar: tp_jo
Encoding: 60947 60947 19
Width: 600
VWidth: 0
Flags: HW
LayerCount: 2
Back
SplineSet
300 250 m 5
 500 250 l 5
 500 184 462.30859375 50 300 50 c 7
 166 50 100 138 100 236 c 7
 100 376 248.799804688 416 248.799804688 416 c 1029
199.200195312 499.200195312 m 4
 199.200195312 555.200195312 244 600 300 600 c 4
 356 600 400.799804688 555.200195312 400.799804688 499.200195312 c 4
 400.799804688 443.200195312 356 398.400390625 300 398.400390625 c 4
 244 398.400390625 199.200195312 443.200195312 199.200195312 499.200195312 c 4
EndSplineSet
Fore
SplineSet
269.872166419 429.495578341 m 1
 279.079971968 425.568112123 289.258575188 423.400390625 300 423.400390625 c 0
 342.254673588 423.400390625 375.799804688 456.945507518 375.799804688 499.200195312 c 0
 375.799804688 541.454868901 342.254687794 575 300 575 c 0
 257.745326412 575 224.200195312 541.454883107 224.200195312 499.200195312 c 0
 224.200195312 475.551988137 234.707135261 454.631767877 251.367459208 440.793097788 c 1
 259.205530273 440.013467541 265.876428632 435.783812183 269.872166419 429.495578341 c 1
174.200195312 499.200195312 m 0
 174.200195312 568.945507518 230.254673588 625 300 625 c 0
 369.745312206 625 425.799804688 568.945521724 425.799804688 499.200195312 c 0
 425.799804688 429.454883107 369.745326412 373.400390625 300 373.400390625 c 0
 279.151133118 373.400390625 259.525654527 378.40932316 242.255171957 387.295581637 c 1
 208.306765615 374.047818034 125 331.723947708 125 236 c 0
 125 150.441286079 179.412779092 75 300 75 c 0
 425.174777367 75 464.214568713 161.190695418 473.178522886 225 c 1
 300 225 l 2
 286.382871236 225 275 236.382871236 275 250 c 0
 275 263.617128764 286.382871236 275 300 275 c 2
 500 275 l 2
 515.132537856 275 525 260.729904333 525 250 c 0
 525 177.772465678 481.567491072 25 300 25 c 0
 152.587220908 25 75 125.558713921 75 236 c 0
 75 343.647006669 149.747124238 398.594241651 199.534297302 423.256582335 c 1
 183.617263075 444.326346507 174.200195312 470.613250287 174.200195312 499.200195312 c 0
EndSplineSet
Validated: 524289
Ligature2: "Ligature Substitution lookup 26 subtable" j o
Ligature2: "Ligature Substitution lookup 13 subtable" j o tp_space
Ligature2: "tokiponaWords subtable" percent j o space
EndChar

StartChar: tp_kala
Encoding: 60948 60948 20
Width: 600
VWidth: 0
Flags: HW
LayerCount: 2
Back
SplineSet
100 450 m 7
 100 350 197.46484375 100 347 100 c 7
 438 100 500 163.9765625 500 250 c 7
 500 336.0234375 438 400 347 400 c 7
 196.00390625 400 100 152 100 50 c 1028
EndSplineSet
Fore
SplineSet
188.586164956 250.853169087 m 2
 188.586164956 250.853169087 188.846896018 250.395834194 189.345666794 249.52910026 c 0
 231.12013812 176.935929831 287.200097463 125 347 125 c 0
 424.88647108 125 475 177.347686159 475 250 c 0
 475 322.665906709 424.872387714 375 347 375 c 0
 286.763028759 375 231.2042525 324.284937126 189.756904427 252.881486084 c 0
 189.43708868 252.330523256 188.975418684 251.530187369 188.586164956 250.853169087 c 2
162.345274166 198.125144535 m 1
 137.952305069 141.356292 125 83.3974287021 125 50 c 0
 125 36.3828712355 113.617128764 25 100 25 c 0
 86.3828712355 25 75 36.3828712355 75 50 c 0
 75 100.991457115 94.7154560088 176.256320752 130.003760944 247.253975669 c 0
 130.47255971 248.197166709 131.215640572 249.67801253 131.82598023 250.888915894 c 0
 131.203230343 252.126900189 130.437356403 253.655940558 129.966570223 254.604831966 c 0
 94.8395419669 325.404988705 75 399.967160545 75 450 c 0
 75 463.617128764 86.3828712355 475 100 475 c 0
 113.617128764 475 125 463.617128764 125 450 c 0
 125 417.742540074 138.057477045 360.177105485 162.404469675 303.523601539 c 1
 205.929045561 368.557788031 267.897952677 425 347 425 c 0
 451.127612286 425 525 349.380968291 525 250 c 0
 525 150.605438841 451.11352892 75 347 75 c 0
 268.048036063 75 205.993905284 132.520335579 162.345274166 198.125144535 c 1
EndSplineSet
Validated: 524289
Ligature2: "Ligature Substitution lookup 158 subtable" k a l a
Ligature2: "Ligature Substitution lookup 89 subtable" k a l a tp_space
Ligature2: "tokiponaWords subtable" percent k a l a space
EndChar

StartChar: tp_kalama
Encoding: 60949 60949 21
Width: 600
VWidth: 0
Flags: HW
HStem: 5 50<216.142 372.787> 425 50<125 475>
VStem: 75 50<151.749 425> 275 50<525.204 724.796> 475 50<165.733 425>
CounterMasks: 1 38
AnchorPoint: "Small" 300 250 basechar 0
LayerCount: 2
Back
SplineSet
423 543 m 5
 500 650 l 1029
300 550 m 5
 300 700 l 1029
100 650 m 5
 177 551 l 1029
EndSplineSet
Refer: 112 61040 S 1 0 0 1 0 0 2
Fore
SplineSet
84.6514846621 669.733805434 m 0
 89.1345807098 673.220657916 94.5265686704 674.905867318 99.8959791391 674.905867318 c 0
 107.40031476 674.905867318 114.860549528 671.614130075 119.733805434 665.348515338 c 2
 196.733805434 566.348515338 l 2
 200.220657916 561.86541929 201.905867318 556.473431329 201.905867318 551.104020861 c 0
 201.905867318 543.59968524 198.614130075 536.139450472 192.348515338 531.266194566 c 0
 187.86541929 527.779342084 182.473431329 526.094132682 177.104020861 526.094132682 c 0
 169.59968524 526.094132682 162.139450472 529.385869925 157.266194566 535.651484662 c 2
 80.2661945656 634.651484662 l 2
 76.7793420841 639.13458071 75.0941326812 644.52656867 75.0941326812 649.895979139 c 0
 75.0941326812 657.40031476 78.3858699252 664.860549527 84.6514846621 669.733805434 c 0
300 525 m 0
 286.382871236 525 275 536.382871236 275 550 c 2
 275 700 l 2
 275 713.617128764 286.382871236 725 300 725 c 0
 313.617128764 725 325 713.617128764 325 700 c 2
 325 550 l 2
 325 536.382871236 313.617128764 525 300 525 c 0
408.397378199 522.708045029 m 0
 401.681325411 527.541092363 398.089748583 535.303628364 398.089748583 543.130767702 c 0
 398.089748583 548.184889649 399.587261108 553.26594804 402.708045029 557.602621801 c 2
 479.708045029 664.602621801 l 2
 484.541092363 671.318674589 492.303628364 674.910251417 500.130767702 674.910251417 c 0
 505.184889649 674.910251417 510.26594804 673.412738892 514.602621801 670.291954971 c 0
 521.318674589 665.458907637 524.910251417 657.696371636 524.910251417 649.869232298 c 0
 524.910251417 644.815110351 523.412738892 639.73405196 520.291954971 635.397378199 c 2
 443.291954971 528.397378199 l 2
 438.458907637 521.681325411 430.696371636 518.089748583 422.869232298 518.089748583 c 0
 417.815110351 518.089748583 412.73405196 519.587261108 408.397378199 522.708045029 c 0
EndSplineSet
Refer: 112 61040 N 1 0 0 1 0 0 2
Validated: 524289
Ligature2: "Ligature Substitution lookup 257 subtable" k a l a m a
Ligature2: "Ligature Substitution lookup 246 subtable" k a l a m a tp_space
Ligature2: "tokiponaWords subtable" percent k a l a m a space
LCarets2: 7 0 0 0 0 0 0 0
EndChar

StartChar: tp_kama
Encoding: 60950 60950 22
Width: 600
VWidth: 0
Flags: HW
HStem: 25 50<275.204 478.683>
LayerCount: 2
Back
SplineSet
80 50 m 5
 300 470 l 5
 520 50 l 5
 300 50 l 1029
EndSplineSet
Fore
SplineSet
68.3998251332 27.854211618 m 0
 59.9523055755 32.2791028148 55.0658187255 41.14079763 55.0658187255 50.1978428078 c 0
 55.0658187255 54.073640745 55.9606598208 57.9852123449 57.854211618 61.6001748668 c 2
 277.854211618 481.600174867 l 2
 282.30224688 490.091878548 291.175430561 494.914144877 300.202398604 494.914144877 c 0
 304.70759245 494.914144877 309.251091284 493.713002895 313.301911246 491.1674079 c 0
 317.062045045 488.804484376 320.526001601 484.692495086 322.145788382 481.600174867 c 2
 542.145788382 61.6001748668 l 2
 544.040923667 57.9821893232 544.931088225 54.0831262904 544.931088225 50.2253283223 c 0
 544.931088225 40.5095976522 539.28507003 31.0555975847 529.826923223 27.0123602784 c 0
 526.762751372 25.7024658358 520.555778136 25 520 25 c 2
 300 25 l 2
 286.382871236 25 275 36.3828712355 275 50 c 0
 275 63.6171287645 286.382871236 75 300 75 c 2
 478.68269145 75 l 1
 300 416.121501859 l 1
 102.145788382 38.3998251332 l 2
 97.7208971852 29.9523055755 88.85920237 25.0658187255 79.8021571922 25.0658187255 c 0
 75.926359255 25.0658187255 72.0147876551 25.9606598208 68.3998251332 27.854211618 c 0
EndSplineSet
Validated: 524289
Ligature2: "Ligature Substitution lookup 159 subtable" k a m a
Ligature2: "Ligature Substitution lookup 90 subtable" k a m a tp_space
Ligature2: "tokiponaWords subtable" percent k a m a space
LCarets2: 5 0 0 0 0 0
EndChar

StartChar: tp_kasi
Encoding: 60951 60951 23
Width: 600
VWidth: 0
Flags: HW
LayerCount: 2
Back
SplineSet
300 50 m 5
 300 250 l 1028
500 450 m 5
 368 446 304 360 300 250 c 5
 456 264 486 328 500 450 c 5
100 450 m 5
 232 446 296 360 300 250 c 5
 144 264 114 328 100 450 c 5
EndSplineSet
Fore
SplineSet
499.242771834 474.988529479 m 0
 499.418068583 474.993841502 499.594356005 474.996486945 499.771557414 474.996486945 c 0
 510.659488172 474.996486945 524.998032344 465.009032111 524.998032344 449.937055203 c 0
 524.998032344 327.678775242 464.304037253 246.480340644 325 227.643494141 c 1
 325 50 l 2
 325 36.3828712355 313.617128764 25 300 25 c 0
 286.382871236 25 275 36.3828712355 275 50 c 2
 275 227.643494141 l 1
 135.598793668 246.493479954 75.0034449652 327.666477648 75.0034449652 449.93014455 c 0
 75.0034449652 463.65669932 86.696553661 474.99933557 100.043820516 474.99933557 c 0
 100.281119015 474.99933557 100.51894037 474.995750321 100.757228166 474.988529479 c 0
 200.518338103 471.965465541 266.756312846 424.420957322 300 356.094447058 c 1
 333.243687154 424.420957322 399.481661897 471.965465541 499.242771834 474.988529479 c 0
471.071031832 422.449758731 m 1
 383.530047188 409.44358789 339.391961855 353.877446539 327.725628122 278.475233686 c 1
 434.498392933 294.921079799 457.155051218 335.520089167 471.071031832 422.449758731 c 1
128.928968168 422.449758731 m 1
 142.844948782 335.520089167 165.501607067 294.921079799 272.274371878 278.475233686 c 1
 260.608038145 353.877446539 216.469952812 409.44358789 128.928968168 422.449758731 c 1
EndSplineSet
Validated: 524289
Ligature2: "Ligature Substitution lookup 160 subtable" k a s i
Ligature2: "Ligature Substitution lookup 91 subtable" k a s i tp_space
Ligature2: "tokiponaWords subtable" percent k a s i space
EndChar

StartChar: tp_ken
Encoding: 60952 60952 24
Width: 450
VWidth: 0
Flags: W
HStem: 25 21G<93.1914 106.809> 455 20G<93.1914 106.809>
VStem: 75 50<25.2041 197.984 302.016 474.796>
LayerCount: 2
Back
SplineSet
350 450 m 5
 100 250 l 5
 350 50 l 1029
100 450 m 5
 100 50 l 1029
EndSplineSet
Fore
SplineSet
100 475 m 0
 113.617128764 475 125 463.617128764 125 450 c 2
 125 302.015621187 l 1
 334.382623811 469.521720236 l 2
 345.015814937 478.028273137 361.015167335 476.250567315 369.521720236 465.617376189 c 0
 378.028273137 454.984185063 376.250567315 438.984832665 365.617376189 430.478279764 c 2
 140.019526484 250 l 1
 365.617376189 69.5217202361 l 2
 376.250567315 61.015167335 378.028273137 45.0158149375 369.521720236 34.3826238111 c 0
 361.015167335 23.7494326848 345.015814937 21.9717268628 334.382623811 30.4782797639 c 2
 125 197.984378813 l 1
 125 50 l 2
 125 36.3828712355 113.617128764 25 100 25 c 0
 86.3828712355 25 75 36.3828712355 75 50 c 2
 75 450 l 2
 75 463.617128764 86.3828712355 475 100 475 c 0
EndSplineSet
LCarets2: 4 0 0 0 0
Ligature2: "Ligature Substitution lookup 68 subtable" k e n
Ligature2: "Ligature Substitution lookup 46 subtable" k e n tp_space
Ligature2: "tokiponaWords subtable" percent k e n space
EndChar

StartChar: tp_kepeken
Encoding: 60953 60953 25
Width: 600
VWidth: 0
Flags: HW
HStem: 25 21G<493.191 506.809> 325 48.791<216.362 275 325 394.855> 425 50<125 275 325 475> 575 50<125 275 325 475>
VStem: 75 50<475 575> 111 50<118.091 268.747> 275 50<371.864 425 475 575> 475 50<25.2041 251.86 475 575>
LayerCount: 2
Back
SplineSet
63 129 m 5
 63 129 160 49 160 51 c 4
 160 51.9931640625 136 108.999023438 136 179 c 7
 136 282.01953125 191.981445312 330 300 330 c 7
 406.004882812 330 500 287 500 185 c 7
 500 126 500 50 500 50 c 1029
300 600 m 5
 300 330 l 1028
100 600 m 5
 100 430 l 5
 500 430 l 5
 500 600 l 5
 100 600 l 5
EndSplineSet
Fore
SplineSet
125 575 m 1xfb
 125 455 l 1
 275 455 l 1
 275 575 l 1
 125 575 l 1xfb
75 600 m 2
 75 610.729904333 84.8674621445 625 100 625 c 2
 300 625 l 1
 500 625 l 2
 510.729904333 625 525 615.132537856 525 600 c 2
 525 430 l 2
 525 419.270095667 515.132537856 405 500 405 c 2
 325 405 l 1
 325 354.180819128 l 1
 426.541407227 347.471132099 525 298.904012782 525 185 c 2
 525 50 l 2
 525 36.3828712355 513.617128764 25 500 25 c 0
 486.382871236 25 475 36.3828712355 475 50 c 2
 475 185 l 2
 475 265.751659286 402.285457593 305 300 305 c 0
 201.732556558 305 161 268.386577065 161 179 c 0
 161 108.68421587 185 72.0743830839 185 51 c 0
 185 27.0410040047 156.947023922 26.0747986865 155.119525898 26.432762217 c 0
 130.189926013 31.3158797202 48.8109835986 108.296795107 47.0943461996 109.712434649 c 0
 36.5886957619 118.376008084 35.0488612133 134.400003363 43.7124346486 144.9056538 c 0
 52.3760080839 155.411304238 68.4000033626 156.951138787 78.9056538004 148.287565351 c 2
 78.9056538004 148.287565351 96.9587854878 133.406104108 116.352557801 117.55563842 c 1
 113.018858328 137.400575431 111 156.578447662 111 179 c 0xf7
 111 287.150158349 172.225354384 346.044375455 275 354.054964504 c 1
 275 405 l 1
 100 405 l 2
 89.2700956673 405 75 414.867462144 75 430 c 2
 75 600 l 2
325 455 m 1
 475 455 l 1
 475 575 l 1
 325 575 l 1
 325 455 l 1
EndSplineSet
Ligature2: "Ligature Substitution lookup 272 subtable" k e p e k e n
Ligature2: "Ligature Substitution lookup 268 subtable" k e p e k e n tp_space
Ligature2: "tokiponaWords subtable" percent k e p e k e n space
LCarets2: 8 0 0 0 0 0 0 0 0
EndChar

StartChar: tp_kili
Encoding: 60954 60954 26
Width: 600
VWidth: 0
Flags: HW
LayerCount: 2
Back
SplineSet
300 410 m 5
 300 600 l 1028
300 30 m 7
 453.029408938 30 520 148 520 280 c 7
 520 360 487 460 400 460 c 7
 321 460 300 410 300 410 c 5
 300 410 278 460 200 460 c 7
 115 460 80 360 80 280 c 7
 80 162 144.919375807 30 300 30 c 7
EndSplineSet
Fore
SplineSet
300 5 m 0
 126.169385666 5 55 154.839809859 55 280 c 0
 55 361.322307105 90.4308204015 485 200 485 c 0
 231.67838718 485 256.266411777 477.721654097 275 467.679816099 c 1
 275 600 l 2
 275 613.617128764 286.382871236 625 300 625 c 0
 313.617128764 625 325 613.617128764 325 600 c 2
 325 467.743155869 l 1
 343.505875223 477.487707317 368.343291798 485 400 485 c 0
 511.614352252 485 545 361.022319886 545 280 c 0
 545 140.283880636 470.569872484 5 300 5 c 0
300 55 m 0
 435.488945393 55 495 155.716119364 495 280 c 0
 495 358.977680114 462.385647748 435 400 435 c 0
 338.197673863 435 323.955259778 402.127886421 321.99075603 398.103117174 c 0
 320.038420125 394.366978057 317.081622316 391.308632572 313.565045198 389.099400966 c 0
 309.636613296 386.514460202 304.966937969 384.999999149 300 385 c 0
 297.63990286 385 295.346921075 385.341932587 293.168685565 385.978167177 c 0
 291.548586335 386.42217947 289.957380646 387.040293905 288.421695926 387.842769244 c 0
 285.222726552 389.514396919 282.730258265 391.683476423 280.647683151 394.325572573 c 0
 279.611543492 395.595840256 278.695875605 396.966544831 277.919584309 398.418783482 c 0
 277.486485923 399.178654984 277.06966584 399.966481742 276.664700621 400.781899473 c 2
 276.664700621 400.781899473 260.002001503 435 200 435 c 0
 139.569179599 435 105 358.677692895 105 280 c 0
 105 169.160190141 163.669365949 55 300 55 c 0
EndSplineSet
Validated: 524289
Ligature2: "Ligature Substitution lookup 161 subtable" k i l i
Ligature2: "Ligature Substitution lookup 92 subtable" k i l i tp_space
Ligature2: "tokiponaWords subtable" percent k i l i space
EndChar

StartChar: tp_kiwen
Encoding: 60955 60955 27
Width: 600
VWidth: 0
Flags: HW
LayerCount: 2
Back
SplineSet
300 50 m 5
 100 320 l 5
 210 450 l 5
 390 450 l 5
 500 320 l 5
 300 50 l 5
EndSplineSet
Fore
SplineSet
279.911070166 35.1193112344 m 2
 79.9110701664 305.119311234 l 2
 76.6635143194 309.503511628 75.1650677909 314.71467659 75.1650677909 319.853254606 c 0
 75.1650677909 325.864345456 77.2155779465 331.776106587 80.9153428658 336.148556037 c 2
 190.915342866 466.148556037 l 2
 195.677157518 471.776155171 203.062549763 475 210 475 c 2
 390 475 l 2
 397.371889228 475 404.603464978 471.444510403 409.084657134 466.148556037 c 2
 519.084657134 336.148556037 l 2
 523.002058703 331.518899637 524.828934747 325.729878162 524.828934747 320.03659758 c 0
 524.828934747 314.616379554 523.173098375 309.282938765 520.088929834 305.119311234 c 2
 320.088929834 35.1193112344 l 2
 315.127597202 28.4215121819 307.618617621 25.2408035049 300.146924263 25.2408035049 c 0
 292.401846633 25.2408035049 284.696833701 28.6585304628 279.911070166 35.1193112344 c 2
300 92.000744041 m 1
 468.12413488 318.968326129 l 1
 378.405026219 425 l 1
 221.594973781 425 l 1
 131.87586512 318.968326129 l 1
 300 92.000744041 l 1
EndSplineSet
Validated: 524289
Ligature2: "Ligature Substitution lookup 236 subtable" k i w e n
Ligature2: "Ligature Substitution lookup 223 subtable" k i w e n tp_space
Ligature2: "tokiponaWords subtable" percent k i w e n space
EndChar

StartChar: tp_ko
Encoding: 60956 60956 28
Width: 600
VWidth: 0
Flags: HW
LayerCount: 2
Back
SplineSet
214 274 m 5
 214 274 90 252 90 162 c 7
 90 100 138 40 200 40 c 7
 251 40 300 110 300 110 c 5
 300 110 350 40 400 40 c 7
 465 40 510 100 510 165 c 7
 510 265 390 280 390 280 c 5
 390 280 402 319 402 340 c 31
 402 400 380.385742188 460 300 460 c 7
 223.138671875 460 196 401 196 338 c 31
 196 311 214 274 214 274 c 5
EndSplineSet
Fore
SplineSet
218.949639915 249.491725599 m 0
 209.301654197 247.709253164 115 224.732030539 115 162 c 0
 115 111.109478914 155.025499618 65 200 65 c 0
 231.30445836 65 277.290678854 121.191578741 279.535280448 124.359512944 c 0
 284.381149868 131.254581621 292.226092138 134.895297247 300.119499792 134.895297247 c 0
 305.718025834 134.895297247 311.340932791 133.063804942 315.93543746 129.262965321 c 0
 317.632233833 127.859277361 320.316903904 124.567889887 320.316903904 124.567889887 c 2
 322.650529878 121.313331057 369.747039147 65 400 65 c 0
 447.636149115 65 485 110.051589001 485 165 c 0
 485 238.521602141 394.839677351 254.117191029 385.763681112 255.346232186 c 0
 371.770501798 258.254322575 365.134176278 270.115526877 365.134176278 280.650641124 c 0
 365.134176278 282.975912775 365.457469482 285.236583029 366.096308518 287.322126299 c 2
 366.096308518 287.322126299 377 325.59806661 377 340 c 0
 377 395.360813008 361.284775878 435 300 435 c 0
 241.690825535 435 221 395.014154697 221 338 c 0
 221 319.576390224 236.504502873 284.88794519 236.504502873 284.88794519 c 2
 238.186732382 281.410912733 238.932434988 277.905683613 238.932434988 274.519723138 c 0
 238.932434988 262.371986568 229.334172487 251.759408584 218.949639915 249.491725599 c 0
180.272238767 290.853827595 m 1
 175.88505148 303.930083034 171 320.655747769 171 338 c 0
 171 406.985845303 204.586518215 485 300 485 c 0
 399.486708498 485 427 404.639186992 427 340 c 0
 427 325.800002135 424.2791026 313.223514834 420.879276079 298.668007542 c 1
 456.724618629 288.151736953 535 254.715537341 535 165 c 0
 535 89.9484109989 482.363850885 15 400 15 c 0
 355.225003291 15 321.269232521 48.2306071516 300.131779895 70.8436932627 c 1
 280.798895683 49.9402887087 245.552192713 15 200 15 c 0
 120.974500382 15 65 88.8905210857 65 162 c 0
 65 244.348556412 142.447507626 278.342966954 180.272238767 290.853827595 c 1
EndSplineSet
Validated: 524289
Ligature2: "Ligature Substitution lookup 27 subtable" k o
Ligature2: "Ligature Substitution lookup 14 subtable" k o tp_space
Ligature2: "tokiponaWords subtable" percent k o space
EndChar

StartChar: tp_kule
Encoding: 60958 60958 30
Width: 600
VWidth: 0
Flags: HW
LayerCount: 2
Back
SplineSet
100 210 m 5
 500 210 l 1029
300 450 m 5
 100 50 l 5
 500 50 l 5
 300 450 l 5
EndSplineSet
Fore
SplineSet
220.450849719 235 m 1
 379.549150281 235 l 1
 300 394.098300563 l 1
 220.450849719 235 l 1
195.450849719 185 m 1
 140.450849719 75 l 1
 459.549150281 75 l 1
 404.549150281 185 l 1
 195.450849719 185 l 1
277.639320225 461.180339887 m 2
 279.093860399 464.089420235 283.016526515 468.954813051 287.099769837 471.414575918 c 0
 291.053119787 473.796090475 295.44127073 474.918036375 299.79005893 474.918036375 c 0
 308.981980834 474.918036375 317.998044996 469.905609445 322.360679775 461.180339887 c 2
 435.450849719 235 l 1
 500 235 l 2
 513.617128764 235 525 223.617128764 525 210 c 0
 525 196.382871236 513.617128764 185 500 185 c 2
 460.450849719 185 l 1
 522.360679775 61.1803398875 l 2
 523.72123569 58.4592280583 524.99826239 54.1800083443 524.99826239 50.0467891501 c 0
 524.99826239 36.5283425905 513.726483286 25 500 25 c 2
 100 25 l 2
 97.5558349461 25 93.5531225594 25.6374587713 90.6084773639 26.8310703187 c 0
 80.9212775317 30.7577755121 75.0646387818 40.3452781459 75.0646387818 50.2274401412 c 0
 75.0646387818 53.9311854411 75.8873107998 57.676321037 77.639320225 61.1803398875 c 2
 139.549150281 185 l 1
 100 185 l 2
 86.3828712355 185 75 196.382871236 75 210 c 0
 75 223.617128764 86.3828712355 235 100 235 c 2
 164.549150281 235 l 1
 277.639320225 461.180339887 l 2
EndSplineSet
Ligature2: "Ligature Substitution lookup 162 subtable" k u l e
Ligature2: "Ligature Substitution lookup 93 subtable" k u l e tp_space
Ligature2: "tokiponaWords subtable" percent k u l e space
LCarets2: 5 0 0 0 0 0
EndChar

StartChar: tp_kulupu
Encoding: 60959 60959 31
Width: 600
VWidth: 0
Flags: HW
LayerCount: 2
Back
SplineSet
360 130 m 4
 360 174 396 210 440 210 c 4
 484 210 520 174 520 130 c 4
 520 86 484 50 440 50 c 4
 396 50 360 86 360 130 c 4
80 130 m 4
 80 174 116 210 160 210 c 4
 204 210 240 174 240 130 c 4
 240 86 204 50 160 50 c 4
 116 50 80 86 80 130 c 4
220 370 m 4
 220 414 256 450 300 450 c 4
 344 450 380 414 380 370 c 4
 380 326 344 290 300 290 c 4
 256 290 220 326 220 370 c 4
EndSplineSet
Fore
SplineSet
195 370 m 0
 195 427.844147731 242.155680827 475 300 475 c 0
 357.844147731 475 405 427.844319173 405 370 c 0
 405 312.155852269 357.844319173 265 300 265 c 0
 242.155852269 265 195 312.155680827 195 370 c 0
245 370 m 0
 245 339.844319173 269.844147731 315 300 315 c 0
 330.155680827 315 355 339.844147731 355 370 c 0
 355 400.155680827 330.155852269 425 300 425 c 0
 269.844319173 425 245 400.155852269 245 370 c 0
55 130 m 0
 55 187.844147731 102.155680827 235 160 235 c 0
 217.844147731 235 265 187.844319173 265 130 c 0
 265 72.1558522686 217.844319173 25 160 25 c 0
 102.155852269 25 55 72.1556808271 55 130 c 0
105 130 m 0
 105 99.8443191729 129.844147731 75 160 75 c 0
 190.155680827 75 215 99.8441477314 215 130 c 0
 215 160.155680827 190.155852269 185 160 185 c 0
 129.844319173 185 105 160.155852269 105 130 c 0
335 130 m 0
 335 187.844147731 382.155680827 235 440 235 c 0
 497.844147731 235 545 187.844319173 545 130 c 0
 545 72.1558522686 497.844319173 25 440 25 c 0
 382.155852269 25 335 72.1556808271 335 130 c 0
385 130 m 0
 385 99.8443191729 409.844147731 75 440 75 c 0
 470.155680827 75 495 99.8441477314 495 130 c 0
 495 160.155680827 470.155852269 185 440 185 c 0
 409.844319173 185 385 160.155852269 385 130 c 0
EndSplineSet
Validated: 524289
Ligature2: "Ligature Substitution lookup 259 subtable" k u l u p u
Ligature2: "Ligature Substitution lookup 248 subtable" k u l u p u tp_space
Ligature2: "tokiponaWords subtable" percent k u l u p u space
EndChar

StartChar: tp_kute
Encoding: 60960 60960 32
Width: 550
VWidth: 0
Flags: W
HStem: 5 50<156.744 324.599> 211 78<216.281 285.719> 445 50<156.744 324.599>
VStem: 212 78<215.281 284.719> 425 50<158.799 341.201>
CounterMasks: 1 e0
LayerCount: 2
Back
SplineSet
94.625 405.375 m 1
 134.5 445.25 179.5 470 240 470 c 0
 361 470 450 371 450 250 c 0
 450 129 361 30 240 30 c 0
 179.5 30 134.5 54.75 94.625 94.625 c 1025
EndSplineSet
Refer: 153 -1 S 1 0 0 1 251 250 2
Fore
SplineSet
76.9473304703 387.69733047 m 0
 67.3185663807 397.32609456 67.3185663807 413.42390544 76.9473304703 423.05266953 c 0
 119.885745098 465.991084157 171.9615256 495 240 495 c 0
 375.942735425 495 475 383.269318472 475 250 c 0
 475 116.730694282 375.944216199 5 240 5 c 0
 171.961402909 5 119.885772459 34.0088884816 76.9473304703 76.9473304703 c 0
 67.3185663807 86.57609456 67.3185663807 102.67390544 76.9473304703 112.30266953 c 0
 86.57609456 121.931433619 102.67390544 121.931433619 112.30266953 112.30266953 c 0
 149.114227541 75.4911115184 187.038597091 55 240 55 c 0
 346.055783801 55 425 141.269305718 425 250 c 0
 425 358.730681528 346.057264575 445 240 445 c 0
 187.0384744 445 149.114254902 424.508915843 112.30266953 387.69733047 c 0
 102.67390544 378.068566381 86.57609456 378.068566381 76.9473304703 387.69733047 c 0
EndSplineSet
Refer: 153 -1 N 1 0 0 1 251 250 2
Ligature2: "Ligature Substitution lookup 163 subtable" k u t e
Ligature2: "Ligature Substitution lookup 94 subtable" k u t e tp_space
Ligature2: "tokiponaWords subtable" percent k u t e space
LCarets2: 5 0 0 0 0 0
EndChar

StartChar: tp_la
Encoding: 60961 60961 33
Width: 460
VWidth: 0
Flags: HW
HStem: 5 50<156.744 324.599> 445 50<156.744 324.599>
VStem: 425 50<158.799 341.201>
LayerCount: 2
Back
SplineSet
94.625 345.375 m 5
 134.5 385.25 159.5 400 220 400 c 4
 301 400 360 331 360 250 c 4
 360 169 301 100 220 100 c 4
 159.5 100 134.5 114.75 94.625 154.625 c 1029
EndSplineSet
Fore
SplineSet
76.9473304703 327.69733047 m 0
 72.1329484255 332.511712515 69.7257574031 338.943356257 69.7257574031 345.375 c 0
 69.7257574031 351.806643743 72.1329484255 358.238287485 76.9473304703 363.05266953 c 0
 118.787138241 404.8924773 154.047020434 425 220 425 c 0
 316.647651707 425 385 342.687323233 385 250 c 0
 385 157.312626557 316.647811404 75 220 75 c 0
 154.058740902 75 118.787590142 95.1070707987 76.9473304703 136.94733047 c 0
 72.1329484255 141.761712515 69.7257574031 148.193356257 69.7257574031 154.625 c 0
 69.7257574031 161.056643743 72.1329484255 167.488287485 76.9473304703 172.30266953 c 0
 81.7617125152 177.117051575 88.1933562576 179.524242597 94.625 179.524242597 c 0
 101.056643743 179.524242597 107.488287485 177.117051574 112.30266953 172.30266953 c 0
 150.212409858 134.392929201 164.941259098 125 220 125 c 0
 285.352188596 125 335 180.687373443 335 250 c 0
 335 319.312676767 285.352348293 375 220 375 c 0
 164.952979566 375 150.212861759 365.6075227 112.30266953 327.69733047 c 0
 107.488287485 322.882948425 101.056643743 320.475757403 94.625 320.475757403 c 0
 88.1933562576 320.475757403 81.7617125152 322.882948425 76.9473304703 327.69733047 c 0
EndSplineSet
Validated: 524289
Ligature2: "Ligature Substitution lookup 28 subtable" l a
Ligature2: "Ligature Substitution lookup 15 subtable" l a tp_space
Ligature2: "tokiponaWords subtable" percent l a space
LCarets2: 3 0 0 0
EndChar

StartChar: tp_lape
Encoding: 60962 60962 34
Width: 600
VWidth: 0
Flags: HW
LayerCount: 2
Back
SplineSet
100 250 m 5
 328 250 l 1029
328 250 m 4
 328 303 371 346 424 346 c 4
 477 346 520 303 520 250 c 4
 520 197 477 154 424 154 c 4
 371 154 328 197 328 250 c 4
EndSplineSet
Fore
SplineSet
353 250 m 0
 353 210.807142702 384.807092901 179 424 179 c 0
 463.192857298 179 495 210.807092901 495 250 c 0
 495 289.192857298 463.192907099 321 424 321 c 0
 384.807142702 321 353 289.192907099 353 250 c 0
75 250 m 0
 75 263.617128764 86.3828712355 275 100 275 c 2
 305.587679646 275 l 1
 317.11156733 329.819268494 365.763039299 371 424 371 c 0
 490.807092901 371 545 316.807142702 545 250 c 0
 545 183.192907099 490.807142702 129 424 129 c 0
 365.763077554 129 317.111569851 170.180700957 305.587678728 225 c 1
 100 225 l 2
 86.3828712355 225 75 236.382871236 75 250 c 0
EndSplineSet
Validated: 524289
Ligature2: "Ligature Substitution lookup 164 subtable" l a p e
Ligature2: "Ligature Substitution lookup 95 subtable" l a p e tp_space
Ligature2: "tokiponaWords subtable" percent l a p e space
EndChar

StartChar: tp_laso
Encoding: 60963 60963 35
Width: 600
VWidth: 0
Flags: HW
LayerCount: 2
Back
SplineSet
300 374.6796875 m 5
 100 50 l 5
 500 50 l 5
 300 374.6796875 l 5
300 374.6796875 m 1028
500 574.6796875 m 5
 368 570.6796875 304 484.6796875 300 374.6796875 c 5
 456 388.6796875 486 452.6796875 500 574.6796875 c 5
100 574.6796875 m 5
 232 570.6796875 296 484.6796875 300 374.6796875 c 5
 144 388.6796875 114 452.6796875 100 574.6796875 c 5
EndSplineSet
Fore
SplineSet
300 327.012727724 m 1
 144.762245729 75 l 1
 455.237754271 75 l 1
 300 327.012727724 l 1
499.242771834 599.668216979 m 0
 499.418068583 599.673529002 499.594356005 599.676174445 499.771557414 599.676174445 c 0
 510.659488172 599.676174445 524.998032344 589.688719611 524.998032344 574.616742703 c 0
 524.998032344 457.296459105 467.536226103 376.904891756 341.558087431 354.881313075 c 1
 521.285687785 63.1118074854 l 2
 522.811381681 60.6349983986 524.99826239 54.8824906825 524.99826239 50.0467891501 c 0
 524.99826239 36.5283425905 513.726483286 25 500 25 c 2
 100 25 l 2
 97.6586433788 25 92.0972588372 25.9583375661 88.598622792 27.7512113192 c 0
 79.9959636603 32.1596383648 75.0840255258 41.1008926506 75.0840255258 50.2061347227 c 0
 75.0840255258 54.6370102184 76.2472110508 59.1067193097 78.7143122154 63.1118074854 c 2
 258.441912569 354.881313075 l 1
 132.370355547 376.921223211 75.0034449652 457.281715487 75.0034449652 574.60983205 c 0
 75.0034449652 588.33638682 86.696553661 599.67902307 100.043820516 599.67902307 c 0
 100.281119015 599.67902307 100.51894037 599.675437821 100.757228166 599.668216979 c 0
 200.518338103 596.645153041 266.756312846 549.100644822 300 480.774134558 c 1
 333.243687154 549.100644822 399.481661897 596.645153041 499.242771834 599.668216979 c 0
471.071031832 547.129446231 m 1
 383.530047188 534.12327539 339.391961855 478.557134039 327.725628122 403.154921186 c 1
 434.498392933 419.600767299 457.155051218 460.199776667 471.071031832 547.129446231 c 1
128.928968168 547.129446231 m 1
 142.844948782 460.199776667 165.501607067 419.600767299 272.274371878 403.154921186 c 1
 260.608038145 478.557134039 216.469952812 534.12327539 128.928968168 547.129446231 c 1
EndSplineSet
Validated: 524289
Ligature2: "Ligature Substitution lookup 165 subtable" l a s o
Ligature2: "Ligature Substitution lookup 96 subtable" l a s o tp_space
Ligature2: "tokiponaWords subtable" percent l a s o space
LCarets2: 5 0 0 0 0 0
EndChar

StartChar: tp_lawa
Encoding: 60964 60964 36
Width: 560
VWidth: 0
Flags: HW
HStem: 5 50<197.507 362.493> 225 50<106.229 453.771> 445 50<197.507 362.493>
VStem: 55 51.2285<150.77 225 275 349.23> 453.771 51.2285<150.77 225 275 349.23>
CounterMasks: 1 e0
LayerCount: 2
Back
SplineSet
100 250 m 29
 460 250 l 1053
EndSplineSet
Refer: 12 60940 S 1 0 0 1 0 0 2
Fore
SplineSet
453.771450171 225 m 1
 106.228549829 225 l 1
 115.989837929 127.077380872 183.146770489 55 280 55 c 0
 376.853229511 55 444.010162071 127.077380872 453.771450171 225 c 1
106.228549829 275 m 1
 453.771450171 275 l 1
 444.010162071 372.922619128 376.853229511 445 280 445 c 0
 183.146770489 445 115.989837929 372.922619128 106.228549829 275 c 1
55 250 m 0
 55 381.594726562 142.926757812 495 280 495 c 0
 417.073242188 495 505 381.594726562 505 250 c 0
 505 118.405273438 417.073242188 5 280 5 c 0
 142.926757812 5 55 118.405273438 55 250 c 0
EndSplineSet
Validated: 524289
Ligature2: "Ligature Substitution lookup 166 subtable" l a w a
Ligature2: "Ligature Substitution lookup 97 subtable" l a w a tp_space
Ligature2: "tokiponaWords subtable" percent l a w a space
LCarets2: 5 0 0 0 0 0
EndChar

StartChar: tp_len
Encoding: 60965 60965 37
Width: 500
VWidth: 0
Flags: HW
LayerCount: 2
Back
SplineSet
100 -100 m 1
 100 50 l 1024
500 -100 m 0
 500 50 l 1024
300 -100 m 0
 300 50 l 1025
100 450 m 1
 100 50 l 1
 500 50 l 1
 500 450 l 1
 100 450 l 1
EndSplineSet
Fore
SplineSet
75 450 m 2
 75 460.729492188 84.8671875 475 100 475 c 2
 500 475 l 2
 510.729492188 475 525 465.1328125 525 450 c 2
 525 50 l 1
 525 -100 l 2
 525 -113.6171875 513.6171875 -125 500 -125 c 0
 486.3828125 -125 475 -113.6171875 475 -100 c 2
 475 25 l 1
 325 25 l 1
 325 -100 l 2
 325 -113.6171875 313.6171875 -125 300 -125 c 0
 286.3828125 -125 275 -113.6171875 275 -100 c 2
 275 25 l 1
 125 25 l 1
 125 -100 l 2
 125 -113.6171875 113.6171875 -125 100 -125 c 0
 86.3828125 -125 75 -113.6171875 75 -100 c 2
 75 50 l 1
 75 450 l 2
125 425 m 1
 125 75 l 1
 300 75 l 1
 475 75 l 1
 475 425 l 1
 125 425 l 1
EndSplineSet
Validated: 524289
Ligature2: "Ligature Substitution lookup 71 subtable" l e n
Ligature2: "Ligature Substitution lookup 49 subtable" l e n tp_space
Ligature2: "tokiponaWords subtable" percent l e n space
LCarets2: 4 0 0 0 0
EndChar

StartChar: tp_lete
Encoding: 60966 60966 38
Width: 600
VWidth: 0
Flags: HW
LayerCount: 2
Back
SplineSet
150 250 m 5
 450 250 l 1029
220 120 m 5
 380 380 l 1029
220 380 m 5
 380 120 l 1029
EndSplineSet
Fore
SplineSet
206.897564358 401.291457918 m 0
 210.89641976 403.752292012 215.378341392 404.921280315 219.82732781 404.921280315 c 0
 228.280914111 404.921280315 236.615589881 400.700721202 241.291457918 393.102435642 c 2
 300 297.701054758 l 1
 358.708542082 393.102435642 l 2
 363.384410119 400.700721202 371.719085889 404.921280315 380.17267219 404.921280315 c 0
 384.621658608 404.921280315 389.10358024 403.752292012 393.102435642 401.291457918 c 0
 400.700721202 396.615589881 404.921280315 388.280914111 404.921280315 379.82732781 c 0
 404.921280315 375.378341392 403.752292012 370.89641976 401.291457918 366.897564358 c 2
 344.73911062 275 l 1
 450 275 l 2
 463.617128764 275 475 263.617128764 475 250 c 0
 475 236.382871236 463.617128764 225 450 225 c 2
 344.73911062 225 l 1
 401.291457918 133.102435642 l 2
 403.752292012 129.10358024 404.921280315 124.621658608 404.921280315 120.17267219 c 0
 404.921280315 111.719085889 400.700721202 103.384410119 393.102435642 98.7085420824 c 0
 389.10358024 96.2477079888 384.621658608 95.0787196854 380.17267219 95.0787196854 c 0
 371.719085889 95.0787196854 363.384410119 99.2992787985 358.708542082 106.897564358 c 2
 300 202.298945242 l 1
 241.291457918 106.897564358 l 2
 236.615589881 99.2992787985 228.280914111 95.0787196854 219.82732781 95.0787196854 c 0
 215.378341392 95.0787196854 210.89641976 96.2477079888 206.897564358 98.7085420824 c 0
 199.299278798 103.384410119 195.078719685 111.719085889 195.078719685 120.17267219 c 0
 195.078719685 124.621658608 196.247707988 129.10358024 198.708542082 133.102435642 c 2
 255.26088938 225 l 1
 150 225 l 2
 136.382871236 225 125 236.382871236 125 250 c 0
 125 263.617128764 136.382871236 275 150 275 c 2
 255.26088938 275 l 1
 198.708542082 366.897564358 l 2
 196.247707988 370.89641976 195.078719685 375.378341392 195.078719685 379.82732781 c 0
 195.078719685 388.280914111 199.299278798 396.615589881 206.897564358 401.291457918 c 0
EndSplineSet
Validated: 524289
Ligature2: "Ligature Substitution lookup 168 subtable" l e t e
Ligature2: "Ligature Substitution lookup 99 subtable" l e t e tp_space
Ligature2: "tokiponaWords subtable" percent l e t e space
EndChar

StartChar: tp_li
Encoding: 60967 60967 39
Width: 360
VWidth: 0
Flags: HW
LayerCount: 2
Back
SplineSet
100 400 m 5
 280 250 l 5
 100 100 l 1029
EndSplineSet
Fore
SplineSet
80.7944680101 416.004609992 m 0
 85.6806137245 421.867984849 92.864600611 424.902802921 100.077554516 424.902802921 c 0
 105.733380525 424.902802921 111.407016765 423.036859679 116.004609992 419.20553199 c 2
 296.004609992 269.20553199 l 2
 302.03195177 264.182747175 304.645194849 257.228398769 304.645194849 250.391235354 c 0
 304.645194849 242.765826659 301.394665144 235.286180637 296.004609992 230.79446801 c 2
 116.004609992 80.7944680101 l 2
 111.407016765 76.9631403213 105.733380525 75.097197079 100.077554516 75.097197079 c 0
 92.8646006113 75.097197079 85.6806137246 78.132015151 80.7944680101 83.9953900084 c 0
 76.9631403213 88.5929832349 75.097197079 94.2666194751 75.097197079 99.9224454838 c 0
 75.097197079 107.135399389 78.132015151 114.319386276 83.9953900084 119.20553199 c 2
 240.94875162 250 l 1
 83.9953900084 380.79446801 l 2
 78.132015151 385.680613724 75.097197079 392.864600611 75.097197079 400.077554516 c 0
 75.097197079 405.733380525 76.9631403213 411.407016765 80.7944680101 416.004609992 c 0
EndSplineSet
Validated: 524289
Ligature2: "Ligature Substitution lookup 29 subtable" l i
Ligature2: "Ligature Substitution lookup 16 subtable" l i tp_space
Ligature2: "tokiponaWords subtable" percent l i space
LCarets2: 3 0 0 0
EndChar

StartChar: tp_lili
Encoding: 60968 60968 40
Width: 600
VWidth: 0
Flags: W
HStem: 25 50<75.2041 259.549 340.451 524.796> 454.938 20G<97.9378 104.409 495.591 502.062>
VStem: 75.062 47.2986<461.18 472.154> 477.639 47.2986<461.18 472.154>
LayerCount: 2
Back
SplineSet
100 50 m 5
 500 50 l 1029
100 450 m 4
 300 50 l 5
 500 450 l 1029
EndSplineSet
Fore
SplineSet
88.8196601125 472.360679775 m 0
 92.3208173991 474.111258418 96.0774970474 474.93795364 99.798134457 474.93795364 c 0
 109.020536191 474.93795364 118.021493303 469.858712831 122.360679775 461.180339887 c 2
 300 105.901699437 l 1
 477.639320225 461.180339887 l 2
 481.978506697 469.858712831 490.979463809 474.93795364 500.201865543 474.93795364 c 0
 503.922502952 474.93795364 507.679182601 474.111258418 511.180339887 472.360679775 c 0
 519.858712831 468.021493303 524.93795364 459.020536191 524.93795364 449.798134457 c 0
 524.93795364 446.077497048 524.111258418 442.320817399 522.360679775 438.819660113 c 2
 340.450849719 75 l 1
 500 75 l 2
 513.617128764 75 525 63.6171287645 525 50 c 0
 525 36.3828712355 513.617128764 25 500 25 c 2
 100 25 l 2
 86.3828712355 25 75 36.3828712355 75 50 c 0
 75 63.6171287645 86.3828712355 75 100 75 c 2
 259.549150281 75 l 1
 77.639320225 438.819660113 l 2
 75.8887415817 442.320817399 75.0620463602 446.077497048 75.0620463602 449.798134457 c 0
 75.0620463602 459.020536191 80.1412871687 468.021493303 88.8196601125 472.360679775 c 0
EndSplineSet
Ligature2: "Ligature Substitution lookup 169 subtable" l i l i
Ligature2: "Ligature Substitution lookup 100 subtable" l i l i tp_space
Ligature2: "tokiponaWords subtable" percent l i l i space
LCarets2: 5 0 0 0 0 0
EndChar

StartChar: tp_linja
Encoding: 60969 60969 41
Width: 600
VWidth: 0
Flags: HW
LayerCount: 2
Back
SplineSet
100 175 m 29
 100 175 100 325 200 325 c 7
 250 325 300 250 300 250 c 5
 300 250 350 175 400 175 c 7
 500 175 500 325 500 325 c 1029
EndSplineSet
Fore
SplineSet
74.998878849 174.250799854 m 1
 74.998878849 174.250799854 69.5986837141 350 200 350 c 0
 271.06499214 350 320.785880076 263.890544577 320.785880076 263.890544577 c 2
 323.320137516 260.117526971 370.756530594 200 400 200 c 0
 468.422232244 200 474.955295616 314.882482852 475.000026485 325.036390063 c 0
 475.019830354 338.641647814 486.399433109 349.9999994 500.000825349 349.9999994 c 0
 500.036390063 349.999973515 l 0
 513.073250191 349.980997009 524.114187772 340.181808731 525.001121151 325.749200146 c 1
 525.001121151 325.749200146 530.913258848 150 400 150 c 0
 329.979107023 150 279.230838165 236.084448972 279.230838165 236.084448972 c 2
 277.354033158 238.878647473 229.529720891 300 200 300 c 0
 131.599371032 300 125.029600605 185.096074792 124.999973515 174.963609937 c 0
 124.980169646 161.358352186 113.600566891 150.0000006 99.9991746507 150.0000006 c 0
 85.7834919489 150.010347067 75.7464832202 162.085420213 74.998878849 174.250799854 c 1
EndSplineSet
Validated: 524321
Ligature2: "Ligature Substitution lookup 237 subtable" l i n j a
Ligature2: "Ligature Substitution lookup 224 subtable" l i n j a tp_space
Ligature2: "tokiponaWords subtable" percent l i n j a space
EndChar

StartChar: tp_lipu
Encoding: 60970 60970 42
Width: 600
VWidth: 0
Flags: HW
HStem: 25 50<125 475> 425 50<125 475>
VStem: 75 50<75 425> 475 50<75 425>
AnchorPoint: "Small" 300 250 basechar 0
LayerCount: 2
Back
SplineSet
100 450 m 1
 100 50 l 1
 500 50 l 1
 500 450 l 1
 100 450 l 1
EndSplineSet
Fore
SplineSet
125 425 m 1
 125 75 l 1
 475 75 l 1
 475 425 l 1
 125 425 l 1
75 450 m 2
 75 460.729492188 84.8671875 475 100 475 c 2
 500 475 l 2
 510.729492188 475 525 465.1328125 525 450 c 2
 525 50 l 2
 525 39.2705078125 515.1328125 25 500 25 c 2
 100 25 l 2
 89.2705078125 25 75 34.8671875 75 50 c 2
 75 450 l 2
EndSplineSet
Ligature2: "Ligature Substitution lookup 170 subtable" l i p u
Ligature2: "Ligature Substitution lookup 101 subtable" l i p u tp_space
Ligature2: "tokiponaWords subtable" percent l i p u space
LCarets2: 5 0 0 0 0 0
EndChar

StartChar: tp_loje
Encoding: 60971 60971 43
Width: 600
VWidth: 0
Flags: HW
LayerCount: 2
Back
SplineSet
100 50 m 5
 300 350 l 5
 500 50 l 5
 100 50 l 5
100 600 m 5
 100 600 142 350 300 350 c 4
 458 350 500 600 500 600 c 5
 100 600 l 5
EndSplineSet
Fore
SplineSet
131.16302257 575 m 1
 149.092290252 505.461642754 200.045888696 375 300 375 c 0
 400.323919872 375 451.288983801 506.940407628 468.83697743 575 c 1
 131.16302257 575 l 1
75.2668673361 596.32377193 m 1
 73.7731723157 607.942299388 82.8788863254 625 100 625 c 2
 500 625 l 2
 512.681367692 625 527.43900835 612.35146948 524.651165587 595.838265361 c 1
 524.651165587 595.838265361 492.579547117 367.868665928 343.224995558 330.231897606 c 1
 520.801257358 63.8675049056 l 2
 523.589509026 59.6851274036 524.908858185 54.9191016316 524.908858185 50.1895067711 c 0
 524.908858185 41.3977762757 520.349952613 32.7319298835 512.192752184 28.1748586677 c 0
 508.435664988 26.0759383252 502.608526968 25 500 25 c 2
 100 25 l 2
 86.2735167144 25 75.0017376101 36.5283425903 75.0017376101 50.0467891498 c 0
 75.0017376101 55.2930702307 77.4379690312 61.2263444901 79.1987426416 63.8675049056 c 2
 256.801782116 330.272064117 l 1
 107.994433715 368.069648149 75.2668673361 596.32377193 75.2668673361 596.32377193 c 1
146.712927296 75 m 1
 453.287072704 75 l 1
 300 304.930609057 l 1
 146.712927296 75 l 1
EndSplineSet
Validated: 524321
Ligature2: "Ligature Substitution lookup 171 subtable" l o j e
Ligature2: "Ligature Substitution lookup 102 subtable" l o j e tp_space
Ligature2: "tokiponaWords subtable" percent l o j e space
EndChar

StartChar: tp_lon
Encoding: 60972 60972 44
Width: 500
VWidth: 0
Flags: W
HStem: 155 50<75.2041 424.796> 271 78<216.281 285.719>
VStem: 212 78<275.281 344.719>
LayerCount: 2
Back
SplineSet
400 180 m 1
 100 180 l 1025
EndSplineSet
Refer: 153 -1 N 1 0 0 1 251 310 2
Fore
SplineSet
425 180 m 0
 425 166.382871236 413.617128764 155 400 155 c 2
 100 155 l 2
 86.3828712355 155 75 166.382871236 75 180 c 0
 75 193.617128764 86.3828712355 205 100 205 c 2
 400 205 l 2
 413.617128764 205 425 193.617128764 425 180 c 0
EndSplineSet
Refer: 153 -1 S 1 0 0 1 251 310 2
LCarets2: 4 0 0 0 0
Ligature2: "Ligature Substitution lookup 72 subtable" l o n
Ligature2: "Ligature Substitution lookup 50 subtable" l o n tp_space
Ligature2: "tokiponaWords subtable" percent l o n space
EndChar

StartChar: tp_luka
Encoding: 60973 60973 45
Width: 600
VWidth: 0
Flags: HW
HStem: 25 21G<493.191 506.809> 25 21G<493.191 506.809> 445 50<259.974 401.861>
VStem: 128 50<84.6178 354.476> 475 50<25.2041 362.546>
LayerCount: 2
Back
SplineSet
60 150 m 5
 169 50 l 5
 169 50 153 166.999023438 153 250 c 7
 153 384.092773438 235.229492188 470 329 470 c 7
 434.016601562 470 500 382 500 250 c 4
 500 50 l 1028
EndSplineSet
Fore
SplineSet
41.578163497 166.900767434 m 0xb8
 46.4455308444 172.206197843 53.235559854 174.900052708 60.0375418181 174.900052708 c 0
 66.1000717483 174.900052708 72.1720970531 172.76006621 76.900767434 168.421836503 c 2
 136.381287154 113.852552356 l 1
 132.226540128 154.587780374 128 206.019258249 128 250 c 0
 128 393.887422353 218.138166925 495 329 495 c 0
 452.131373642 495 525 389.482912892 525 250 c 2
 525 50 l 2
 525 36.3828712355 513.617128764 25 500 25 c 0
 486.382871236 25 475 36.3828712355 475 50 c 2
 475 250 l 2
 475 374.517087108 415.901829483 445 329 445 c 0
 252.32081745 445 178 374.298124522 178 250 c 0
 178 169.384297761 193.770268736 53.3813882882 193.770268736 53.3813882882 c 2
 194.516352794 47.9159696386 192.943057153 40.0322703314 188.691035998 34.5966529184 c 0
 183.798885036 28.3427186152 176.374527722 25.1124083877 168.92352826 25.1124083877 c 0
 162.889285594 25.1124083877 156.837569194 27.231065673 152.099232566 31.578163497 c 2
 43.099232566 131.578163497 l 2
 37.7938021574 136.445530845 35.0999472918 143.235559854 35.0999472918 150.037541818 c 0
 35.0999472918 156.100071748 37.2399337897 162.172097053 41.578163497 166.900767434 c 0xb8
EndSplineSet
Validated: 8912897
Ligature2: "Ligature Substitution lookup 172 subtable" l u k a
Ligature2: "Ligature Substitution lookup 103 subtable" l u k a tp_space
Ligature2: "tokiponaWords subtable" percent l u k a space
EndChar

StartChar: tp_ma
Encoding: 60976 60976 48
Width: 600
VWidth: 0
Flags: HW
HStem: 5 50<197.097 362.903> 25 21G<273.191 286.809> 225 50<75.2041 484.796> 445 50<197.097 362.903> 455 20G<273.191 286.809> 455 20G<273.191 286.809>
VStem: 55 50<151.252 348.748> 255 50<25.2041 474.796> 455 50<151.252 348.748>
CounterMasks: 1 0380
LayerCount: 2
Back
SplineSet
100 250 m 29
 460 250 l 1053
280 450 m 29
 280 50 l 1053
EndSplineSet
Refer: 12 60940 S 1 0 0 1 0 0 2
Fore
SplineSet
55 250 m 0xb380
 55 381.594726562 142.926757812 495 280 495 c 0
 417.073242188 495 505 381.594726562 505 250 c 0
 505 118.405273438 417.073242188 5 280 5 c 0
 142.926757812 5 55 118.405273438 55 250 c 0xb380
106.228549829 275 m 1
 255 275 l 1
 255 443.338131622 l 1
 171.708428157 432.038556722 115.125877266 364.255597929 106.228549829 275 c 1
305 443.338131622 m 1
 305 275 l 1
 453.771450171 275 l 1
 444.874122734 364.255597929 388.291571843 432.038556722 305 443.338131622 c 1
453.771450171 225 m 1
 305 225 l 1
 305 56.6618683778 l 1
 388.291571843 67.9614432784 444.874122734 135.744402071 453.771450171 225 c 1
255 56.6618683778 m 1
 255 225 l 1
 106.228549829 225 l 1
 115.125877266 135.744402071 171.708428157 67.9614432784 255 56.6618683778 c 1
EndSplineSet
Ligature2: "Ligature Substitution lookup 30 subtable" m a
Ligature2: "Ligature Substitution lookup 17 subtable" m a tp_space
Ligature2: "tokiponaWords subtable" percent m a space
LCarets2: 3 0 0 0
EndChar

StartChar: tp_mama
Encoding: 60977 60977 49
Width: 600
VWidth: 0
Flags: HW
HStem: -126 50<258.712 341.288> 25 50<217.237 382.763 259.151 340.85> 425 50<217.237 382.763>
VStem: 75 50<167.237 332.763> 194 50<-60.9394 9.2758> 356 50<-60.9394 9.27577> 475 50<167.237 332.763>
LayerCount: 2
Back
SplineSet
199 -46 m 4
 199 2 232 30 280 30 c 4
 328 30 361 2 361 -46 c 4
 361 -94 328 -121 280 -121 c 4
 232 -121 199 -94 199 -46 c 4
EndSplineSet
Refer: 12 60940 S 1 0 0 1 0 0 2
Fore
SplineSet
224 -46 m 0
 224 -79.1145790129 242.426591416 -96 280 -96 c 0
 317.570143462 -96 336 -79.1242554813 336 -46 c 0
 336 -12.5846253441 317.111603274 5 280 5 c 0
 242.893681773 5 224 -12.5716580066 224 -46 c 0
55 250 m 0
 55 381.594726562 142.926757812 495 280 495 c 0
 417.073242188 495 505 381.594726562 505 250 c 0
 505 147.22219801 451.365684965 55.5397540595 362.572435154 20.3146094385 c 1
 377.247674538 3.46036733939 386 -19.0247521265 386 -46 c 0
 386 -108.875744519 338.429856538 -146 280 -146 c 0
 221.573408584 -146 174 -108.885420987 174 -46 c 0
 174 -19.0279257213 182.752911347 3.45803474865 197.429832099 20.3137100125 c 1
 108.635228037 55.5381933817 55 147.221323234 55 250 c 0
280 55 m 0
 384.926757812 55 455 139.594726562 455 250 c 0
 455 360.405273438 384.926757812 445 280 445 c 0
 175.073242188 445 105 360.405273438 105 250 c 0
 105 139.594726562 175.073242188 55 280 55 c 0
EndSplineSet
Ligature2: "Ligature Substitution lookup 174 subtable" m a m a
Ligature2: "Ligature Substitution lookup 105 subtable" m a m a tp_space
Ligature2: "tokiponaWords subtable" percent m a m a space
LCarets2: 5 0 0 0 0 0
EndChar

StartChar: tp_mani
Encoding: 60978 60978 50
Width: 560
VWidth: 0
Flags: HW
HStem: 5 50<197.097 362.903> 445 50<195.717 364.341>
VStem: 55 50<151.252 348.428> 435.014 49.9982<569.947 594.736> 455 50<151.252 348.538>
LayerCount: 2
Back
SplineSet
460 570 m 5
 460 570 456 445.579101562 398 441 c 1028
100 570 m 5
 100 570 92 451.706054688 164 439 c 1028
EndSplineSet
Refer: 12 60940 S 1 0 0 1 0 0 2
Fore
SplineSet
105 250 m 0xe8
 105 139.594726562 175.073242188 55 280 55 c 0
 384.926757812 55 455 139.594726562 455 250 c 0
 455 360.405273438 384.926757812 445 280 445 c 0
 175.073242188 445 105 360.405273438 105 250 c 0xe8
460.837845252 594.985956362 m 0
 475.020317679 594.510380522 484.655496551 582.116134278 485.012289522 569.947274155 c 1
 485.012289522 569.947274155 488.83164398 467.102297663 436.970107355 429.427256593 c 1
 480.411759527 384.091766391 505 319.589174104 505 250 c 0
 505 118.405273438 417.073242188 5 280 5 c 0
 142.926757812 5 55 118.405273438 55 250 c 0
 55 319.422143064 79.4703465471 383.782093087 122.717406803 429.100476714 c 1
 80.1974615436 458.358752779 74.1501005813 519.130906546 74.1501005813 551.336656228 c 0
 74.1501005813 564.139178086 75.1057313357 572.427510291 75.1057313357 572.427510291 c 1
 76.6070483131 584.035066965 86.6627684083 594.999587326 100.019451352 594.999587326 c 0
 100.55564642 594.999587326 101.097161211 594.981917265 101.643655852 594.945909393 c 0
 114.694807823 594.085984747 124.998672348 582.882600757 124.998672348 569.958361198 c 0
 124.998672348 559.778936953 124.696079769 474.500116782 166.107891995 464.096925258 c 1
 198.362090613 483.700792578 236.732674502 495 280 495 c 0
 322.410298739 495 360.115921159 484.143982296 391.968272566 465.252050426 c 0
 393.284185398 465.585679158 394.641894415 465.81267027 396.032372018 465.922448518 c 0
 421.734617922 467.951641524 434.671301559 560.616699287 435.014043638 570.837845252 c 0
 435.461240979 584.174023062 446.760683644 594.999667368 460.020257015 594.999667368 c 0
 460.291988736 594.999667368 460.564543658 594.995120888 460.837845252 594.985956362 c 0
EndSplineSet
Validated: 8912929
Ligature2: "Ligature Substitution lookup 175 subtable" m a n i
Ligature2: "Ligature Substitution lookup 106 subtable" m a n i tp_space
Ligature2: "tokiponaWords subtable" percent m a n i space
LCarets2: 5 0 0 0 0 0
EndChar

StartChar: tp_meli
Encoding: 60979 60979 51
Width: 600
VWidth: 0
Flags: HW
LayerCount: 2
Back
SplineSet
204 250 m 0
 204 303 247 346 300 346 c 0
 353 346 396 303 396 250 c 0
 396 197 353 154 300 154 c 0
 247 154 204 197 204 250 c 0
100 50 m 25
 100 50 100 114 100 250 c 3
 100 360 190 450 300 450 c 27
 406 450 500 371 500 265 c 3
 500 123 500 50 500 50 c 1049
EndSplineSet
Fore
SplineSet
100 25 m 0
 86.3828712355 25 75 36.3828712355 75 50 c 2
 75 250 l 2
 75 373.844147334 176.154890735 475 300 475 c 0
 417.568339933 475 525 387.038056902 525 265 c 2
 525 50 l 2
 525 36.3828712355 513.617128764 25 500 25 c 0
 486.382871236 25 475 36.3828712355 475 50 c 2
 475 265 l 2
 475 354.961943098 394.431660067 425 300 425 c 0
 203.845109265 425 125 346.155852666 125 250 c 2
 125 50 l 2
 125 36.3828712355 113.617128764 25 100 25 c 0
179 250 m 0
 179 316.807092901 233.192857298 371 300 371 c 0
 366.807092901 371 421 316.807142702 421 250 c 0
 421 183.192907099 366.807142702 129 300 129 c 0
 233.192907099 129 179 183.192857298 179 250 c 0
229 250 m 0
 229 210.807142702 260.807092901 179 300 179 c 0
 339.192857298 179 371 210.807092901 371 250 c 0
 371 289.192857298 339.192907099 321 300 321 c 0
 260.807142702 321 229 289.192907099 229 250 c 0
EndSplineSet
Validated: 524289
Ligature2: "Ligature Substitution lookup 176 subtable" m e l i
Ligature2: "Ligature Substitution lookup 107 subtable" m e l i tp_space
Ligature2: "tokiponaWords subtable" percent m e l i space
LCarets2: 5 0 0 0 0 0
EndChar

StartChar: tp_mi
Encoding: 60980 60980 52
Width: 560
VWidth: 0
Flags: HW
HStem: 5 50<212.562 371.207> 445 50<211.393 369.138>
VStem: 75 50<-124.796 90.1155 153.361 345.883> 455 50<146.533 353.905>
LayerCount: 2
Back
SplineSet
100 250 m 31
 100 114 100 -100 100 -100 c 1029
100 250 m 31
 100 365.004347744 172 470 287 470 c 31
 409 470 480 372.00390625 480 250 c 31
 480 128.99609375 411 30 290 30 c 31
 174 30 100 133.995689735 100 250 c 31
EndSplineSet
Fore
SplineSet
125 250 m 0
 125 143.258830355 191.652220481 55 290 55 c 0
 393.76662066 55 455 137.812341831 455 250 c 0
 455 362.73120509 392.202579933 445 287 445 c 0
 190.091011671 445 125 356.201214654 125 250 c 0
75 249.999995752 m 2
 75 373.807480834 153.908988329 495 287 495 c 0
 425.797420067 495 505 381.27660741 505 250 c 0
 505 120.179845669 428.23337934 5 290 5 c 0
 218.593528257 5 162.11710978 39.1770852181 125 90.1155391876 c 1
 125 -100 l 2
 125 -113.617128764 113.617128764 -125 100 -125 c 0
 86.3828712355 -125 75 -113.617128764 75 -100 c 2
 75 249.999995752 l 2
EndSplineSet
Validated: 524289
Ligature2: "Ligature Substitution lookup 31 subtable" m i
Ligature2: "Ligature Substitution lookup 18 subtable" m i tp_space
Ligature2: "tokiponaWords subtable" percent m i space
LCarets2: 3 0 0 0
EndChar

StartChar: tp_mije
Encoding: 60981 60981 53
Width: 600
VWidth: 0
Flags: HW
HStem: 233 50<250.008 349.992> 329 50<125 217.617 382.383 475> 425 50<250.008 349.992>
VStem: 75 50<129.204 329> 179 50<340.383 367.617> 371 50<340.383 367.617> 475 50<129.204 329>
CounterMasks: 1 e0
LayerCount: 2
Back
SplineSet
500 54 m 25
 500 254 l 25
 396 254 l 1049
100 54 m 25
 100 254 l 25
 204 254 l 1049
204 254 m 0
 204 307 247 350 300 350 c 0
 353 350 396 307 396 254 c 0
 396 201 353 158 300 158 c 0
 247 158 204 201 204 254 c 0
EndSplineSet
Fore
SplineSet
300 133 m 1024
100 29 m 0
 86.3828125 29 75 40.3828125 75 54 c 2
 75 254 l 2
 75 269.1328125 89.2705078125 279 100 279 c 2
 181.58768703 279 l 1
 193.111539466 333.818991053 241.762672518 375 300 375 c 0
 358.236577325 375 406.888411095 333.819590111 418.412330978 279 c 1
 500 279 l 2
 510.729492188 279 525 269.1328125 525 254 c 2
 525 54 l 2
 525 40.3828125 513.6171875 29 500 29 c 0
 486.3828125 29 475 40.3828125 475 54 c 2
 475 229 l 1
 418.41231297 229 l 1
 406.888460534 174.181008947 358.237327482 133 300 133 c 0
 241.763422675 133 193.111588905 174.180409889 181.587669022 229 c 1
 125 229 l 1
 125 54 l 2
 125 40.3828125 113.6171875 29 100 29 c 0
229 254 m 0
 229 214.807617188 260.806640625 183 300 183 c 0
 339.192382812 183 371 214.806640625 371 254 c 0
 371 293.192382812 339.193359375 325 300 325 c 0
 260.807617188 325 229 293.193359375 229 254 c 0
EndSplineSet
Ligature2: "Ligature Substitution lookup 177 subtable" m i j e
Ligature2: "Ligature Substitution lookup 108 subtable" m i j e tp_space
Ligature2: "tokiponaWords subtable" percent m i j e space
LCarets2: 5 0 0 0 0 0
EndChar

StartChar: tp_moku
Encoding: 60982 60982 54
Width: 600
VWidth: 0
Flags: HW
LayerCount: 2
Back
SplineSet
60 150 m 5
 169 50 l 5
 169 50 153 112.947404819 153 151 c 7
 153 285.092773438 235.229492188 329 329 329 c 7
 434.016601562 329 500 283 500 151 c 4
 500 50 l 1028
129 601 m 5
 129 601 128 550 128 517 c 31
 128 411 236.575901434 329 329 329 c 4
 419.892619682 329 501 413 501 522 c 31
 501 552 500 600 500 600 c 5
 129 601 l 5
EndSplineSet
Fore
SplineSet
104.004767232 601.488199628 m 0
 104.2343631 613.24323146 114.717987456 626.038586806 129.0673852 625.999909185 c 2
 500.0673852 624.999909185 l 2
 513.357912649 624.96408566 524.715606397 613.965630441 524.99462016 600.518616479 c 0
 524.996627862 600.421855685 526 552.475490395 526 522 c 0
 526 442.030500733 486.532299961 372.479816455 428.91000236 334.549087265 c 1
 488.279410661 306.94928637 525 248.6204568 525 151 c 2
 525 50 l 2
 525 36.3828712355 513.617128764 25 500 25 c 0
 486.382871236 25 475 36.3828712355 475 50 c 2
 475 151 l 2
 475 270.388284513 423.61462526 304 329 304 c 0
 244.316368789 304 178 270.134474989 178 151 c 0
 178 118.002963699 193.233924025 56.1414107787 193.233924025 56.1414107787 c 2
 194.934661415 49.430323998 193.524043796 40.7749809159 188.691035998 34.5966529184 c 0
 183.798885036 28.3427186152 176.374527722 25.1124083877 168.92352826 25.1124083877 c 0
 162.889285594 25.1124083877 156.837569194 27.231065673 152.099232566 31.578163497 c 2
 43.099232566 131.578163497 l 2
 37.7938021574 136.445530845 35.0999472918 143.235559854 35.0999472918 150.037541818 c 0
 35.0999472918 156.100071748 37.2399337897 162.172097053 41.578163497 166.900767434 c 0
 46.4455308444 172.206197843 53.235559854 174.900052708 60.0375418181 174.900052708 c 0
 66.1000717483 174.900052708 72.1720970531 172.76006621 76.900767434 168.421836503 c 2
 130.250946872 119.476717752 l 1
 128.639100102 132.787946929 128 140.458997562 128 151 c 0
 128 246.80024845 168.543449069 303.313089494 224.823536357 331.465458432 c 1
 157.54599085 367.089096541 103 434.54035162 103 517 c 0
 103 550.42954433 104.004767232 601.40960959 104.004767232 601.488199628 c 0
153.571991503 575.933677401 m 1
 153.292845262 557.89233443 153 534.977850021 153 517 c 0
 153 428.27015801 248.254026473 354 329 354 c 0
 404.00585697 354 476 424.908369655 476 522 c 0
 476 537.651208626 475.702053565 559.640857276 475.451386087 575.066077955 c 1
 153.571991503 575.933677401 l 1
EndSplineSet
Validated: 524321
Ligature2: "Ligature Substitution lookup 178 subtable" m o k u
Ligature2: "Ligature Substitution lookup 109 subtable" m o k u tp_space
Ligature2: "tokiponaWords subtable" percent m o k u space
LCarets2: 5 0 0 0 0 0
EndChar

StartChar: tp_moli
Encoding: 60983 60983 55
Width: 560
VWidth: 0
Flags: HW
HStem: 5 50<196.888 363.826> 445 50<196.326 363.428>
VStem: 55 50<150.77 348.925> 455 50<151.508 348.298>
LayerCount: 2
Back
SplineSet
155 126 m 5
 415 386 l 1029
153 370 m 5
 407 116 l 1029
EndSplineSet
Refer: 12 60940 S 1 0 0 1 0 0 2
Fore
SplineSet
240.644660941 247 m 1
 135.32233047 352.32233047 l 2
 133.698925792 353.945735149 132.349226308 355.753027572 131.273232077 357.682200949 c 1
 114.327926775 327.127301447 105 290.281559639 105 250 c 1
 105 208.054404301 115.114520751 169.834357811 133.412147137 138.563527048 c 1
 134.464645522 140.400525003 135.768039966 142.123379025 137.32233047 143.67766953 c 2
 240.644660941 247 l 1
276 282.355339059 m 1
 394.876876179 401.232215238 l 1
 365.248722846 428.76302376 325.969225388 445 280 445 c 0
 230.334839169 445 188.478361049 426.047152149 158.16549814 394.375319252 c 1
 162.779046186 393.427844722 167.160044245 391.195294814 170.67766953 387.67766953 c 2
 276 282.355339059 l 1
276 211.644660941 m 1
 172.67766953 108.32233047 l 2
 169.562972924 105.207633865 165.771366679 103.100474141 161.74078199 102.000851284 c 1
 191.733630468 72.5126048896 232.259168096 55.0000000144 280 55 c 0
 324.450582497 55 362.646140753 70.1818849803 391.908989132 96.0764108879 c 1
 391.005354881 96.7555315146 390.140489565 97.5041713755 389.32233047 98.3223304703 c 2
 276 211.644660941 l 1
311.355339059 247 m 1
 424.030857916 134.324481143 l 1
 443.940886424 166.35241833 455 206.139470458 455 250 c 0
 455 292.170106705 444.776914885 330.574675963 426.293339378 361.938000319 c 1
 311.355339059 247 l 1
55 250 m 0
 55 381.594726562 142.926757812 495 280 495 c 0
 417.073242188 495 505 381.594726562 505 250 c 0
 505 118.405273438 417.073242188 5 280 5 c 0
 142.926757812 5 55 118.405273438 55 250 c 0
EndSplineSet
Validated: 524289
Ligature2: "Ligature Substitution lookup 179 subtable" m o l i
Ligature2: "Ligature Substitution lookup 110 subtable" m o l i tp_space
Ligature2: "tokiponaWords subtable" percent m o l i space
LCarets2: 5 0 0 0 0 0
EndChar

StartChar: tp_monsi
Encoding: 60984 60984 56
Width: 500
VWidth: 0
Flags: HW
LayerCount: 2
Back
SplineSet
250 250 m 5
 100 250 l 1028
400 450 m 5
 100 450 l 5
 100 50 l 5
 400 50 l 1029
EndSplineSet
Fore
SplineSet
425 450 m 0
 425 436.382871236 413.617128764 425 400 425 c 2
 125 425 l 1
 125 275 l 1
 250 275 l 2
 263.617128764 275 275 263.617128764 275 250 c 0
 275 236.382871236 263.617128764 225 250 225 c 2
 125 225 l 1
 125 75 l 1
 400 75 l 2
 413.617128764 75 425 63.6171287645 425 50 c 0
 425 36.3828712355 413.617128764 25 400 25 c 2
 100 25 l 2
 89.2700956673 25 75 34.8674621445 75 50 c 2
 75 249.999999764 l 1
 75 450 l 2
 75 460.729904333 84.8674621445 475 100 475 c 2
 400 475 l 2
 413.617128764 475 425 463.617128764 425 450 c 0
EndSplineSet
Validated: 524289
Ligature2: "Ligature Substitution lookup 239 subtable" m o n s i
Ligature2: "Ligature Substitution lookup 226 subtable" m o n s i tp_space
Ligature2: "tokiponaWords subtable" percent m o n s i space
EndChar

StartChar: tp_mu
Encoding: 60985 60985 57
Width: 600
VWidth: 0
Flags: W
HStem: 25 50<217.237 382.763> 196 78<265.281 334.719> 349 50<150.358 217.587 382.413 449.524> 501 50<134.413 217.587 382.413 465.587>
VStem: 75 50<167.237 334.065 408.653 491.587> 227 50<408.413 491.587> 261 78<200.281 269.719> 323 50<408.413 491.587> 475 50<167.237 334.14 408.653 491.587>
LayerCount: 2
Back
Refer: 153 -1 S 1 0 0 1 300 235 2
Refer: 59 60987 N 1 0 0 1 0 0 2
Fore
SplineSet
75 450 m 0xfd80
 75 505.796875 120.202148438 551 176 551 c 0
 231.796875 551 277 505.797851562 277 450 c 0
 277 394.203125 231.797851562 349 176 349 c 0
 169.462890625 349 163.071289062 349.620117188 156.880859375 350.805664062 c 0
 156.393554688 349.823242188 155.834960938 348.864257812 155.204101562 347.936523438 c 0
 136.123046875 319.892578125 125 286.23828125 125 250 c 0
 125 153.844726562 203.84375 75 300 75 c 0
 396.155273438 75 475 153.84375 475 250 c 0
 475 286.994140625 463.407226562 321.30078125 443.588867188 349.688476562 c 0
 443.431640625 349.913085938 443.279296875 350.139648438 443.131835938 350.3671875 c 0
 443.046875 350.497070312 442.962890625 350.627929688 442.879882812 350.759765625 c 0
 436.764648438 349.604492188 430.453125 349 424 349 c 0
 368.203125 349 323 394.202148438 323 450 c 0
 323 505.796875 368.202148438 551 424 551 c 0
 479.796875 551 525 505.797851562 525 450 c 0
 525 418.779296875 510.84765625 390.875976562 488.606445312 372.3515625 c 1
 511.575195312 337.114257812 525 294.998046875 525 250 c 0
 525 126.15625 423.844726562 25 300 25 c 0
 176.15625 25 75 126.155273438 75 250 c 0
 75 294.997070312 88.4248046875 337.1171875 111.392578125 372.352539062 c 1
 89.1513671875 390.875976562 75 418.779296875 75 450 c 0xfd80
125 450 m 0
 125 421.797851562 147.796875 399 176 399 c 0
 204.202148438 399 227 421.796875 227 450 c 0
 227 478.202148438 204.203125 501 176 501 c 0
 147.797851562 501 125 478.203125 125 450 c 0
373 450 m 0
 373 421.797851562 395.796875 399 424 399 c 0
 452.202148438 399 475 421.796875 475 450 c 0
 475 478.202148438 452.203125 501 424 501 c 0
 395.797851562 501 373 478.203125 373 450 c 0
261 235 m 0xfa80
 261 256.462890625 278.537109375 274 300 274 c 0
 321.462890625 274 339 256.462890625 339 235 c 0
 339 213.537109375 321.462890625 196 300 196 c 0
 278.537109375 196 261 213.537109375 261 235 c 0xfa80
EndSplineSet
LCarets2: 3 0 0 0
Ligature2: "Ligature Substitution lookup 32 subtable" m u
Ligature2: "Ligature Substitution lookup 19 subtable" m u tp_space
Ligature2: "tokiponaWords subtable" percent m u space
EndChar

StartChar: tp_mun
Encoding: 60986 60986 58
Width: 600
VWidth: 0
Flags: HW
LayerCount: 2
Back
SplineSet
158.75 391.25 m 5
 195 427.5 245 450 300 450 c 4
 410 450 500 360 500 250 c 4
 500 140 410 50 300 50 c 4
 245 50 195 72.5 158.75 108.75 c 5
 158.75 108.75 300 142 300 250 c 31
 300 364 158.75 391.25 158.75 391.25 c 5
EndSplineSet
Fore
SplineSet
141.07233047 408.92766953 m 0
 181.767346397 449.622685456 238.08669976 475 300 475 c 0
 423.844147334 475 525 373.845109265 525 250 c 0
 525 126.155852666 423.845109265 25 300 25 c 0
 238.086789919 25 181.767301314 50.3773596265 141.07233047 91.0723304703 c 0
 136.246456083 95.8982048574 133.864857811 102.310176895 133.864857811 108.712947974 c 0
 133.864857811 115.791916577 136.776061077 122.859638169 142.513760458 127.7601164 c 0
 145.555386447 130.357921017 152.144508293 132.87453948 153.032684466 133.087774149 c 0
 160.424747849 134.876367676 275 167.704628615 275 250 c 0
 275 338.680275132 160.852347825 365.336580374 152.94741253 366.915442213 c 0
 140.755707706 370.299301759 133.726414809 380.338033681 133.726414809 391.135015678 c 0
 133.726414809 393.386876508 134.032181363 395.671720387 134.660651379 397.936051376 c 0
 135.822837874 402.123323367 139.044337197 406.899676256 141.07233047 408.92766953 c 0
211.083558818 400.542623318 m 1
 253.972166558 382.314034771 325 338.542233559 325 250 c 0
 325 164.467893929 254.780043995 120.594684583 209.646741293 100.321486108 c 1
 236.060023565 84.4094859103 266.863086927 75 300 75 c 0
 396.154890735 75 475 153.844147334 475 250 c 0
 475 346.154890735 396.155852666 425 300 425 c 0
 267.498616024 425 238.354430286 416.622107742 211.083558818 400.542623318 c 1
EndSplineSet
Validated: 524289
Ligature2: "Ligature Substitution lookup 73 subtable" m u n
Ligature2: "Ligature Substitution lookup 51 subtable" m u n tp_space
Ligature2: "tokiponaWords subtable" percent m u n space
EndChar

StartChar: tp_musi
Encoding: 60987 60987 59
Width: 600
VWidth: 0
Flags: HW
LayerCount: 2
Back
SplineSet
464.086914062 364 m 1029
464.086914062 364 m 5
 486.704101562 331.604492188 500 292.279296875 500 250 c 4
 500 140 410 50 300 50 c 4
 190 50 100 140 100 250 c 4
 100 291.413085938 112.756835938 329.9921875 134.534179688 362 c 1029
348 450 m 4
 348 492 382 526 424 526 c 4
 466 526 500 492 500 450 c 4
 500 408 466 374 424 374 c 4
 382 374 348 408 348 450 c 4
100 450 m 4
 100 492 134 526 176 526 c 4
 218 526 252 492 252 450 c 4
 252 408 218 374 176 374 c 4
 134 374 100 408 100 450 c 4
EndSplineSet
Fore
SplineSet
75 450 m 0
 75 505.797343156 120.202355274 551 176 551 c 0
 231.797343156 551 277 505.797644726 277 450 c 0
 277 394.202656844 231.797644726 349 176 349 c 0
 169.463122594 349 163.071657689 349.620404165 156.881252904 350.805566329 c 0
 156.393602949 349.823166192 155.834879078 348.864586448 155.203728885 347.936937177 c 0
 136.122860016 319.892338161 125 286.238476906 125 250 c 0
 125 153.845109265 203.844147334 75 300 75 c 0
 396.154890735 75 475 153.844147334 475 250 c 0
 475 286.994421843 463.407475854 321.301123476 443.588394293 349.688791551 c 0
 443.431825846 349.913050839 443.279538676 350.139199837 443.131512573 350.367134111 c 0
 443.046602301 350.497327864 442.962872209 350.628360456 442.880335652 350.76021545 c 0
 436.764288789 349.604582486 430.453000035 349 424 349 c 0
 368.202656844 349 323 394.202355274 323 450 c 0
 323 505.797343156 368.202355274 551 424 551 c 0
 479.797343156 551 525 505.797644726 525 450 c 0
 525 418.779395298 510.848038277 390.875776939 488.60656456 372.351753139 c 1
 511.575233096 337.114615165 525 294.998518541 525 250 c 0
 525 126.155852666 423.845109265 25 300 25 c 0
 176.155852666 25 75 126.154890735 75 250 c 0
 75 294.996915322 88.4248157511 337.117450377 111.393027582 372.352098526 c 1
 89.1518302054 390.876073766 75 418.779475774 75 450 c 0
125 450 m 0
 125 421.797644726 147.797343156 399 176 399 c 0
 204.202355274 399 227 421.797343156 227 450 c 0
 227 478.202355274 204.202656844 501 176 501 c 0
 147.797644726 501 125 478.202656844 125 450 c 0
373 450 m 0
 373 421.797644726 395.797343156 399 424 399 c 0
 452.202355274 399 475 421.797343156 475 450 c 0
 475 478.202355274 452.202656844 501 424 501 c 0
 395.797644726 501 373 478.202656844 373 450 c 0
EndSplineSet
Validated: 524289
Ligature2: "Ligature Substitution lookup 180 subtable" m u s i
Ligature2: "Ligature Substitution lookup 111 subtable" m u s i tp_space
Ligature2: "tokiponaWords subtable" percent m u s i space
EndChar

StartChar: tp_mute
Encoding: 60988 60988 60
Width: 500
VWidth: 0
Flags: HW
HStem: 25 21G<93.1914 106.809 243.191 256.809 393.191 406.809> 455 20G<93.1914 106.809 243.191 256.809 393.191 406.809>
VStem: 75 50<25.2041 474.796> 225 50<25.2041 474.796> 375 50<25.2041 474.796>
CounterMasks: 1 38
LayerCount: 2
Back
SplineSet
400 450 m 1
 400 50 l 1025
250 450 m 1
 250 50 l 1025
100 450 m 1
 100 50 l 1025
EndSplineSet
Fore
SplineSet
100 475 m 0
 113.6171875 475 125 463.6171875 125 450 c 2
 125 50 l 2
 125 36.3828125 113.6171875 25 100 25 c 0
 86.3828125 25 75 36.3828125 75 50 c 2
 75 450 l 2
 75 463.6171875 86.3828125 475 100 475 c 0
250 475 m 0
 263.6171875 475 275 463.6171875 275 450 c 2
 275 50 l 2
 275 36.3828125 263.6171875 25 250 25 c 0
 236.3828125 25 225 36.3828125 225 50 c 2
 225 450 l 2
 225 463.6171875 236.3828125 475 250 475 c 0
400 475 m 0
 413.6171875 475 425 463.6171875 425 450 c 2
 425 50 l 2
 425 36.3828125 413.6171875 25 400 25 c 0
 386.3828125 25 375 36.3828125 375 50 c 2
 375 450 l 2
 375 463.6171875 386.3828125 475 400 475 c 0
EndSplineSet
Validated: 524289
Ligature2: "Ligature Substitution lookup 181 subtable" m u t e
Ligature2: "Ligature Substitution lookup 112 subtable" m u t e tp_space
Ligature2: "tokiponaWords subtable" percent m u t e space
LCarets2: 5 0 0 0 0 0
EndChar

StartChar: tp_nanpa
Encoding: 60989 60989 61
Width: 600
VWidth: 0
Flags: HW
LayerCount: 2
Back
SplineSet
100 150 m 5
 500 150 l 1029
100 350 m 5
 500 350 l 1029
400 450 m 5
 400 50 l 1029
200 450 m 5
 200 50 l 1029
EndSplineSet
Fore
SplineSet
375 325 m 1
 225 325 l 1
 225 175 l 1
 375 175 l 1
 375 325 l 1
200 475 m 0
 213.617128764 475 225 463.617128764 225 450 c 2
 225 375 l 1
 375 375 l 1
 375 450 l 2
 375 463.617128764 386.382871236 475 400 475 c 0
 413.617128764 475 425 463.617128764 425 450 c 2
 425 375 l 1
 500 375 l 2
 513.617128764 375 525 363.617128764 525 350 c 0
 525 336.382871236 513.617128764 325 500 325 c 2
 425 325 l 1
 425 175 l 1
 500 175 l 2
 513.617128764 175 525 163.617128764 525 150 c 0
 525 136.382871236 513.617128764 125 500 125 c 2
 425 125 l 1
 425 50 l 2
 425 36.3828712355 413.617128764 25 400 25 c 0
 386.382871236 25 375 36.3828712355 375 50 c 2
 375 125 l 1
 225 125 l 1
 225 50 l 2
 225 36.3828712355 213.617128764 25 200 25 c 0
 186.382871236 25 175 36.3828712355 175 50 c 2
 175 125 l 1
 100 125 l 2
 86.3828712355 125 75 136.382871236 75 150 c 0
 75 163.617128764 86.3828712355 175 100 175 c 2
 175 175 l 1
 175 325 l 1
 100 325 l 2
 86.3828712355 325 75 336.382871236 75 350 c 0
 75 363.617128764 86.3828712355 375 100 375 c 2
 175 375 l 1
 175 450 l 2
 175 463.617128764 186.382871236 475 200 475 c 0
EndSplineSet
Validated: 524289
Ligature2: "Ligature Substitution lookup 240 subtable" n a n p a
Ligature2: "Ligature Substitution lookup 227 subtable" n a n p a tp_space
Ligature2: "tokiponaWords subtable" percent n a n p a space
EndChar

StartChar: tp_nasa
Encoding: 60990 60990 62
Width: 560
VWidth: 0
Flags: HW
HStem: 5 50<191.27 373.666> 129.681 50<237.184 328.07> 328 50<240.73 401.083> 445 50<194.241 442.891>
VStem: 55 50<146.854 351.236> 168.103 49.995<199.883 305.07> 455 50<128.965 277.92>
LayerCount: 2
Back
SplineSet
434 450 m 5
 434 450 373 470 280 470 c 7
 162.961914062 470 80 383.033830284 80 250 c 7
 80 118.938945525 156 30 280 30 c 7
 405 30 480 110 480 208 c 7
 480 311.01953125 396.400390625 353 309 353 c 7
 228.900390625 353 194 307 193.100585938 243.16015625 c 4
 192.462890625 197.924804688 236.200195312 154.680664062 289.400390625 154.680664062 c 4
 342.600585938 154.680664062 359.700195312 206.879882812 359.700195312 206.879882812 c 1053
EndSplineSet
Fore
SplineSet
457.767003532 442.245675846 m 0
 454.127147762 431.089517909 443.489108131 425.195186393 433.309106465 425.195186393 c 0
 431.179881656 425.195186393 429.070694591 425.453045157 427.049769685 425.974550104 c 0
 423.925877862 426.978634598 367.633214112 445 280 445 c 0
 177.702280838 445 105 371.691813153 105 250 c 0
 105 129.46115432 171.096023947 55 280 55 c 0
 393.242563517 55 455 124.558342906 455 208 c 0
 455 292.343510509 389.881686773 328 309 328 c 0
 242.10485303 328 218.094063713 295.289357434 218.094063713 242.233790008 c 0
 218.094063713 213.152827063 249.084477 179.680664062 289.400390625 179.680664062 c 0
 321.812389754 179.680664062 334.382337389 210.336024474 336.390382064 215.922727283 c 0
 340.438767382 225.943525397 349.876312959 231.872227487 359.765015434 231.872227487 c 0
 362.372435477 231.872227487 365.011222376 231.460032214 367.590851564 230.601972601 c 0
 377.797963234 227.206790716 384.622666133 217.917542455 384.622666133 206.918548616 c 0
 384.622666133 204.587341803 384.316089225 202.179330399 383.670161253 199.734353412 c 0
 383.126981496 198.101363891 361.903380685 129.680664062 289.400390625 129.680664062 c 0
 224.079795084 129.680664062 168.093271765 181.461305429 168.093271765 242.122545049 c 0
 168.093271765 318.139862559 215.895913405 378 309 378 c 0
 402.919094477 378 505 329.695551991 505 208 c 0
 505 95.4416570942 416.757436483 5 280 5 c 0
 140.903976053 5 55 108.41673673 55 250 c 0
 55 394.375847415 148.221547287 495 280 495 c 0
 376.425812781 495 438.265002754 474.905448468 442.501175739 473.523336564 c 0
 451.712853745 469.863214853 458.962236643 460.371615361 458.962236643 449.689268925 c 0
 458.962236643 447.251693019 458.584765271 444.752115576 457.767003532 442.245675846 c 0
EndSplineSet
Validated: 524289
Ligature2: "Ligature Substitution lookup 182 subtable" n a s a
Ligature2: "Ligature Substitution lookup 113 subtable" n a s a tp_space
Ligature2: "tokiponaWords subtable" percent n a s a space
LCarets2: 5 0 0 0 0 0
EndChar

StartChar: tp_nasin
Encoding: 60991 60991 63
Width: 500
VWidth: 0
Flags: HW
LayerCount: 2
Back
SplineSet
100 150 m 5
 250 290 l 5
 400 150 l 1029
250 450 m 5
 250 50 l 1029
EndSplineSet
Fore
SplineSet
250 475 m 0
 263.617128764 475 275 463.617128764 275 450 c 2
 275 300.863807548 l 1
 417.057956259 168.276381706 l 2
 422.26456305 163.416882035 424.89976282 156.698048206 424.89976282 149.969869942 c 0
 424.89976282 143.833976137 422.708097508 137.690310672 418.276381706 132.942043741 c 0
 413.416882035 127.73543695 406.698048206 125.10023718 399.969869942 125.10023718 c 0
 393.833976137 125.10023718 387.690310672 127.291902492 382.942043741 131.723618294 c 2
 275 232.469525786 l 1
 275 50 l 2
 275 36.3828712355 263.617128764 25 250 25 c 0
 236.382871236 25 225 36.3828712355 225 50 c 2
 225 232.469525786 l 1
 117.057956259 131.723618294 l 2
 112.309689328 127.291902492 106.166023863 125.10023718 100.030130058 125.10023718 c 0
 93.3019517938 125.10023718 86.5831179653 127.73543695 81.7236182939 132.942043741 c 0
 77.2919024918 137.690310672 75.1002371803 143.833976137 75.1002371803 149.969869942 c 0
 75.1002371803 156.698048206 77.7354369502 163.416882035 82.942043741 168.276381706 c 2
 225 300.863807548 l 1
 225 450 l 2
 225 463.617128764 236.382871236 475 250 475 c 0
EndSplineSet
Validated: 524289
Ligature2: "Ligature Substitution lookup 241 subtable" n a s i n
Ligature2: "Ligature Substitution lookup 228 subtable" n a s i n tp_space
Ligature2: "tokiponaWords subtable" percent n a s i n space
EndChar

StartChar: tp_nena
Encoding: 60992 60992 64
Width: 560
VWidth: 0
Flags: HW
LayerCount: 2
Back
SplineSet
80 50 m 5
 220 50 l 5
 198 77 80 166.206054688 80 295 c 7
 80 431.005746756 172 470 282 470 c 7
 404 470 480 431 480 295 c 7
 480 155 362 71 340 50 c 5
 480 50 l 1029
EndSplineSet
Fore
SplineSet
55 50 m 0
 55 63.6171287645 66.3828712355 75 80 75 c 2
 160.25832742 75 l 1
 116.5932982 120.456672842 55 195.340703494 55 295 c 0
 55 448.784114373 166.430872238 495 282 495 c 0
 410.442718737 495 505 446.831702557 505 295 c 0
 505 192.252320057 447.000024564 117.58270943 404.686149498 75 c 1
 480 75 l 2
 493.617128764 75 505 63.6171287645 505 50 c 0
 505 36.3828712355 493.617128764 25 480 25 c 2
 340 25 l 2
 335.047709941 25 327.990254816 27.1975977695 323.326172995 31.3725070659 c 0
 317.862937562 36.262754123 315.115465418 43.1368073059 315.115465418 50.0151701458 c 0
 315.115465418 56.6176964536 317.646997383 63.2241936968 322.738106333 68.0838886036 c 0
 348.32840914 92.5109958281 455 169.02690792 455 295 c 0
 455 415.168297443 397.557281263 445 282 445 c 0
 177.569127762 445 105 413.227379139 105 295 c 0
 105 180.069439664 211.810973518 99.6276115168 239.380874638 65.7918237791 c 0
 242.535455465 61.9202927643 244.99826239 56.2664161265 244.99826239 50.0467891501 c 0
 244.99826239 36.5283425905 233.726483286 25 220 25 c 2
 80 25 l 2
 66.3828712355 25 55 36.3828712355 55 50 c 0
EndSplineSet
Validated: 524289
Ligature2: "Ligature Substitution lookup 183 subtable" n e n a
Ligature2: "Ligature Substitution lookup 114 subtable" n e n a tp_space
Ligature2: "tokiponaWords subtable" percent n e n a space
LCarets2: 5 0 0 0 0 0
EndChar

StartChar: tp_ni
Encoding: 60993 60993 65
Width: 460
VWidth: 0
Flags: HW
HStem: 475 20G<223.191 236.809>
VStem: 205 50<90.3555 494.796>
LayerCount: 2
Back
SplineSet
380 180 m 1
 230 30 l 1024
80 180 m 1
 230 30 l 1
 230 470 l 1029
EndSplineSet
Fore
SplineSet
62.322265625 197.677734375 m 0
 67.13671875 202.4921875 73.568359375 204.899414062 80 204.899414062 c 0
 86.431640625 204.899414062 92.86328125 202.4921875 97.677734375 197.677734375 c 2
 205 90.35546875 l 1
 205 470 l 2
 205 483.6171875 216.3828125 495 230 495 c 0
 243.6171875 495 255 483.6171875 255 470 c 2
 255 90.35546875 l 1
 362.322265625 197.677734375 l 2
 367.13671875 202.4921875 373.568359375 204.899414062 380 204.899414062 c 0
 386.431640625 204.899414062 392.86328125 202.4921875 397.677734375 197.677734375 c 0
 402.4921875 192.86328125 404.899414062 186.431640625 404.899414062 180 c 0
 404.899414062 173.568359375 402.4921875 167.13671875 397.677734375 162.322265625 c 2
 247.677734375 12.322265625 l 2
 242.863288867 7.50782011749 236.431760493 5.10059736374 230.000054307 5.10059736374 c 0
 226.060128631 5.10059736374 222.120136231 6.00391386749 218.551757812 7.810546875 c 0
 216.299804688 8.9501953125 214.19140625 10.453125 212.322265625 12.322265625 c 2
 62.322265625 162.322265625 l 2
 57.5078125 167.13671875 55.1005859375 173.568359375 55.1005859375 180 c 0
 55.1005859375 186.431640625 57.5078125 192.86328125 62.322265625 197.677734375 c 0
EndSplineSet
Validated: 524289
Ligature2: "Ligature Substitution lookup 33 subtable" n i
Ligature2: "Ligature Substitution lookup 20 subtable" n i tp_space
Ligature2: "tokiponaWords subtable" percent n i space
LCarets2: 3 0 0 0
EndChar

StartChar: tp_nimi
Encoding: 60994 60994 66
Width: 600
VWidth: 0
Flags: HW
HStem: 25 50<160.355 475> 425 50<125 439.645>
VStem: 75 50<110.355 425> 475 50<75 389.645>
LayerCount: 2
Back
SplineSet
500 450 m 29
 100 50 l 1053
100 450 m 5
 100 50 l 5
 500 50 l 5
 500 450 l 5
 100 450 l 5
EndSplineSet
Fore
SplineSet
160.355339059 75 m 1
 475 75 l 1
 475 389.644660941 l 1
 160.355339059 75 l 1
125 110.355339059 m 1
 439.644660941 425 l 1
 125 425 l 1
 125 110.355339059 l 1
75 450 m 2
 75 460.729904333 84.8674621445 475 100 475 c 2
 500 475 l 2
 501.2373009 475 502.521676298 474.868790758 503.825817093 474.613430118 c 0
 508.926670381 473.846193758 513.821064826 471.534273288 517.67766953 467.67766953 c 0
 520.723771278 464.631567781 522.806225379 460.9380432 523.925031463 457.006725775 c 0
 524.615410685 454.826623513 525.00000037 452.484260667 525 450 c 2
 525 50 l 2
 525 39.2700956673 515.132537856 25 500 25 c 2
 100 25 l 2
 98.7626990996 25 97.4783237018 25.1312092422 96.1741829064 25.3865698818 c 0
 91.0733296188 26.1538062421 86.178935174 28.4657267123 82.3223304703 32.3223304703 c 0
 79.2762287219 35.3684322187 77.1937746209 39.0619567996 76.0749685369 42.9932742251 c 0
 75.3845893155 45.173376487 74.9999996302 47.515739333 75 50 c 2
 75 450 l 2
EndSplineSet
Validated: 524289
Ligature2: "Ligature Substitution lookup 184 subtable" n i m i
Ligature2: "Ligature Substitution lookup 115 subtable" n i m i tp_space
Ligature2: "tokiponaWords subtable" percent n i m i space
LCarets2: 5 0 0 0 0 0
EndChar

StartChar: tp_noka
Encoding: 60995 60995 67
Width: 500
VWidth: 0
Flags: HW
LayerCount: 2
Back
SplineSet
100 450 m 5
 100 50 l 5
 100 50 119 50 197 50 c 7
 316 50 400 76 400 162 c 7
 400 223.293945312 368.006578663 265 292 265 c 7
 245 265 223 228 223 228 c 1029
EndSplineSet
Fore
SplineSet
100 475 m 0
 113.617128764 475 125 463.617128764 125 450 c 2
 125 75 l 1
 197 75 l 2
 318.014176245 75 375 100.878385007 375 162 c 0
 375 211.906366363 355.35746304 240 292 240 c 0
 261.040476583 240 245.922918406 217.442667981 243.685436961 213.958741059 c 0
 238.769024413 206.845482995 230.868527742 203.044493187 222.884264715 203.044493187 c 0
 218.488601409 203.044493187 214.067548916 204.196555243 210.10507266 206.582230534 c 0
 202.517696641 211.150337526 198.042493706 219.114501095 198.042493706 227.775553309 c 0
 198.042493706 231.86382088 199.039619714 236.107363151 201.177226232 240.222299419 c 0
 203.008219224 243.263478697 230.488205013 290 292 290 c 0
 380.655694286 290 425 234.681524262 425 162 c 0
 425 51.1216149931 313.985823755 25 197 25 c 2
 100 25 l 2
 89.2700956673 25 75 34.8674621445 75 50 c 2
 75 450 l 2
 75 463.617128764 86.3828712355 475 100 475 c 0
EndSplineSet
Validated: 524289
Ligature2: "Ligature Substitution lookup 185 subtable" n o k a
Ligature2: "Ligature Substitution lookup 116 subtable" n o k a tp_space
Ligature2: "tokiponaWords subtable" percent n o k a space
EndChar

StartChar: tp_o
Encoding: 60996 60996 68
Width: 380
VWidth: 0
Flags: HMW
HStem: 15 50<136.008 235.992> 425 50
VStem: 65 50<86.0075 186.558> 160.897 50.0003<248.438 474.583> 257 50<86.0075 186.587>
LayerCount: 2
Back
SplineSet
185 450 m 29
 186 232 l 1029
90 136 m 4
 90 189 133 232 186 232 c 4
 239 232 282 189 282 136 c 4
 282 83 239 40 186 40 c 4
 133 40 90 83 90 136 c 4
EndSplineSet
Fore
SplineSet
184.997380453 474.999994012 m 0
 198.564984312 474.999994012 209.937445161 463.694293981 209.999736979 450.114677693 c 2
 210.89735545 254.433851151 l 1
 265.767855422 242.949150088 307 194.273303026 307 136 c 0
 307 69.1929070993 252.807142702 15 186 15 c 0
 119.192907099 15 65 69.1928572984 65 136 c 0
 65 194.20045277 106.129139971 242.827492376 160.897027675 254.390627799 c 1
 160.000263021 449.885322307 l 2
 159.937591006 463.54782169 171.302433273 474.968581212 184.997380453 474.999994012 c 0
115 136 m 0
 115 96.8071427016 146.807092901 65 186 65 c 0
 225.192857298 65 257 96.8070929007 257 136 c 0
 257 175.192857298 225.192907099 207 186 207 c 0
 146.807142702 207 115 175.192907099 115 136 c 0
EndSplineSet
Validated: 524321
Ligature2: "Ligature Substitution lookup 6 subtable" o tp_space
Ligature2: "tokiponaWords subtable" percent o space
LCarets2: 2 0 0
EndChar

StartChar: tp_olin
Encoding: 60997 60997 69
Width: 600
VWidth: 0
Flags: HW
HStem: 425 50<148.669 243.424 344.593 455.453> 575 50<148.744 243.424 344.593 454.694>
VStem: 75 50<262.709 400.662 453.309 548.829> 475 50<279.15 405.651 455.024 554.869>
LayerCount: 2
Back
SplineSet
112.267971307 419.014849097 m 5
 104.349304522 436.173845006 100 455.623346909 100 480 c 7
 100 534 128 600 196 600 c 7
 264 600 300 518 300 518 c 5
 300 518 316 600 392 600 c 7
 468 600 500 556 500 480 c 7
 500 461.372099258 493.803594892 443.531043609 483.352000797 425.647999203 c 1029
112.267971307 419.014849097 m 1029
300 50 m 5
 191.930664062 210.001953125 100 217.928710938 100 330 c 7
 100 384 128 450 196 450 c 7
 264 450 300 368 300 368 c 5
 300 368 316 450 392 450 c 7
 468 450 500 406 500 330 c 7
 500 246 374 178 300 50 c 5
EndSplineSet
Fore
SplineSet
127.478655731 452.513708168 m 1
 145.063711553 466.290758297 167.630970548 475 196 475 c 0
 243.707395909 475 277.266192613 444.112940833 295.722144903 421.374702161 c 1
 313.192814708 448.155514549 343.072741243 475 392 475 c 0
 423.766007085 475 449.587057486 467.608705246 469.733723039 454.371417364 c 1
 473.295254681 463.370546593 475 471.775387642 475 480 c 0
 475 547.351701441 453.228998587 575 392 575 c 0
 340.107801257 575 325.816921807 519.263448986 324.396074516 512.536358042 c 0
 323.144156801 506.794858826 318.396628814 499.517185799 311.866060197 495.995531922 c 0
 308.097849043 493.963498235 304.024252495 492.963066304 299.985091044 492.963066304 c 0
 291.176943693 492.963066304 282.532548879 497.720516626 277.575855814 506.912185229 c 0
 274.8772007 512.904080447 242.721363443 575 196 575 c 0
 149.142553136 575 125 528.992687941 125 480 c 0
 125 469.581044952 125.863173492 460.584535132 127.478655731 452.513708168 c 1
298.790393265 94.8283343521 m 1
 378.848674953 211.1607239 475 272.910808337 475 330 c 0
 475 397.351701441 453.228998587 425 392 425 c 0
 340.107801257 425 325.816921807 369.263448986 324.396074516 362.536358042 c 0
 323.144156801 356.794858826 318.396628814 349.517185799 311.866060197 345.995531922 c 0
 308.097849043 343.963498235 304.024252495 342.963066304 299.985091044 342.963066304 c 0
 291.176943693 342.963066304 282.532548879 347.720516626 277.575855814 356.912185229 c 0
 274.8772007 362.904080447 242.721363443 425 196 425 c 0
 149.142553136 425 125 378.992687941 125 330 c 0
 125 241.536435901 191.384881973 237.690716123 298.790393265 94.8283343521 c 1
279.282867975 36.0071289337 m 0
 178.944470767 184.563048033 75 200.472286623 75 330 c 0
 75 353.222708675 79.934294334 380.62509276 91.3528680629 405.320387403 c 0
 90.5911596883 406.480855888 89.9234065031 407.708432895 89.3604540204 408.99227556 c 0
 79.9820322272 429.496743999 75 452.850877112 75 480 c 1
 75 539.007312059 106.857446864 625 196 625 c 0
 243.707395909 625 277.266192613 594.112940833 295.722144903 571.374702161 c 1
 313.192814708 598.155514549 343.072741243 625 392 625 c 0
 482.771001413 625 525 564.648298559 525 480 c 0
 525 456.364658372 517.27825 434.635590832 505.938143066 414.768216852 c 1
 518.765421564 391.462776883 525 362.524931333 525 330 c 0
 525 225.513139549 389.284231594 154.487834167 321.643370778 37.4874262691 c 0
 317.033190985 29.5130612215 308.482012677 25.0938720349 299.818537544 25.0938720349 c 0
 294.965959708 25.0938720349 290.078150608 26.4803192772 285.827920588 29.4050451532 c 0
 283.258704087 31.1730092276 280.603416781 34.0519916491 279.282867975 36.0071289337 c 0
EndSplineSet
Validated: 524289
Ligature2: "Ligature Substitution lookup 186 subtable" o l i n
Ligature2: "Ligature Substitution lookup 117 subtable" o l i n tp_space
Ligature2: "tokiponaWords subtable" percent o l i n space
EndChar

StartChar: tp_ona
Encoding: 60998 60998 70
Width: 670
VWidth: 0
Flags: HW
HStem: 25 50<55.2041 244.142 298.911 466.358> 445 50<297.058 463.574>
VStem: 165 50<165.823 355.922> 545 50<156.982 358.977>
LayerCount: 2
Back
SplineSet
190 260 m 7
 190 375.00390625 262 470 377 470 c 31
 499 470 570 382.00390625 570 260 c 7
 570 138.99609375 503 50 382 50 c 31
 266 50 190 143.99609375 190 260 c 7
382 50 m 7
 80 50 l 1031
EndSplineSet
Fore
SplineSet
382 75 m 0
 487.057991645 75 545 148.557038938 545 260 c 0
 545 371.617692785 483.741791759 445 377 445 c 0
 278.588446972 445 215 365.078234846 215 260 c 0
 215 154.742670669 281.898389235 75 382 75 c 0
165 260 m 0
 165 384.929577654 245.411553028 495 377 495 c 0
 514.258208241 495 595 392.390119715 595 260 c 0
 595 129.435148562 518.942008355 25 382 25 c 2
 80 25 l 2
 66.3828712355 25 55 36.3828712355 55 50 c 0
 55 63.6171287645 66.3828712355 75 80 75 c 2
 244.141579456 75 l 1
 193.908442765 118.536154241 165 186.125750426 165 260 c 0
EndSplineSet
Validated: 524289
Ligature2: "Ligature Substitution lookup 75 subtable" o n a
Ligature2: "Ligature Substitution lookup 53 subtable" o n a tp_space
Ligature2: "tokiponaWords subtable" percent o n a space
LCarets2: 4 0 0 0 0
EndChar

StartChar: tp_open
Encoding: 60999 60999 71
Width: 600
VWidth: 0
Flags: HW
HStem: 25 50<125 475> 225 50<125 475>
VStem: 75 50<75 225 275 474.796> 475 50<75 225 275 474.796>
LayerCount: 2
Back
SplineSet
100 250 m 5
 500 250 l 1029
EndSplineSet
Refer: 83 61011 S 1 0 0 1 50 -150 2
Fore
SplineSet
475 225 m 1
 125 225 l 1
 125 75 l 1
 475 75 l 1
 475 225 l 1
100 475 m 0
 113.6171875 475 125 463.6171875 125 450 c 2
 125 275 l 1
 475 275 l 1
 475 450 l 2
 475 463.6171875 486.3828125 475 500 475 c 0
 513.6171875 475 525 463.6171875 525 450 c 2
 525 250 l 1
 525 50 l 2
 525 39.2705078125 515.1328125 25 500 25 c 2
 100 25 l 2
 89.2705078125 25 75 34.8671875 75 50 c 2
 75 249.999999764 l 1
 75 450 l 2
 75 463.6171875 86.3828125 475 100 475 c 0
EndSplineSet
Validated: 524289
Ligature2: "Ligature Substitution lookup 187 subtable" o p e n
Ligature2: "Ligature Substitution lookup 118 subtable" o p e n tp_space
Ligature2: "tokiponaWords subtable" percent o p e n space
LCarets2: 5 0 0 0 0 0
EndChar

StartChar: tp_pakala
Encoding: 61000 61000 72
Width: 600
VWidth: 0
Flags: HW
HStem: 25 50<125 283.835 338.665 475> 225 50<240.451 351.335> 425 50<125 259.549 315.451 475>
VStem: 75 50<75 425> 475 50<75 425>
CounterMasks: 1 e0
LayerCount: 2
Back
SplineSet
300 450 m 1
 200 250 l 1
 390 250 l 1
 300 50 l 1025
100 450 m 1
 100 50 l 1
 500 50 l 1
 500 450 l 1
 100 450 l 1
EndSplineSet
Fore
SplineSet
338.664640249 75 m 1
 475 75 l 1
 475 425 l 1
 315.451171875 425 l 1
 240.450849719 275 l 1
 390 275 l 2
 403.726483286 275 414.99826239 263.471657409 414.99826239 249.95321085 c 0
 414.99826239 246.485089506 413.379798787 241.033685636 412.798037629 239.740883067 c 2
 338.664640249 75 l 1
75 450 m 2
 75 460.729492188 84.8671875 475 100 475 c 2
 500 475 l 2
 510.729492188 475 525 465.1328125 525 450 c 2
 525 50 l 2
 525 39.2700956673 515.132537856 25 500 25 c 2
 100 25 l 2
 89.2700956673 25 75 34.8674621445 75 50 c 2
 75 450 l 2
125 425 m 1
 125 75 l 1
 283.835359751 75 l 1
 351.335359751 225 l 1
 200 225 l 2
 197.555834946 225 193.553122559 225.637458771 190.608477364 226.831070319 c 0
 180.921277532 230.757775512 175.064638782 240.345278146 175.064638782 250.227440141 c 0
 175.064638782 253.931185441 175.8873108 257.676321037 177.639320225 261.180339887 c 2
 259.548828125 425 l 1
 125 425 l 1
EndSplineSet
Validated: 524289
Ligature2: "Ligature Substitution lookup 261 subtable" p a k a l a
Ligature2: "Ligature Substitution lookup 250 subtable" p a k a l a tp_space
Ligature2: "tokiponaWords subtable" percent p a k a l a space
LCarets2: 7 0 0 0 0 0 0 0
EndChar

StartChar: tp_pali
Encoding: 61001 61001 73
Width: 600
VWidth: 0
Flags: HW
LayerCount: 2
Back
SplineSet
86 114 m 5
 138 53 l 5
 138 176 l 4
 138.491210938 264 204.919921875 300 300 300 c 7
 389.489638959 300 470.479492188 265 470 186 c 4
 469.671875 131.999023438 470 50 470 50 c 1029
146 454 m 4
 146 539 215 608 300 608 c 4
 385 608 454 539 454 454 c 4
 454 369 385 300 300 300 c 7
 215 300 146 369 146 454 c 4
EndSplineSet
Fore
SplineSet
121 454 m 0
 121 552.809493185 201.188483486 633 300 633 c 0
 398.809493185 633 479 552.811516514 479 454 c 0
 479 393.501702233 448.939170035 339.98323697 402.948432513 307.576919841 c 1
 455.099933347 287.739745722 495.00229273 249.654962034 495.00229273 186.754446819 c 0
 495.00229273 168.453367691 494.854280143 147.236705834 494.854280143 126.769370784 c 0
 494.854280143 86.5346879743 494.999802291 50.0994254885 494.999802291 50.0994254885 c 1
 495.054033576 36.4633707331 483.686961775 25.0000044964 470.002268034 25.0000044964 c 0
 456.428088495 25.0000044964 445.054224448 36.3159516874 445.000197709 49.9005745115 c 0
 445.000088196 49.9281108287 444.85393288 86.3489410647 444.85393288 126.691637094 c 0
 444.85393288 147.081277134 445.001944493 168.355231692 445.001944493 186.640103093 c 0
 445.001944493 242.344592324 386.967976208 275 300 275 c 0
 210.087932916 275 163.385850124 245.054930719 163 175.930226263 c 2
 163 53 l 2
 163 47.3609911006 160.434167217 40.0698744942 155.661036843 35.3057134183 c 0
 150.836732465 30.4904745007 144.432631615 28.1148225522 138.037931056 28.1148225522 c 0
 130.950842357 28.1148225522 123.875299792 31.0327744225 118.974622723 36.7816455997 c 2
 66.9746227227 97.7816455997 l 2
 63.0263114973 102.413318383 61.0980131769 108.180482807 61.0980131769 113.931611308 c 0
 61.0980131769 121.047977998 64.0504778962 128.139791694 69.7816455997 133.025377277 c 0
 74.4133183833 136.973688502 80.180482807 138.901986823 85.9316113072 138.901986823 c 0
 93.0479779979 138.901986823 100.139791694 135.949522103 105.025377277 130.2183544 c 2
 113 120.863508514 l 1
 113 176.069773737 l 2
 113.376386687 243.49911194 147.809872705 285.126376639 198.352531427 306.668863365 c 1
 151.628934335 338.977576087 121 392.932234541 121 454 c 0
300 325 m 0
 371.188483486 325 429 382.809493185 429 454 c 0
 429 525.188483486 371.190506815 583 300 583 c 0
 228.811516514 583 171 525.190506815 171 454 c 0
 171 382.811516514 228.809493185 325 300 325 c 0
EndSplineSet
Validated: 524321
Ligature2: "Ligature Substitution lookup 189 subtable" p a l i
Ligature2: "Ligature Substitution lookup 120 subtable" p a l i tp_space
Ligature2: "tokiponaWords subtable" percent p a l i space
EndChar

StartChar: tp_pan
Encoding: 61003 61003 75
Width: 600
VWidth: 0
Flags: HW
LayerCount: 2
Back
SplineSet
100 450 m 1
 300 250 l 1
 500 450 l 1025
100 250 m 1
 300 50 l 1
 500 250 l 1025
EndSplineSet
Fore
SplineSet
82.322265625 267.677734375 m 0
 77.5078125 262.86328125 75.1005859375 256.431640625 75.1005859375 250 c 0
 75.1005859375 243.568359375 77.5078125 237.13671875 82.322265625 232.322265625 c 2
 282.322265625 32.322265625 l 2
 287.226441882 27.4180893684 293.468331221 25.4156078747 299.521978878 25.4156078747 c 0
 306.676505009 25.4156078747 313.568099252 28.2126305018 317.677734375 32.322265625 c 2
 517.677734375 232.322265625 l 2
 522.4921875 237.13671875 524.899414062 243.568359375 524.899414062 250 c 0
 524.899414062 256.431640625 522.4921875 262.86328125 517.677734375 267.677734375 c 0
 512.86328125 272.4921875 506.431640625 274.899414062 500 274.899414062 c 0
 493.568359375 274.899414062 487.13671875 272.4921875 482.322265625 267.677734375 c 2
 300 85.35546875 l 1
 117.677734375 267.677734375 l 2
 112.86328125 272.4921875 106.431640625 274.899414062 100 274.899414062 c 0
 93.568359375 274.899414062 87.13671875 272.4921875 82.322265625 267.677734375 c 0
82.322265625 467.677734375 m 0
 77.5078125 462.86328125 75.1005859375 456.431640625 75.1005859375 450 c 0
 75.1005859375 443.568359375 77.5078125 437.13671875 82.322265625 432.322265625 c 2
 282.322265625 232.322265625 l 2
 287.226441882 227.418089368 293.468331221 225.415607874 299.521978878 225.415607874 c 0
 306.676505009 225.415607874 313.568099252 228.212630502 317.677734375 232.322265625 c 2
 517.677734375 432.322265625 l 2
 522.4921875 437.13671875 524.899414062 443.568359375 524.899414062 450 c 0
 524.899414062 456.431640625 522.4921875 462.86328125 517.677734375 467.677734375 c 0
 512.86328125 472.4921875 506.431640625 474.899414062 500 474.899414062 c 0
 493.568359375 474.899414062 487.13671875 472.4921875 482.322265625 467.677734375 c 2
 300 285.35546875 l 1
 117.677734375 467.677734375 l 2
 112.86328125 472.4921875 106.431640625 474.899414062 100 474.899414062 c 0
 93.568359375 474.899414062 87.13671875 472.4921875 82.322265625 467.677734375 c 0
EndSplineSet
Validated: 524297
Ligature2: "Ligature Substitution lookup 76 subtable" p a n
Ligature2: "Ligature Substitution lookup 54 subtable" p a n tp_space
Ligature2: "tokiponaWords subtable" percent p a n space
LCarets2: 4 0 0 0 0
EndChar

StartChar: tp_pana
Encoding: 61004 61004 76
Width: 600
VWidth: 0
Flags: HW
HStem: 25 21G<493.191 506.809 493.191 506.809> 445 50<259.974 401.861>
VStem: 128 50<84.6178 354.476> 297 50<539.204 724.796> 475 50<25.2041 362.546>
AnchorPoint: "Small" 328 224 basechar 0
LayerCount: 2
Back
SplineSet
513 653 m 5
 433 548 l 1029
322 700 m 5
 322 564 l 1029
122 640 m 5
 206 547 l 1053
EndSplineSet
Refer: 45 60973 S 1 0 0 1 0 0 2
Fore
SplineSet
105.242843551 658.552566069 m 0
 109.952676364 662.80660861 115.959725407 664.900370302 121.955780597 664.900370302 c 0
 128.82472133 664.900370302 135.679234326 662.152630879 140.552566069 656.757156449 c 2
 224.552566069 563.757156449 l 2
 228.80660861 559.047323636 230.900370302 553.040274593 230.900370302 547.044219403 c 0
 230.900370302 540.17527867 228.152630879 533.320765674 222.757156449 528.447433931 c 0
 218.047323636 524.19339139 212.040274593 522.099629698 206.044219403 522.099629698 c 0
 199.17527867 522.099629698 192.320765674 524.847369121 187.447433931 530.242843551 c 2
 103.447433931 623.242843551 l 2
 99.1933913903 627.952676364 97.0996296983 633.959725407 97.0996296983 639.955780597 c 0
 97.0996296983 646.82472133 99.8473691212 653.679234326 105.242843551 658.552566069 c 0
322 725 m 0
 335.617128764 725 347 713.617128764 347 700 c 2
 347 564 l 2
 347 550.382871236 335.617128764 539 322 539 c 0
 308.382871236 539 297 550.382871236 297 564 c 2
 297 700 l 2
 297 713.617128764 308.382871236 725 322 725 c 0
528.151080382 672.885793001 m 0
 534.536650433 668.020596771 537.906941273 660.479150286 537.906941273 652.888539583 c 0
 537.906941273 647.60360903 536.27316527 642.294845722 532.885793001 637.848919618 c 2
 452.885793001 532.848919618 l 2
 448.020596771 526.463349567 440.479150286 523.093058727 432.888539583 523.093058727 c 0
 427.60360903 523.093058727 422.294845722 524.72683473 417.848919618 528.114206999 c 0
 411.463349567 532.979403229 408.093058727 540.520849714 408.093058727 548.111460417 c 0
 408.093058727 553.39639097 409.72683473 558.705154278 413.114206999 563.151080382 c 2
 493.114206999 668.151080382 l 2
 497.979403229 674.536650433 505.520849714 677.906941273 513.111460417 677.906941273 c 0
 518.39639097 677.906941273 523.705154278 676.27316527 528.151080382 672.885793001 c 0
EndSplineSet
Refer: 45 60973 N 1 0 0 1 0 0 2
Validated: 524289
Ligature2: "Ligature Substitution lookup 190 subtable" p a n a
Ligature2: "Ligature Substitution lookup 121 subtable" p a n a tp_space
Ligature2: "tokiponaWords subtable" percent p a n a space
LCarets2: 5 0 0 0 0 0
EndChar

StartChar: tp_pi
Encoding: 61005 61005 77
Width: 400
VWidth: 0
Flags: HW
HStem: 25 50<125 324.796> 455 20G<93.1914 106.809> 455 20G<93.1914 106.809>
VStem: 75 50<75 474.796>
LayerCount: 2
Back
SplineSet
100 450 m 5
 100 50 l 4
 300 50 l 1029
EndSplineSet
Fore
SplineSet
100 475 m 0xd0
 113.617128764 475 125 463.617128764 125 450 c 2
 125 75 l 1
 300 75 l 2
 313.617128764 75 325 63.6171287645 325 50 c 0
 325 36.3828712355 313.617128764 25 300 25 c 2
 100 25 l 2
 89.2700956673 25 75 34.8674621445 75 50 c 2
 75 450 l 2
 75 463.617128764 86.3828712355 475 100 475 c 0xd0
EndSplineSet
Validated: 8912897
Ligature2: "Ligature Substitution lookup 34 subtable" p i
Ligature2: "Ligature Substitution lookup 21 subtable" p i tp_space
Ligature2: "tokiponaWords subtable" percent p i space
EndChar

StartChar: tp_pilin
Encoding: 61006 61006 78
Width: 600
VWidth: 0
Flags: HW
HStem: 425 50<148.744 243.424 344.593 454.694>
VStem: 75 50<262.709 399.746> 475 50<279.15 404.869>
LayerCount: 2
Back
SplineSet
300 50 m 5
 191.930664062 210.001953125 100 217.928710938 100 330 c 7
 100 384 128 450 196 450 c 7
 264 450 300 368 300 368 c 5
 300 368 316 450 392 450 c 7
 468 450 500 406 500 330 c 7
 500 246 374 178 300 50 c 5
EndSplineSet
Fore
SplineSet
279.282867975 36.0071289338 m 0
 178.944470768 184.563048033 75 200.472286622 75 330 c 0
 75 389.007312059 106.857446864 475 196 475 c 0
 243.707395909 475 277.266192613 444.112940833 295.722144903 421.374702161 c 1
 313.192814708 448.155514549 343.072741243 475 392 475 c 0
 482.771001413 475 525 414.648298559 525 330 c 0
 525 225.513139549 389.284231594 154.487834167 321.643370778 37.4874262691 c 0
 317.033190985 29.5130612215 308.482012677 25.0938720349 299.818537544 25.0938720349 c 0
 294.965959708 25.0938720349 290.078150608 26.4803192772 285.827920588 29.4050451532 c 0
 283.258704087 31.1730092276 280.603416781 34.051991649 279.282867975 36.0071289338 c 0
298.790393265 94.8283343522 m 1
 378.848674953 211.160723899 475 272.910808338 475 330 c 0
 475 397.351701441 453.228998587 425 392 425 c 0
 340.107801257 425 325.816921807 369.263448986 324.396074516 362.536358042 c 0
 323.144156801 356.794858826 318.396628814 349.517185799 311.866060197 345.995531922 c 0
 308.097849043 343.963498235 304.024252495 342.963066304 299.985091044 342.963066304 c 0
 291.176943693 342.963066304 282.532548879 347.720516626 277.575855814 356.912185229 c 0
 274.8772007 362.904080447 242.721363443 425 196 425 c 0
 149.142553136 425 125 378.992687941 125 330 c 0
 125 241.5364359 191.384881973 237.690716123 298.790393265 94.8283343522 c 1
EndSplineSet
Validated: 524289
LCarets2: 6 0 0 0 0 0 0
Ligature2: "Ligature Substitution lookup 242 subtable" p i l i n
Ligature2: "Ligature Substitution lookup 229 subtable" p i l i n tp_space
Ligature2: "tokiponaWords subtable" percent p i l i n space
EndChar

StartChar: tp_pimeja
Encoding: 61007 61007 79
Width: 600
VWidth: 0
Flags: HW
HStem: 25 50<121.317 194.788 251.086 349.169 405.307 478.683>
LayerCount: 2
Back
SplineSet
210 50 m 5
 358 336 l 1029
244 336 m 5
 390 50 l 1029
300 470 m 5
 80 50 l 5
 520 50 l 5
 300 470 l 5
EndSplineSet
Fore
SplineSet
277.854211618 481.600174867 m 2
 279.754909247 485.228779431 282.966925126 488.822689659 286.698088754 491.1674079 c 0
 290.748908716 493.713002895 295.29240755 494.914144877 299.797601396 494.914144877 c 0
 308.824569439 494.914144877 317.69775312 490.091878548 322.145788382 481.600174867 c 2
 542.145788382 61.6001748668 l 2
 543.182611228 59.620785796 544.99826239 54.1624796037 544.99826239 50.0467891501 c 0
 544.99826239 36.5283425905 533.726483286 25 520 25 c 2
 80 25 l 2
 78.345343975 25 73.2048390328 25.7163205249 70.173076777 27.0123602784 c 0
 60.7149299699 31.0555975847 55.068911775 40.5095976522 55.068911775 50.2253283224 c 0
 55.068911775 54.0831262905 55.9590763333 57.9821893233 57.854211618 61.6001748668 c 2
 277.854211618 481.600174867 l 2
236.710151397 295.295427253 m 1
 121.31730855 75 l 1
 194.788038133 75 l 1
 272.503451319 225.179784941 l 1
 236.710151397 295.295427253 l 1
349.168656219 75 m 1
 300.460986159 170.413655049 l 1
 251.086087741 75 l 1
 349.168656219 75 l 1
405.306868257 75 m 1
 478.68269145 75 l 1
 364.192938449 293.571346638 l 1
 328.721038477 225.024296692 l 1
 405.306868257 75 l 1
265.07379537 349.44420211 m 2
 265.501611092 348.777388536 265.900021081 348.084645838 266.26647331 347.36680106 c 2
 300.763503637 279.790426583 l 1
 335.796744138 347.48979674 l 2
 335.822078742 347.538754151 335.847562188 347.587593313 335.873193657 347.636313967 c 2
 300 416.121501859 l 1
 265.07379537 349.44420211 l 2
EndSplineSet
Validated: 524289
Ligature2: "Ligature Substitution lookup 263 subtable" p i m e j a
Ligature2: "Ligature Substitution lookup 252 subtable" p i m e j a tp_space
Ligature2: "tokiponaWords subtable" percent p i m e j a space
LCarets2: 7 0 0 0 0 0 0 0
EndChar

StartChar: tp_pini
Encoding: 61008 61008 80
Width: 400
VWidth: 0
Flags: HW
LayerCount: 2
Back
SplineSet
200 450 m 5
 200 50 l 1029
100 50 m 5
 300 50 l 1029
100 450 m 4
 300 450 l 1029
EndSplineSet
Fore
SplineSet
75 450 m 0
 75 463.617128764 86.3828712355 475 100 475 c 2
 200 475 l 1
 300 475 l 2
 313.617128764 475 325 463.617128764 325 450 c 0
 325 436.382871236 313.617128764 425 300 425 c 2
 225 425 l 1
 225 75 l 1
 300 75 l 2
 313.617128764 75 325 63.6171287645 325 50 c 0
 325 36.3828712355 313.617128764 25 300 25 c 2
 200 25 l 1
 100 25 l 2
 86.3828712355 25 75 36.3828712355 75 50 c 0
 75 63.6171287645 86.3828712355 75 100 75 c 2
 175 75 l 1
 175 425 l 1
 100 425 l 2
 86.3828712355 425 75 436.382871236 75 450 c 0
EndSplineSet
Validated: 524289
Ligature2: "Ligature Substitution lookup 191 subtable" p i n i
Ligature2: "Ligature Substitution lookup 122 subtable" p i n i tp_space
Ligature2: "tokiponaWords subtable" percent p i n i space
EndChar

StartChar: tp_pipi
Encoding: 61009 61009 81
Width: 480
VWidth: 0
Flags: W
HStem: 75 21G<223.191 236.809> 225 50<55.2041 205 255 404.796> 405 20G<223.191 236.809> 483 78<100.281 169.719 291.281 360.719>
VStem: 96 78<487.281 556.719> 205 50<75.2041 225 275 424.796> 287 78<487.281 556.719>
LayerCount: 2
Back
Refer: 153 -1 N 1 0 0 1 135 522 2
Refer: 153 -1 N 1 0 0 1 326 522 2
Refer: 10 60938 N 1 0 0 1 0 0 2
Fore
SplineSet
230 425 m 0
 243.6171875 425 255 413.6171875 255 400 c 2
 255 275 l 1
 380 275 l 2
 393.6171875 275 405 263.6171875 405 250 c 0
 405 236.3828125 393.6171875 225 380 225 c 2
 255 225 l 1
 255 100 l 2
 255 86.3828125 243.6171875 75 230 75 c 0
 216.3828125 75 205 86.3828125 205 100 c 2
 205 225 l 1
 80 225 l 2
 66.3828125 225 55 236.3828125 55 250 c 0
 55 263.6171875 66.3828125 275 80 275 c 2
 205 275 l 1
 205 400 l 2
 205 413.6171875 216.3828125 425 230 425 c 0
287 522 m 0
 287 543.462890625 304.537109375 561 326 561 c 0
 347.462890625 561 365 543.462890625 365 522 c 0
 365 500.537109375 347.462890625 483 326 483 c 0
 304.537109375 483 287 500.537109375 287 522 c 0
96 522 m 0
 96 543.462890625 113.537109375 561 135 561 c 0
 156.462890625 561 174 543.462890625 174 522 c 0
 174 500.537109375 156.462890625 483 135 483 c 0
 113.537109375 483 96 500.537109375 96 522 c 0
EndSplineSet
LCarets2: 5 0 0 0 0 0
Ligature2: "Ligature Substitution lookup 192 subtable" p i p i
Ligature2: "Ligature Substitution lookup 123 subtable" p i p i tp_space
Ligature2: "tokiponaWords subtable" percent p i p i space
EndChar

StartChar: tp_poka
Encoding: 61010 61010 82
Width: 600
VWidth: 0
Flags: HW
LayerCount: 2
Back
SplineSet
300 250 m 5
 500 250 l 1028
100 450 m 5
 100 50 l 5
 500 50 l 5
 500 450 l 1029
EndSplineSet
Fore
SplineSet
100 475 m 0
 113.617128764 475 125 463.617128764 125 450 c 2
 125 75 l 1
 475 75 l 1
 475 225 l 1
 300 225 l 2
 286.382871236 225 275 236.382871236 275 250 c 0
 275 263.617128764 286.382871236 275 300 275 c 2
 475 275 l 1
 475 450 l 2
 475 463.617128764 486.382871236 475 500 475 c 0
 513.617128764 475 525 463.617128764 525 450 c 2
 525 250 l 1
 525 50 l 2
 525 39.2700956673 515.132537856 25 500 25 c 2
 100 25 l 2
 89.2700956673 25 75 34.8674621445 75 50 c 2
 75 450 l 2
 75 463.617128764 86.3828712355 475 100 475 c 0
EndSplineSet
Validated: 524289
Ligature2: "Ligature Substitution lookup 193 subtable" p o k a
Ligature2: "Ligature Substitution lookup 124 subtable" p o k a tp_space
Ligature2: "tokiponaWords subtable" percent p o k a space
EndChar

StartChar: tp_poki
Encoding: 61011 61011 83
Width: 600
VWidth: 0
Flags: HW
LayerCount: 2
Back
SplineSet
100 450 m 5
 100 50 l 5
 500 50 l 5
 500 450 l 1029
EndSplineSet
Fore
SplineSet
100 475 m 0
 113.617128764 475 125 463.617128764 125 450 c 2
 125 75 l 1
 475 75 l 1
 475 450 l 2
 475 463.617128764 486.382871236 475 500 475 c 0
 513.617128764 475 525 463.617128764 525 450 c 2
 525 50 l 2
 525 39.2700956673 515.132537856 25 500 25 c 2
 100 25 l 2
 89.2700956673 25 75 34.8674621445 75 50 c 2
 75 450 l 2
 75 463.617128764 86.3828712355 475 100 475 c 0
EndSplineSet
Validated: 524289
Ligature2: "Ligature Substitution lookup 194 subtable" p o k i
Ligature2: "Ligature Substitution lookup 125 subtable" p o k i tp_space
Ligature2: "tokiponaWords subtable" percent p o k i space
LCarets2: 5 0 0 0 0 0
EndChar

StartChar: tp_pu
Encoding: 61013 61013 85
Width: 820
VWidth: 0
Flags: HW
LayerCount: 2
Back
SplineSet
311.772460938 210.55078125 m 29
 311.772460938 210.55078125 315.782226562 120.337890625 408 120.337890625 c 4
 500.217773438 120.337890625 496.208007812 210.55078125 496.208007812 210.55078125 c 1053
  Spiro
    311.773 210.55 {
    316.216 187.202 o
    342.109 143.686 o
    408 120.338 o
    471.815 143.686 o
    493.841 187.202 o
    496.208 210.55 v
    0 0 z
  EndSpiro
614 586 m 29
 560 478 l 1053
408 600 m 29
 410 502 l 1053
194 578 m 5
 248 472 l 1053
207.52734375 200.52734375 m 4
 207.52734375 310.786132812 297.740234375 401 408 401 c 4
 518.260742188 401 608.473632812 310.786132812 608.473632812 200.52734375 c 4
 608.473632812 90.265625 518.260742188 0.0537109375 408 0.0537109375 c 4
 297.740234375 0.0537109375 207.52734375 90.265625 207.52734375 200.52734375 c 4
  Spiro
    207.527 200.527 o
    234.947 301.417 o
    307.111 373.58 o
    408 401 o
    508.89 373.58 o
    581.054 301.417 o
    608.474 200.527 o
    581.054 99.6366 o
    508.89 27.4732 o
    408 0.053269 o
    307.111 27.4732 o
    234.947 99.6366 o
    0 0 z
  EndSpiro
100 700 m 5
 100 -100 l 5
 720 -100 l 5
 720 700 l 5
 100 700 l 5
EndSplineSet
Fore
SplineSet
125 675 m 1
 125 -75 l 1
 695 -75 l 1
 695 675 l 1
 125 675 l 1
75 700 m 2
 75 710.729904333 84.8674621445 725 100 725 c 2
 720 725 l 2
 730.729904333 725 745 715.132537856 745 700 c 2
 745 -100 l 2
 745 -110.729904333 735.132537856 -125 720 -125 c 2
 100 -125 l 2
 89.2700956673 -125 75 -115.132537856 75 -100 c 2
 75 700 l 2
182.52734375 200.52734375 m 0
 182.52734375 324.630272525 283.895969415 426 408 426 c 0
 532.104916491 426 633.473632812 324.630324192 633.473632812 200.52734375 c 0
 633.473632812 76.4214816631 532.104752244 -24.9462890625 408 -24.9462890625 c 0
 283.896125629 -24.9462890625 182.52734375 76.4215413621 182.52734375 200.52734375 c 0
232.52734375 200.52734375 m 0
 232.52734375 104.109708638 311.584343121 25.0537109375 408 25.0537109375 c 0
 504.416732131 25.0537109375 583.473632812 104.109768337 583.473632812 200.52734375 c 0
 583.473632812 296.941941433 504.416567884 376 408 376 c 0
 311.584499335 376 232.52734375 296.9419931 232.52734375 200.52734375 c 0
182.651855465 600.275987421 m 0
 186.198803842 602.082923387 190.017176108 602.936441216 193.799586697 602.936441216 c 0
 202.956044711 602.936441216 211.901757572 597.934595721 216.275987421 589.348144535 c 2
 270.275987421 483.348144535 l 2
 272.082923387 479.801196158 272.936441216 475.982823892 272.936441216 472.200413303 c 0
 272.936441216 463.043955289 267.934595721 454.098242428 259.348144535 449.724012579 c 0
 255.801196158 447.917076613 251.982823892 447.063558784 248.200413303 447.063558784 c 0
 239.043955289 447.063558784 230.098242428 452.065404279 225.724012579 460.651855465 c 2
 171.724012579 566.651855465 l 2
 169.917076613 570.198803842 169.063558784 574.017176108 169.063558784 577.799586697 c 0
 169.063558784 586.956044711 174.065404279 595.901757572 182.651855465 600.275987421 c 0
407.987957398 624.999878808 m 0
 421.386245299 624.999878808 432.720347071 613.958068973 432.994795462 600.510097867 c 2
 434.994795462 502.510097867 l 2
 435.272638195 488.895803937 424.124391796 477.283047272 410.510097867 477.005204538 c 0
 410.343775044 477.001810195 410.17775095 477.000121192 410.012042602 477.000121192 c 0
 396.613754701 477.000121192 385.279652929 488.041931027 385.005204538 501.489902133 c 2
 383.005204538 599.489902133 l 2
 382.725367879 613.201898454 394.025548344 624.999878808 407.987957398 624.999878808 c 0
625.180339887 608.360679775 m 0
 633.858712831 604.021493303 638.93795364 595.020536191 638.93795364 585.798134457 c 0
 638.93795364 582.077497048 638.111258418 578.320817399 636.360679775 574.819660113 c 2
 582.360679775 466.819660113 l 2
 578.021493303 458.141287169 569.020536191 453.06204636 559.798134457 453.06204636 c 0
 556.077497048 453.06204636 552.320817399 453.888741582 548.819660113 455.639320225 c 0
 540.141287169 459.978506697 535.06204636 468.979463809 535.06204636 478.201865543 c 0
 535.06204636 481.922502952 535.888741582 485.679182601 537.639320225 489.180339887 c 2
 591.639320225 597.180339887 l 2
 595.978506697 605.858712831 604.979463809 610.93795364 614.201865543 610.93795364 c 0
 617.922502952 610.93795364 621.679182601 610.111258418 625.180339887 608.360679775 c 0
310.586089957 235.522615862 m 0
 310.974614831 235.541074043 311.360480656 235.550173602 311.743567769 235.550173602 c 0
 325.332189939 235.550173602 335.424588303 224.100947653 336.680134327 212.764605689 c 0
 337.158301571 205.219903828 341.509056458 145.337890625 408 145.337890625 c 0
 473.196258358 145.337890625 471.389298674 203.183266307 471.20220224 210.54922072 c 0
 471.503167626 224.554182821 482.153407864 234.990742071 495.174671036 235.529416423 c 0
 495.53312781 235.544245358 495.890391354 235.551609886 496.246287218 235.551609886 c 0
 508.660478515 235.551609886 521.173239291 225.895317007 521.173239291 210.857433689 c 0
 521.173239291 197.183016653 517.496609201 95.337890625 408 95.337890625 c 0
 293.070843855 95.337890625 286.864783976 208.013754736 286.763340725 210.149026186 c 0
 286.950319141 222.321789029 296.411632206 234.84921058 310.586089957 235.522615862 c 0
EndSplineSet
Validated: 524321
Ligature2: "Ligature Substitution lookup 35 subtable" p u
Ligature2: "Ligature Substitution lookup 22 subtable" p u tp_space
Ligature2: "tokiponaWords subtable" percent p u space
EndChar

StartChar: tp_sama
Encoding: 61014 61014 86
Width: 500
VWidth: 0
Flags: W
HStem: 155 50<75.2041 424.796> 305 50<75.2041 424.796>
LayerCount: 2
Back
SplineSet
400 330 m 5
 100 330 l 1029
400 180 m 5
 100 180 l 1029
EndSplineSet
Fore
SplineSet
425 330 m 0
 425 316.382871236 413.617128764 305 400 305 c 2
 100 305 l 2
 86.3828712355 305 75 316.382871236 75 330 c 0
 75 343.617128764 86.3828712355 355 100 355 c 2
 400 355 l 2
 413.617128764 355 425 343.617128764 425 330 c 0
425 180 m 0
 425 166.382871236 413.617128764 155 400 155 c 2
 100 155 l 2
 86.3828712355 155 75 166.382871236 75 180 c 0
 75 193.617128764 86.3828712355 205 100 205 c 2
 400 205 l 2
 413.617128764 205 425 193.617128764 425 180 c 0
EndSplineSet
Ligature2: "Ligature Substitution lookup 196 subtable" s a m a
Ligature2: "Ligature Substitution lookup 127 subtable" s a m a tp_space
Ligature2: "tokiponaWords subtable" percent s a m a space
LCarets2: 5 0 0 0 0 0
EndChar

StartChar: tp_seli
Encoding: 61015 61015 87
Width: 600
VWidth: 0
Flags: W
HStem: 12 78<265.281 334.719>
VStem: 261 78<16.2807 85.7193> 275 50<160.204 359.796>
LayerCount: 2
Back
SplineSet
410 145 m 1
 500 235 l 1025
300 185 m 25
 300 335 l 1025
100 235 m 1
 190 145 l 1025
EndSplineSet
Refer: 153 -1 N 1 0 0 1 300 51 2
Fore
SplineSet
392.322265625 127.322265625 m 0x80
 382.693359375 136.951171875 382.693359375 153.048828125 392.322265625 162.677734375 c 2
 482.322265625 252.677734375 l 2
 491.951171875 262.306640625 508.048828125 262.306640625 517.677734375 252.677734375 c 0
 527.306640625 243.048828125 527.306640625 226.951171875 517.677734375 217.322265625 c 2
 427.677734375 127.322265625 l 2
 418.048828125 117.693359375 401.951171875 117.693359375 392.322265625 127.322265625 c 0x80
300 160 m 0
 286.3828125 160 275 171.3828125 275 185 c 2
 275 335 l 2
 275 348.6171875 286.3828125 360 300 360 c 0
 313.6171875 360 325 348.6171875 325 335 c 2
 325 185 l 2xa0
 325 171.3828125 313.6171875 160 300 160 c 0
82.322265625 252.677734375 m 0
 91.951171875 262.306640625 108.048828125 262.306640625 117.677734375 252.677734375 c 2
 207.677734375 162.677734375 l 2
 217.306640625 153.048828125 217.306640625 136.951171875 207.677734375 127.322265625 c 0
 198.048828125 117.693359375 181.951171875 117.693359375 172.322265625 127.322265625 c 2
 82.322265625 217.322265625 l 2
 72.693359375 226.951171875 72.693359375 243.048828125 82.322265625 252.677734375 c 0
EndSplineSet
Refer: 153 -1 N 1 0 0 1 300 51 2
Ligature2: "Ligature Substitution lookup 197 subtable" s e l i
Ligature2: "Ligature Substitution lookup 128 subtable" s e l i tp_space
Ligature2: "tokiponaWords subtable" percent s e l i space
LCarets2: 5 0 0 0 0 0
EndChar

StartChar: tp_selo
Encoding: 61016 61016 88
Width: 600
VWidth: 0
Flags: HW
LayerCount: 2
Back
SplineSet
370 50 m 5
 370 450 l 1029
230 50 m 5
 230 450 l 1029
100 50 m 5
 100 450 l 5
 500 450 l 5
 500 50 l 1029
EndSplineSet
Fore
SplineSet
100 25 m 0
 86.3828712355 25 75 36.3828712355 75 50 c 2
 75 450 l 2
 75 465.132537856 89.2700956673 475 100 475 c 2
 230 475 l 1
 370 475 l 1
 500 475 l 2
 515.132537856 475 525 460.729904333 525 450 c 2
 525 50 l 2
 525 36.3828712355 513.617128764 25 500 25 c 0
 486.382871236 25 475 36.3828712355 475 50 c 2
 475 425 l 1
 395 425 l 1
 395 50 l 2
 395 36.3828712355 383.617128764 25 370 25 c 0
 356.382871236 25 345 36.3828712355 345 50 c 2
 345 425 l 1
 255 425 l 1
 255 50 l 2
 255 36.3828712355 243.617128764 25 230 25 c 0
 216.382871236 25 205 36.3828712355 205 50 c 2
 205 425 l 1
 125 425 l 1
 125 50 l 2
 125 36.3828712355 113.617128764 25 100 25 c 0
EndSplineSet
Validated: 524289
Ligature2: "Ligature Substitution lookup 198 subtable" s e l o
Ligature2: "Ligature Substitution lookup 129 subtable" s e l o tp_space
Ligature2: "tokiponaWords subtable" percent s e l o space
LCarets2: 5 0 0 0 0 0
EndChar

StartChar: tp_seme
Encoding: 61017 61017 89
Width: 500
VWidth: 0
Flags: HW
HStem: 25 50<177.008 276.992> 575 50<160.294 303.673>
VStem: 106 50<96.0075 196.573> 202 50<258.404 305.354> 298 50<96.0075 196.573> 355 50<398.917 525.222>
LayerCount: 2
Back
SplineSet
227 322 m 29
 227 242 l 1053
131 146 m 4
 131 199 174 242 227 242 c 4
 280 242 323 199 323 146 c 4
 323 93 280 50 227 50 c 4
 174 50 131 93 131 146 c 4
100 528 m 5
 100 528 144 600 227 600 c 7
 326 600 380 530.028320312 380 460 c 7
 380 335.983398438 227 322 227 322 c 1029
EndSplineSet
Fore
SplineSet
156 146 m 0
 156 106.807142702 187.807092901 75 227 75 c 0
 266.192857298 75 298 106.807092901 298 146 c 0
 298 185.192857298 266.192907099 217 227 217 c 0
 187.807142702 217 156 185.192907099 156 146 c 0
86.9075823128 506.702380436 m 0
 78.9889913956 511.570224913 75.2964441738 519.916395987 75.2964441738 528.117052687 c 0
 75.2964441738 532.435919019 76.3206053784 536.71442563 78.2909995336 540.423235187 c 0
 80.4342411982 543.909676476 129.139265922 625 227 625 c 0
 339.497412463 625 405 543.267019948 405 460 c 0
 405 344.104252444 300.018457118 310.04057148 252 300.521626302 c 1
 252 264.412320354 l 1
 306.819268494 252.88843267 348 204.236960701 348 146 c 0
 348 79.1929070993 293.807142702 25 227 25 c 0
 160.192907099 25 106 79.1928572984 106 146 c 0
 106 204.236922446 147.180700957 252.888430149 202 264.412321272 c 1
 202 321.659533016 l 2
 201.85275942 331.007563357 206.862190442 339.563161559 215.26642834 343.998304426 c 0
 217.697015648 345.319098658 220.359680723 346.248239012 223.164739778 346.696033388 c 0
 223.388620706 346.736503761 223.613902151 346.77452744 223.840566072 346.810065185 c 0
 232.285684208 347.635804942 355 363.196553535 355 460 c 0
 355 516.789620677 312.502587537 575 227 575 c 0
 161.288931127 575 123.480403011 518.373289686 120.796143805 514.110560019 c 0
 116.211366647 507.606537239 107.99577384 503.161339943 99.4393842991 503.161339943 c 0
 95.213107119 503.161339943 90.9036860601 504.24583081 86.9075823128 506.702380436 c 0
EndSplineSet
Validated: 524289
Ligature2: "Ligature Substitution lookup 199 subtable" s e m e
Ligature2: "Ligature Substitution lookup 130 subtable" s e m e tp_space
Ligature2: "tokiponaWords subtable" percent s e m e space
EndChar

StartChar: tp_sewi
Encoding: 61018 61018 90
Width: 500
VWidth: 0
Flags: HW
LayerCount: 2
Back
SplineSet
100 50 m 4
 189 50 195 249 195 249 c 5
 195 249 207 50 300 50 c 7
 380 50 400 107.996478917 400 250 c 7
 400 289 400 450 400 450 c 1029
EndSplineSet
Fore
SplineSet
75 50 m 0
 75 63.6171287645 86.3828712355 75 100 75 c 0
 154.0041843 75 169.628222828 237.393713119 170.01200214 249.77457276 c 0
 170.429370888 263.239039767 181.871247538 273.996480423 195.068388532 273.996480423 c 0
 195.949576707 273.996480423 196.838590526 273.948519606 197.732670616 273.850201434 c 0
 209.90699387 272.511443053 219.248977854 262.041502511 219.953358491 250.526401008 c 0
 220.640513668 239.292898547 240.728239813 75 300 75 c 0
 356.567834474 75 375 105.078282486 375 250 c 2
 375 450 l 2
 375 463.617128764 386.382871236 475 400 475 c 0
 413.617128764 475 425 463.617128764 425 450 c 2
 425 250 l 2
 425 110.914675348 403.432165526 25 300 25 c 0
 243.47859334 25 213.687051836 74.122336913 197.258152512 116.799707572 c 1
 183.333363354 76.4671062271 155.854026389 25 100 25 c 0
 86.3828712355 25 75 36.3828712355 75 50 c 0
EndSplineSet
Validated: 524289
Ligature2: "Ligature Substitution lookup 200 subtable" s e w i
Ligature2: "Ligature Substitution lookup 131 subtable" s e w i tp_space
Ligature2: "tokiponaWords subtable" percent s e w i space
EndChar

StartChar: tp_sijelo
Encoding: 61019 61019 91
Width: 600
VWidth: 0
Flags: HW
LayerCount: 2
Back
SplineSet
300 50 m 5
 300 450 l 1029
100 50 m 5
 100 450 l 5
 500 450 l 5
 500 50 l 1029
EndSplineSet
Fore
SplineSet
100 25 m 0
 86.3828712355 25 75 36.3828712355 75 50 c 2
 75 450 l 2
 75 465.132537856 89.2700956673 475 100 475 c 2
 300 475 l 1
 500 475 l 2
 515.132537856 475 525 460.729904333 525 450 c 2
 525 50 l 2
 525 36.3828712355 513.617128764 25 500 25 c 0
 486.382871236 25 475 36.3828712355 475 50 c 2
 475 425 l 1
 325 425 l 1
 325 50 l 2
 325 36.3828712355 313.617128764 25 300 25 c 0
 286.382871236 25 275 36.3828712355 275 50 c 2
 275 425 l 1
 125 425 l 1
 125 50 l 2
 125 36.3828712355 113.617128764 25 100 25 c 0
EndSplineSet
Validated: 524289
Ligature2: "Ligature Substitution lookup 264 subtable" s i j e l o
Ligature2: "Ligature Substitution lookup 253 subtable" s i j e l o tp_space
Ligature2: "tokiponaWords subtable" percent s i j e l o space
LCarets2: 7 0 0 0 0 0 0 0
EndChar

StartChar: tp_sike
Encoding: 61020 61020 92
Width: 560
VWidth: 0
Flags: HW
HStem: 5 50<197.097 362.903> 130 50<230.155 329.845> 320 50<230.155 329.845> 445 50<197.097 362.903>
VStem: 55 50<151.252 348.748> 160 50<200.155 299.845> 350 50<200.155 299.845> 455 50<151.252 348.748>
LayerCount: 2
Back
SplineSet
185 250 m 0
 185 302 228 345 280 345 c 0
 332 345 375 302 375 250 c 0
 375 198 332 155 280 155 c 0
 228 155 185 198 185 250 c 0
EndSplineSet
Refer: 12 60940 N 1 0 0 1 0 0 2
Fore
SplineSet
160 250 m 0
 160 315.890625 214.109375 370 280 370 c 0
 345.890625 370 400 315.890625 400 250 c 0
 400 184.109375 345.890625 130 280 130 c 0
 214.109375 130 160 184.109375 160 250 c 0
210 250 m 0
 210 211.890625 241.890625 180 280 180 c 0
 318.109375 180 350 211.890625 350 250 c 0
 350 288.109375 318.109375 320 280 320 c 0
 241.890625 320 210 288.109375 210 250 c 0
EndSplineSet
Refer: 12 60940 N 1 0 0 1 0 0 2
Validated: 524289
Ligature2: "Ligature Substitution lookup 201 subtable" s i k e
Ligature2: "Ligature Substitution lookup 132 subtable" s i k e tp_space
Ligature2: "tokiponaWords subtable" percent s i k e space
LCarets2: 5 0 0 0 0 0
EndChar

StartChar: tp_sin
Encoding: 61021 61021 93
Width: 600
VWidth: 0
Flags: HW
LayerCount: 2
Back
SplineSet
300 300 m 5
 300 400 l 1029
400 190 m 5
 500 190 l 1029
100 190 m 5
 200 190 l 1029
EndSplineSet
Fore
SplineSet
75 190 m 0
 75 203.617128764 86.3828712355 215 100 215 c 2
 200 215 l 2
 213.617128764 215 225 203.617128764 225 190 c 0
 225 176.382871236 213.617128764 165 200 165 c 2
 100 165 l 2
 86.3828712355 165 75 176.382871236 75 190 c 0
375 190 m 0
 375 203.617128764 386.382871236 215 400 215 c 2
 500 215 l 2
 513.617128764 215 525 203.617128764 525 190 c 0
 525 176.382871236 513.617128764 165 500 165 c 2
 400 165 l 2
 386.382871236 165 375 176.382871236 375 190 c 0
300 275 m 0
 286.382871236 275 275 286.382871236 275 300 c 2
 275 400 l 2
 275 413.617128764 286.382871236 425 300 425 c 0
 313.617128764 425 325 413.617128764 325 400 c 2
 325 300 l 2
 325 286.382871236 313.617128764 275 300 275 c 0
EndSplineSet
Validated: 524289
Ligature2: "Ligature Substitution lookup 77 subtable" s i n
Ligature2: "Ligature Substitution lookup 55 subtable" s i n tp_space
Ligature2: "tokiponaWords subtable" percent s i n space
EndChar

StartChar: tp_sinpin
Encoding: 61023 61023 95
Width: 480
VWidth: 0
Flags: HW
HStem: 25 50<55.2041 355> 225 50<205.204 355> 425 50<55.2041 355>
VStem: 355 50<75 225 275 425>
CounterMasks: 1 e0
LayerCount: 2
Back
SplineSet
230 250 m 1
 380 250 l 1025
80 450 m 1
 380 450 l 1
 380 50 l 1
 80 50 l 1025
EndSplineSet
Fore
SplineSet
55 450 m 0
 55 463.6171875 66.3828125 475 80 475 c 2
 380 475 l 2
 395.1328125 475 405 460.729492188 405 450 c 2
 405 250 l 1
 405 50 l 2
 405 34.8671875 390.729492188 25 380 25 c 2
 80 25 l 2
 66.3828125 25 55 36.3828125 55 50 c 0
 55 63.6171875 66.3828125 75 80 75 c 2
 355 75 l 1
 355 225 l 1
 230 225 l 2
 216.3828125 225 205 236.3828125 205 250 c 0
 205 263.6171875 216.3828125 275 230 275 c 2
 355 275 l 1
 355 425 l 1
 80 425 l 2
 66.3828125 425 55 436.3828125 55 450 c 0
EndSplineSet
Validated: 524289
Ligature2: "Ligature Substitution lookup 265 subtable" s i n p i n
Ligature2: "Ligature Substitution lookup 254 subtable" s i n p i n tp_space
Ligature2: "tokiponaWords subtable" percent s i n p i n space
LCarets2: 7 0 0 0 0 0 0 0
EndChar

StartChar: tp_sitelen
Encoding: 61024 61024 96
Width: 600
VWidth: 0
Flags: W
HStem: 25 50<125 475> 212 78<266.281 335.719> 425 50<125 475>
VStem: 75 50<75 425> 262 78<216.281 285.719> 475 50<75 425>
LayerCount: 2
Back
SplineSet
100 450 m 1
 100 50 l 1
 500 50 l 1
 500 450 l 1
 100 450 l 1
EndSplineSet
Refer: 153 -1 S 1 0 0 1 301 251 2
Fore
SplineSet
75 450 m 2
 75 460.729904333 84.8674621445 475 100 475 c 2
 500 475 l 2
 510.729904333 475 525 465.132537856 525 450 c 2
 525 50 l 2
 525 39.2700956673 515.132537856 25 500 25 c 2
 100 25 l 2
 89.2700956673 25 75 34.8674621445 75 50 c 2
 75 450 l 2
125 425 m 1
 125 75 l 1
 475 75 l 1
 475 425 l 1
 125 425 l 1
EndSplineSet
Refer: 153 -1 N 1 0 0 1 301 251 2
Ligature2: "Ligature Substitution lookup 274 subtable" s i t e l e n
Ligature2: "Ligature Substitution lookup 270 subtable" s i t e l e n tp_space
Ligature2: "tokiponaWords subtable" percent s i t e l e n space
LCarets2: 8 0 0 0 0 0 0 0 0
EndChar

StartChar: tp_sona
Encoding: 61025 61025 97
Width: 600
VWidth: 0
Flags: HW
HStem: 25 50<125 475> 425 50<125 475>
VStem: 75 50<75 425> 275 50<545.204 724.796> 475 50<75 425>
CounterMasks: 1 38
AnchorPoint: "Small" 300 250 basechar 0
LayerCount: 2
Back
SplineSet
438 556 m 29
 499 654 l 1029
300 570 m 5
 300 700 l 1029
103 656 m 5
 175 560 l 1029
100 50 m 5
 500 50 l 5
 500 450 l 5
 100 450 l 5
 100 50 l 5
EndSplineSet
Fore
SplineSet
125 75 m 1
 475 75 l 1
 475 425 l 1
 125 425 l 1
 125 75 l 1
100 25 m 2
 89.2700956673 25 75 34.8674621445 75 50 c 2
 75 450 l 2
 75 460.729904333 84.8674621445 475 100 475 c 2
 500 475 l 2
 510.729904333 475 525 465.132537856 525 450 c 2
 525 50 l 2
 525 39.2700956673 515.132537856 25 500 25 c 2
 100 25 l 2
88 676 m 0
 92.4166907816 679.312518086 97.6622260409 680.90780664 102.883018926 680.90780664 c 0
 110.539235094 680.90780664 118.142240827 677.47701223 123 671 c 2
 195 575 l 2
 198.312518086 570.583309218 199.90780664 565.337773959 199.90780664 560.116981073 c 0
 199.90780664 552.460764906 196.47701223 544.857759173 190 540 c 0
 185.583309218 536.687481914 180.337773959 535.09219336 175.116981073 535.09219336 c 0
 167.460764906 535.09219336 159.857759173 538.52298777 155 545 c 2
 83 641 l 2
 79.6874819139 645.416690782 78.0921933602 650.662226041 78.0921933602 655.883018926 c 0
 78.0921933602 663.539235094 81.5229877699 671.142240827 88 676 c 0
300 545 m 0
 286.382871236 545 275 556.382871236 275 570 c 2
 275 700 l 2
 275 713.617128764 286.382871236 725 300 725 c 0
 313.617128764 725 325 713.617128764 325 700 c 2
 325 570 l 2
 325 556.382871236 313.617128764 545 300 545 c 0
424.788983504 534.775743991 m 0
 417.253439514 539.466235659 413.079595368 547.761061418 413.079595368 556.170195763 c 0
 413.079595368 560.661803492 414.270391149 565.186023406 416.775743991 569.211016496 c 2
 477.775743991 667.211016496 l 2
 482.466235659 674.746560486 490.761061418 678.920404632 499.170195763 678.920404632 c 0
 503.661803492 678.920404632 508.186023406 677.729608851 512.211016496 675.224256009 c 0
 519.746560486 670.533764341 523.920404632 662.238938582 523.920404632 653.829804237 c 0
 523.920404632 649.338196508 522.729608851 644.813976594 520.224256009 640.788983504 c 2
 459.224256009 542.788983504 l 2
 454.533764341 535.253439514 446.238938582 531.079595368 437.829804237 531.079595368 c 0
 433.338196508 531.079595368 428.813976594 532.270391149 424.788983504 534.775743991 c 0
EndSplineSet
Validated: 524289
Ligature2: "Ligature Substitution lookup 203 subtable" s o n a
Ligature2: "Ligature Substitution lookup 134 subtable" s o n a tp_space
Ligature2: "tokiponaWords subtable" percent s o n a space
LCarets2: 5 0 0 0 0 0
EndChar

StartChar: tp_soweli
Encoding: 61026 61026 98
Width: 600
VWidth: 0
Flags: W
HStem: -125 21G<293.191 306.809> 211 78<153.281 222.719 325.281 394.719> 425 50<75.2041 407.368>
VStem: 149 78<215.281 284.719> 275 50<-124.796 29.3523> 321 78<215.281 284.719> 495 50<163.642 342.228>
LayerCount: 2
Back
SplineSet
100 450 m 1
 300 450 l 3
 431.381124976 450 520 382.185475753 520 250 c 3
 520 50 300 50 300 50 c 1
 300 -100 l 1025
EndSplineSet
Refer: 153 -1 N 1 0 0 1 360 250 2
Refer: 153 -1 N 1 0 0 1 188 250 2
Fore
SplineSet
75 450 m 0xfa
 75 463.617128764 86.3828712355 475 100 475 c 2
 300 475 l 2
 440.985795201 475 545 397.428000818 545 250 c 0
 545 68.5562924714 382.028091604 33.1190957992 325 26.6804402956 c 1
 325 -100 l 2
 325 -113.617128764 313.617128764 -125 300 -125 c 0
 286.382871236 -125 275 -113.617128764 275 -100 c 2
 275 50 l 2
 275 62.0136197368 284.55957125 74.2415850701 299.280742107 74.9959447143 c 0
 307.596572206 75.0454201432 495 77.9985671263 495 250 c 0
 495 366.942950688 421.776454751 425 300 425 c 2
 100 425 l 2
 86.3828712355 425 75 436.382871236 75 450 c 0xfa
EndSplineSet
Refer: 153 -1 N 1 0 0 1 360 250 2
Refer: 153 -1 N 1 0 0 1 188 250 2
LCarets2: 7 0 0 0 0 0 0 0
Ligature2: "Ligature Substitution lookup 266 subtable" s o w e l i
Ligature2: "Ligature Substitution lookup 255 subtable" s o w e l i tp_space
Ligature2: "tokiponaWords subtable" percent s o w e l i space
EndChar

StartChar: tp_suli
Encoding: 61027 61027 99
Width: 600
VWidth: 0
Flags: HW
LayerCount: 2
Back
SplineSet
80 450 m 5
 300 30 l 5
 520 450 l 5
 80 450 l 5
EndSplineSet
Fore
SplineSet
121.31730855 425 m 1
 300 83.8784981415 l 1
 478.68269145 425 l 1
 121.31730855 425 l 1
57.854211618 438.399825133 m 2
 56.8173887712 440.379214204 55.0017376101 445.837520396 55.0017376101 449.95321085 c 0
 55.0017376101 463.471657409 66.2735167144 475 80 475 c 2
 520 475 l 2
 521.654656025 475 526.795160967 474.283679475 529.826923223 472.987639722 c 0
 539.28507003 468.944402415 544.931088225 459.490402348 544.931088225 449.774671677 c 0
 544.931088225 445.916873709 544.040923667 442.017810677 542.145788382 438.399825133 c 2
 322.145788382 18.3998251332 l 2
 320.245090753 14.7712205693 317.033074874 11.1773103412 313.301911246 8.83259209977 c 0
 309.251091284 6.28699710502 304.70759245 5.0858551224 300.202398604 5.0858551224 c 0
 291.175430561 5.0858551224 282.30224688 9.90812145173 277.854211618 18.3998251332 c 2
 57.854211618 438.399825133 l 2
EndSplineSet
Validated: 524289
Ligature2: "Ligature Substitution lookup 204 subtable" s u l i
Ligature2: "Ligature Substitution lookup 135 subtable" s u l i tp_space
Ligature2: "tokiponaWords subtable" percent s u l i space
LCarets2: 5 0 0 0 0 0
EndChar

StartChar: tp_suno
Encoding: 61028 61028 100
Width: 560
VWidth: 0
Flags: HMW
HStem: 25 50<293.191 306.809> 225 50<75.2041 183.38 416.62 524.796> 425 50<293.191 306.809>
VStem: 275 50<25.2041 133.38 366.62 474.796>
CounterMasks: 1 e0
LayerCount: 2
Back
SplineSet
80 250 m 25
 180 250 l 1049
480 250 m 25
 380 250 l 1049
180 250 m 0
 180 305 225 350 280 350 c 0
 335 350 380 305 380 250 c 0
 380 195 335 150 280 150 c 0
 225 150 180 195 180 250 c 0
280 50 m 25
 280 150 l 1049
280 450 m 25
 280 350 l 1049
EndSplineSet
Fore
SplineSet
280 325 m 0
 238.844726562 325 205 291.15625 205 250 c 0
 205 208.844726562 238.84375 175 280 175 c 0
 321.155273438 175 355 208.84375 355 250 c 0
 355 291.155273438 321.15625 325 280 325 c 0
280 475 m 0
 293.6171875 475 305 463.6171875 305 450 c 2
 305 372.48046875 l 1
 353.85546875 362.49609375 392.49609375 323.85546875 402.48046875 275 c 1
 480 275 l 2
 493.6171875 275 505 263.6171875 505 250 c 0
 505 236.3828125 493.6171875 225 480 225 c 2
 402.48046875 225 l 1
 392.49609375 176.14453125 353.85546875 137.50390625 305 127.51953125 c 1
 305 50 l 2
 305 36.3828125 293.6171875 25 280 25 c 0
 266.3828125 25 255 36.3828125 255 50 c 2
 255 127.51953125 l 1
 206.14453125 137.50390625 167.50390625 176.14453125 157.51953125 225 c 1
 80 225 l 2
 66.3828125 225 55 236.3828125 55 250 c 0
 55 263.6171875 66.3828125 275 80 275 c 2
 157.51953125 275 l 1
 167.50390625 323.85546875 206.14453125 362.49609375 255 372.48046875 c 1
 255 450 l 2
 255 463.6171875 266.3828125 475 280 475 c 0
EndSplineSet
Validated: 524289
Ligature2: "Ligature Substitution lookup 205 subtable" s u n o
Ligature2: "Ligature Substitution lookup 136 subtable" s u n o tp_space
Ligature2: "tokiponaWords subtable" percent s u n o space
LCarets2: 5 0 0 0 0 0
EndChar

StartChar: tp_supa
Encoding: 61029 61029 101
Width: 600
VWidth: 0
Flags: HW
LayerCount: 2
Back
SplineSet
380 350 m 5
 380 100 l 1029
100 350 m 5
 500 350 l 1029
230 100 m 5
 230 350 l 1029
EndSplineSet
Fore
SplineSet
230 75 m 0
 216.382871236 75 205 86.3828712355 205 100 c 2
 205 325 l 1
 100 325 l 2
 86.3828712355 325 75 336.382871236 75 350 c 0
 75 363.617128764 86.3828712355 375 100 375 c 2
 230 375 l 1
 380 375 l 1
 500 375 l 2
 513.617128764 375 525 363.617128764 525 350 c 0
 525 336.382871236 513.617128764 325 500 325 c 2
 405 325 l 1
 405 100 l 2
 405 86.3828712355 393.617128764 75 380 75 c 0
 366.382871236 75 355 86.3828712355 355 100 c 2
 355 325 l 1
 255 325 l 1
 255 100 l 2
 255 86.3828712355 243.617128764 75 230 75 c 0
EndSplineSet
Validated: 524289
Ligature2: "Ligature Substitution lookup 206 subtable" s u p a
Ligature2: "Ligature Substitution lookup 137 subtable" s u p a tp_space
Ligature2: "tokiponaWords subtable" percent s u p a space
LCarets2: 5 0 0 0 0 0
EndChar

StartChar: tp_suwi
Encoding: 61030 61030 102
Width: 600
VWidth: 0
Flags: W
HStem: 97 78<265.281 334.719>
VStem: 261 78<101.281 170.719>
LayerCount: 2
Back
SplineSet
360 288 m 1
 440 408 l 1
 520 288 l 1025
80 288 m 1
 160 408 l 1
 240 288 l 1025
EndSplineSet
Refer: 153 -1 S 1 0 0 1 300 136 2
Fore
SplineSet
346.132495094 267.198742642 m 0
 334.802359098 274.752166639 331.645318644 290.537368909 339.198742642 301.867504906 c 2
 419.198742642 421.867504906 l 2
 427.170008488 433.824403675 444.162124989 436.533931081 455.456764236 427.649133298 c 0
 457.766263099 425.832392636 460.801257358 421.867504906 460.801257358 421.867504906 c 1
 540.801257358 301.867504906 l 2
 548.354681356 290.537368909 545.197640902 274.752166639 533.867504906 267.198742642 c 0
 522.537368909 259.645318644 506.752166639 262.802359098 499.198742642 274.132495094 c 2
 440 362.930609057 l 1
 380.801257358 274.132495094 l 2
 373.247833361 262.802359098 357.462631091 259.645318644 346.132495094 267.198742642 c 0
66.1324950944 267.198742642 m 0
 54.8023590979 274.752166639 51.6453186439 290.537368909 59.1987426416 301.867504906 c 2
 139.198742642 421.867504906 l 2
 147.170008488 433.824403675 164.162124989 436.533931081 175.456764236 427.649133298 c 0
 177.766263099 425.832392636 180.801257358 421.867504906 180.801257358 421.867504906 c 1
 260.801257358 301.867504906 l 2
 268.354681356 290.537368909 265.197640902 274.752166639 253.867504906 267.198742642 c 0
 242.537368909 259.645318644 226.752166639 262.802359098 219.198742642 274.132495094 c 2
 160 362.930609057 l 1
 100.801257358 274.132495094 l 2
 93.2478333608 262.802359098 77.4626310909 259.645318644 66.1324950944 267.198742642 c 0
EndSplineSet
Refer: 153 -1 N 1 0 0 1 300 136 2
LCarets2: 5 0 0 0 0 0
Ligature2: "Ligature Substitution lookup 207 subtable" s u w i
Ligature2: "Ligature Substitution lookup 138 subtable" s u w i tp_space
Ligature2: "tokiponaWords subtable" percent s u w i space
EndChar

StartChar: tp_tan
Encoding: 61031 61031 103
Width: 600
VWidth: 0
Flags: HW
HStem: 425 50<306.724 418.498>
VStem: 475.004 49.9971<225.251 249.242>
LayerCount: 2
Back
SplineSet
343 147 m 5
 176 50 l 1029
77 202 m 5
 176 50 l 5
 207 165 203 450 363 450 c 7
 500 450 500 250 500 250 c 1029
EndSplineSet
Fore
SplineSet
63.3559200459 222.948486394 m 0
 67.4827040965 225.636326006 72.1772089734 226.917017601 76.8405561509 226.917017601 c 0
 85.0711057843 226.917017601 93.2045982618 222.927625369 97.9484863942 215.644079954 c 2
 163.476269202 115.035766956 l 1
 182.94359676 236.297610708 197.133077281 475 363 475 c 0
 530.531975196 475 525.000855009 249.242001094 525.000855009 249.242001094 c 1
 524.10814113 234.798085729 513.056610588 225.007213048 499.998945299 224.999999416 c 0
 486.975333239 224.999999416 475.921729058 234.803891375 475.003726149 249.142319703 c 0
 474.948152569 261.595669406 468.375702173 425 363 425 c 0
 250.465164112 425 237.821753132 237.143589049 212.538901931 100.134407302 c 1
 330.443489313 168.617910152 l 2
 334.307439905 170.862240736 338.578986246 171.925819531 342.816218763 171.925819531 c 0
 351.491475557 171.925819531 360.022895821 167.467514742 364.617910152 159.556510687 c 0
 366.862240736 155.692560095 367.925819531 151.421013754 367.925819531 147.183781237 c 0
 367.925819531 138.508524443 363.467514742 129.977104179 355.556510687 125.382089848 c 2
 188.556510687 28.3820898476 l 2
 181.569124046 24.323547906 173.248842009 24.1262302892 166.208926912 27.0972260101 c 0
 161.777680317 28.9528649171 157.838725832 32.0765646705 155.051513606 36.3559200459 c 2
 56.0515136058 188.355920046 l 2
 53.3636739939 192.482704097 52.0829823988 197.177208973 52.0829823988 201.840556151 c 0
 52.0829823988 210.071105784 56.0723746305 218.204598262 63.3559200459 222.948486394 c 0
EndSplineSet
Validated: 524321
Ligature2: "Ligature Substitution lookup 78 subtable" t a n
Ligature2: "Ligature Substitution lookup 56 subtable" t a n tp_space
Ligature2: "tokiponaWords subtable" percent t a n space
EndChar

StartChar: tp_taso
Encoding: 61032 61032 104
Width: 390
VWidth: 0
Flags: HW
HStem: 25 21G<283.191 296.809> 225 50<55.2041 265> 455 20G<283.191 296.809>
VStem: 265 50<25.2041 225 275 474.796>
LayerCount: 2
Back
SplineSet
290 450 m 1
 290 50 l 1025
80 250 m 1
 290 250 l 1025
EndSplineSet
Fore
SplineSet
55 250 m 0
 55 263.617128764 66.3828712355 275 80 275 c 2
 265 275 l 1
 265 450 l 2
 265 463.6171875 276.3828125 475 290 475 c 0
 303.6171875 475 315 463.6171875 315 450 c 2
 315 250 l 1
 315 50 l 2
 315 36.3828125 303.6171875 25 290 25 c 0
 276.3828125 25 265 36.3828125 265 50 c 2
 265 225 l 1
 80 225 l 2
 66.3828712355 225 55 236.382871236 55 250 c 0
EndSplineSet
Validated: 524289
Ligature2: "Ligature Substitution lookup 208 subtable" t a s o
Ligature2: "Ligature Substitution lookup 139 subtable" t a s o tp_space
Ligature2: "tokiponaWords subtable" percent t a s o space
LCarets2: 5 0 0 0 0 0
EndChar

StartChar: tp_tawa
Encoding: 61033 61033 105
Width: 600
VWidth: 0
Flags: HW
HStem: 25 50<121.317 324.796>
LayerCount: 2
Back
SplineSet
300 50 m 5
 80 50 l 5
 300 470 l 5
 520 50 l 1029
EndSplineSet
Fore
SplineSet
325 50 m 0
 325 36.3828712355 313.617128764 25 300 25 c 2
 80 25 l 2
 66.2735167144 25 55.0017376101 36.5283425903 55.0017376101 50.0467891498 c 0
 55.0017376101 53.9993779757 57.3420655189 60.6224414049 57.854211618 61.6001748668 c 2
 277.854211618 481.600174867 l 2
 282.30224688 490.091878548 291.175430561 494.914144877 300.202398604 494.914144877 c 0
 304.70759245 494.914144877 309.251091284 493.713002895 313.301911246 491.1674079 c 0
 317.062045045 488.804484376 320.526001601 484.692495086 322.145788382 481.600174867 c 2
 542.145788382 61.6001748668 l 2
 544.039340179 57.985212345 544.934181274 54.0736407451 544.934181274 50.1978428079 c 0
 544.934181274 41.1407976301 540.047694424 32.2791028149 531.600174867 27.854211618 c 0
 527.985212345 25.9606598208 524.073640745 25.0658187255 520.197842808 25.0658187255 c 0
 511.14079763 25.0658187255 502.279102815 29.9523055755 497.854211618 38.3998251332 c 2
 300 416.121501859 l 1
 121.31730855 75 l 1
 300 75 l 2
 313.617128764 75 325 63.6171287645 325 50 c 0
EndSplineSet
Validated: 524289
Ligature2: "Ligature Substitution lookup 209 subtable" t a w a
Ligature2: "Ligature Substitution lookup 140 subtable" t a w a tp_space
Ligature2: "tokiponaWords subtable" percent t a w a space
LCarets2: 5 0 0 0 0 0
EndChar

StartChar: tp_telo
Encoding: 61034 61034 106
Width: 600
VWidth: 0
Flags: HW
HStem: 25 50<359.781 442.71> 175 50<157.367 239.788> 275 50<359.781 442.71> 425 50<157.367 239.788>
VStem: 74.9989 50.0011<25.2199 49.2508 275.22 299.251> 475 50.0011<200.749 224.741 450.749 474.741>
LayerCount: 2
Back
SplineSet
100 300 m 29
 100 300 100 450 200 450 c 7
 250 450 300 375 300 375 c 5
 300 375 350 300 400 300 c 7
 500 300 500 450 500 450 c 1029
100 50 m 25
 100 50 100 200 200 200 c 3
 250 200 300 125 300 125 c 1
 300 125 350 50 400 50 c 3
 500 50 500 200 500 200 c 1025
EndSplineSet
Fore
SplineSet
74.998878849 49.2507998539 m 1
 74.998878849 49.2507998539 69.5986837141 225 200 225 c 0
 271.06499214 225 320.785880076 138.890544577 320.785880076 138.890544577 c 2
 323.320137516 135.117526971 370.756530594 75 400 75 c 0
 468.422232244 75 474.955295616 189.882482852 475.000026485 200.036390063 c 0
 475.019830354 213.641647814 486.399433109 224.9999994 500.000825349 224.9999994 c 0
 500.036390063 224.999973515 l 0
 513.073250191 224.980997009 524.114187772 215.181808731 525.001121151 200.749200146 c 1
 525.001121151 200.749200146 530.913258848 25 400 25 c 0
 329.979107023 25 279.230838165 111.084448972 279.230838165 111.084448972 c 2
 277.354033158 113.878647473 229.529720891 175 200 175 c 0
 131.599371032 175 125.029600605 60.0960747921 124.999973515 49.9636099367 c 0
 124.980169646 36.358352186 113.600566891 25.0000006 99.9991746508 25.0000006 c 0
 85.7838501693 25.0000006 75.7460023426 37.0932452866 74.998878849 49.2507998539 c 1
74.998878849 299.250799854 m 1
 74.998878849 299.250799854 69.5986837141 475 200 475 c 0
 271.06499214 475 320.785880076 388.890544577 320.785880076 388.890544577 c 2
 323.320137516 385.117526971 370.756530594 325 400 325 c 0
 468.422232244 325 474.955295616 439.882482852 475.000026485 450.036390063 c 0
 475.019830354 463.641647814 486.399433109 474.9999994 500.000825349 474.9999994 c 0
 500.036390063 474.999973515 l 0
 513.073250191 474.980997009 524.114187772 465.181808731 525.001121151 450.749200146 c 1
 525.001121151 450.749200146 530.913258848 275 400 275 c 0
 329.979107023 275 279.230838165 361.084448972 279.230838165 361.084448972 c 2
 277.354033158 363.878647473 229.529720891 425 200 425 c 0
 131.599371032 425 125.029600605 310.096074792 124.999973515 299.963609937 c 0
 124.980169646 286.358352186 113.600566891 275.0000006 99.9991746507 275.0000006 c 0
 85.7834919489 275.010347067 75.7464832202 287.085420213 74.998878849 299.250799854 c 1
EndSplineSet
Validated: 524321
Ligature2: "Ligature Substitution lookup 210 subtable" t e l o
Ligature2: "Ligature Substitution lookup 141 subtable" t e l o tp_space
Ligature2: "tokiponaWords subtable" percent t e l o space
EndChar

StartChar: tp_tenpo
Encoding: 61035 61035 107
Width: 560
VWidth: 0
Flags: HW
HStem: 5 50<197.097 363.631> 225 50<305 453.771> 443.338 51.6619<193.21 255 305 365.326>
VStem: 55 50<151.252 348.995> 255 50<275 443.338> 453.771 51.2285<150.77 225 275 349.23>
LayerCount: 2
Back
SplineSet
460 250 m 5
 280 250 l 29
 280 450 l 1029
EndSplineSet
Refer: 12 60940 S 1 0 0 1 0 0 2
Fore
SplineSet
305 443.338131622 m 1
 305 275 l 1
 453.771450171 275 l 1
 444.874122734 364.255597929 388.291571843 432.038556722 305 443.338131622 c 1
105 250 m 0
 105 139.594726562 175.073242188 55 280 55 c 0
 376.853229511 55 444.010162071 127.077380872 453.771450171 225 c 1
 280 225 l 2
 264.867462144 225 255 239.270095667 255 250 c 2
 255 443.338131622 l 1
 164.091183923 431.005179396 105 351.385315578 105 250 c 0
55 250 m 0
 55 381.594726562 142.926757812 495 280 495 c 0
 417.073242188 495 505 381.594726562 505 250 c 0
 505 118.405273438 417.073242188 5 280 5 c 0
 142.926757812 5 55 118.405273438 55 250 c 0
EndSplineSet
Validated: 524289
Ligature2: "Ligature Substitution lookup 243 subtable" t e n p o
Ligature2: "Ligature Substitution lookup 230 subtable" t e n p o tp_space
Ligature2: "tokiponaWords subtable" percent t e n p o space
LCarets2: 6 0 0 0 0 0 0
EndChar

StartChar: tp_toki
Encoding: 61036 61036 108
Width: 560
VWidth: 0
Flags: HW
HStem: 5 50<197.097 362.903> 445 50<197.097 362.903>
VStem: 55 50<151.252 348.748> 255 50<543.204 724.796> 455 50<151.252 348.748>
CounterMasks: 1 38
LayerCount: 2
Back
SplineSet
491 656 m 1
 408 546 l 1049
280 700 m 25
 280 568 l 1024
87 656 m 1
 156 546 l 1049
EndSplineSet
Refer: 12 60940 N 1 0 0 1 0 0 2
Fore
SplineSet
75.8196601125 678.360679775 m 0
 79.320817399 680.111258418 83.0774970474 680.93795364 86.7981344569 680.93795364 c 0
 96.0205361905 680.93795364 105.021493303 675.858712831 109.360679775 667.180339887 c 2
 177.360351562 559.180664062 l 2
 179.111052155 555.679262876 179.93781838 551.922343153 179.93781838 548.201502129 c 0
 179.93781838 538.979330199 174.858950376 529.978791595 166.180664062 525.639648438 c 0
 162.679262876 523.888947845 158.922343153 523.06218162 155.201502129 523.06218162 c 0
 145.979330199 523.06218162 136.978791595 528.141049624 132.639648438 536.819335938 c 2
 64.639320225 644.819660113 l 2
 62.8887415817 648.320817399 62.0620463602 652.077497048 62.0620463602 655.798134457 c 0
 62.0620463602 665.020536191 67.1412871687 674.021493303 75.8196601125 678.360679775 c 0
280 725 m 0
 293.617128764 725 305 713.617128764 305 700 c 2
 305 568 l 2
 305 554.3828125 293.6171875 543 280 543 c 0
 266.3828125 543 255 554.3828125 255 568 c 2
 255 700 l 2
 255 713.617128764 266.382871236 725 280 725 c 0
502.655976918 678.116469024 m 0
 511.07259501 673.680683813 515.933683222 664.837761324 515.933683222 655.802789882 c 0
 515.933683222 651.906214109 515.029521356 647.973917251 513.116469024 644.344023082 c 2
 428.116210938 532.34375 l 2
 423.680571061 523.927565123 414.837768335 519.066666405 405.802733107 519.066666405 c 0
 401.906123138 519.066666405 397.973757822 519.970796127 394.34375 521.883789062 c 0
 385.927565123 526.319428939 381.066666405 535.162231665 381.066666405 544.197266893 c 0
 381.066666405 548.093876862 381.970796127 552.026242178 383.883789062 555.65625 c 2
 468.883530976 667.655976918 l 2
 473.319316187 676.07259501 482.162238676 680.933683222 491.197210118 680.933683222 c 0
 495.093785891 680.933683222 499.026082749 680.029521356 502.655976918 678.116469024 c 0
EndSplineSet
Refer: 12 60940 N 1 0 0 1 0 0 2
Validated: 524289
Ligature2: "Ligature Substitution lookup 211 subtable" t o k i
Ligature2: "Ligature Substitution lookup 142 subtable" t o k i tp_space
Ligature2: "tokiponaWords subtable" percent t o k i space
LCarets2: 5 0 0 0 0 0
EndChar

StartChar: tp_tomo
Encoding: 61037 61037 109
Width: 600
VWidth: 0
Flags: HW
LayerCount: 2
Back
SplineSet
100 50 m 5
 100 250 l 5
 300 470 l 5
 500 250 l 5
 500 50 l 5
 100 50 l 5
EndSplineSet
Fore
SplineSet
75 50 m 2
 75 250 l 2
 75 256.19076625 77.4045985216 262.310230242 81.5014981651 266.81681985 c 2
 281.501498165 486.81681985 l 2
 286.487138193 492.301023881 293.112723065 494.631804321 299.593290564 494.631804321 c 0
 306.953885372 494.631804321 314.127403445 491.625028079 318.498501835 486.81681985 c 2
 518.498501835 266.81681985 l 2
 522.662861865 262.236023817 525 256.090479175 525 250 c 2
 525 50 l 2
 525 34.8674621445 510.729904333 25 500 25 c 2
 100 25 l 2
 84.8674621445 25 75 39.2700956673 75 50 c 2
125 75 m 1
 475 75 l 1
 475 240.334828132 l 1
 300 432.834828132 l 1
 125 240.334828132 l 1
 125 75 l 1
EndSplineSet
Validated: 524289
Ligature2: "Ligature Substitution lookup 212 subtable" t o m o
Ligature2: "Ligature Substitution lookup 143 subtable" t o m o tp_space
Ligature2: "tokiponaWords subtable" percent t o m o space
EndChar

StartChar: tp_tu
Encoding: 61038 61038 110
Width: 350
VWidth: 0
Flags: HW
HStem: 5 21G<93.1914 106.809 243.191 256.809> 475 20G<93.1914 106.809 243.191 256.809>
VStem: 75 50<5.20406 494.796> 225 50<5.20406 494.796>
LayerCount: 2
Back
SplineSet
250 450 m 1
 250 50 l 1025
100 450 m 1
 100 50 l 1025
EndSplineSet
Fore
SplineSet
100 475 m 0
 113.6171875 475 125 463.6171875 125 450 c 2
 125 50 l 2
 125 36.3828125 113.6171875 25 100 25 c 0
 86.3828125 25 75 36.3828125 75 50 c 2
 75 450 l 2
 75 463.6171875 86.3828125 475 100 475 c 0
250 475 m 0
 263.6171875 475 275 463.6171875 275 450 c 2
 275 50 l 2
 275 36.3828125 263.6171875 25 250 25 c 0
 236.3828125 25 225 36.3828125 225 50 c 2
 225 450 l 2
 225 463.6171875 236.3828125 475 250 475 c 0
EndSplineSet
Validated: 524289
Ligature2: "Ligature Substitution lookup 36 subtable" t u
Ligature2: "Ligature Substitution lookup 23 subtable" t u tp_space
Ligature2: "tokiponaWords subtable" percent t u space
LCarets2: 3 0 0 0
EndChar

StartChar: tp_unpa
Encoding: 61039 61039 111
Width: 600
VWidth: 0
Flags: HW
LayerCount: 2
Back
SplineSet
100 325 m 7
 100 247 200 190 300 190 c 7
 400 190 500 246 500 325 c 7
 500 402 456 450 394 450 c 7
 338 450 198 346.012695312 198 192 c 7
 198 49.873046875 268 50 300 50 c 7
 332 50 400 49.78125 400 196 c 7
 400 346.013671875 254 450 202 450 c 7
 132 450 100 398 100 325 c 7
EndSplineSet
Fore
SplineSet
259.545117312 398.815176824 m 1
 233.306605433 417.021055697 209.325239282 425 202 425 c 0
 149.743273895 425 125 391.202692882 125 325 c 0
 125 296.80267459 143.674566022 269.148184138 178.631282772 247.640855997 c 1
 191.256113129 309.246118952 223.487010615 360.793210913 259.545117312 398.815176824 c 1
372.827346028 225.8395913 m 1
 364.594021562 282.071854452 333.580264518 330.977704486 297.912669228 366.578399971 c 1
 263.864171381 331.540482382 234.360634571 283.156525067 225.626373967 226.4863552 c 1
 249.022434903 219.099536378 274.654999119 215 300 215 c 0
 324.786583805 215 349.865687882 218.854511292 372.827346028 225.8395913 c 1
223.376158658 175.079061891 m 1
 227.861986392 81.311156022 262.310203966 74.8335245994 288.30703282 74.8335245994 c 0
 292.474644945 74.8335245994 296.425056024 75 300 75 c 0
 303.62638115 75 307.628853782 74.8083171372 311.841815357 74.8083171372 c 0
 336.771754443 74.8083171372 369.072189709 81.5202982482 374.429373838 174.379725177 c 1
 350.486429597 168.308845165 325.144687406 165 300 165 c 0
 274.087313371 165 247.961686584 168.577467517 223.376158658 175.079061891 c 1
419.988859847 246.441282213 m 1
 455.709005039 267.864457857 475 295.861524898 475 325 c 0
 475 392.018943769 440.108528192 425 394 425 c 0
 385.027926808 425 361.51398299 417.173662973 335.951016663 399.229707553 c 1
 373.403480943 360.947921981 407.461147416 308.764700575 419.988859847 246.441282213 c 1
173.005192551 193.758678918 m 0
 119.568783874 219.894536242 75 265.243425515 75 325 c 0
 75 404.797307118 114.256726105 475 202 475 c 0
 230.576280128 475 263.751528485 458.425098387 297.521099782 433.023149785 c 1
 330.920916049 458.526772263 364.561994197 475 394 475 c 0
 471.891471808 475 525 411.981056231 525 325 c 0
 525 264.050546014 479.409126093 218.369441645 424.987597427 192.498312503 c 1
 423.778284656 36.1360797214 338.243679253 25 300 25 c 0
 261.95349867 25 173 35.5103440304 173 192 c 0
 173 193 173.005192551 192.423417822 173.005192551 193.758678918 c 0
EndSplineSet
Validated: 524289
Ligature2: "Ligature Substitution lookup 213 subtable" u n p a
Ligature2: "Ligature Substitution lookup 144 subtable" u n p a tp_space
Ligature2: "tokiponaWords subtable" percent u n p a space
EndChar

StartChar: tp_uta
Encoding: 61040 61040 112
Width: 600
VWidth: 0
Flags: HW
HStem: 5 50<216.142 372.787> 425 50<125 475>
VStem: 75 50<151.749 425> 475 50<165.733 425>
LayerCount: 2
Back
SplineSet
300 30 m 7
 407.653320312 30 500 140 500 250 c 20
 500 450 l 5
 100 450 l 5
 100 250 l 15
 100 140 165.409179688 30 300 30 c 7
EndSplineSet
Fore
SplineSet
300 55 m 0
 390.704569531 55 475 151.799518023 475 250 c 2
 475 425 l 1
 125 425 l 1
 125 250 l 2
 125 148.751597008 182.815230454 55 300 55 c 0
300 5 m 0
 148.003128921 5 75 131.248402992 75 250 c 2
 75 450 l 2
 75 460.729904333 84.8674621445 475 100 475 c 2
 500 475 l 2
 510.729904333 475 525 465.132537856 525 450 c 2
 525 250 l 2
 525 128.200481977 424.602071094 5 300 5 c 0
EndSplineSet
Validated: 524289
Ligature2: "Ligature Substitution lookup 79 subtable" u t a
Ligature2: "Ligature Substitution lookup 57 subtable" u t a tp_space
Ligature2: "tokiponaWords subtable" percent u t a space
EndChar

StartChar: tp_utala
Encoding: 61041 61041 113
Width: 600
VWidth: 0
Flags: HW
LayerCount: 2
Back
SplineSet
500 450 m 5
 200 50 l 5
 80 220 l 1029
100 450 m 5
 400 50 l 5
 520 220 l 1029
EndSplineSet
Fore
SplineSet
85 470 m 0
 89.4166907816 473.312518086 94.6622260409 474.90780664 99.8830189264 474.90780664 c 0
 107.539235094 474.90780664 115.142240827 471.47701223 120 465 c 2
 300 225 l 1
 480 465 l 2
 484.857759173 471.47701223 492.460764906 474.90780664 500.116981073 474.90780664 c 0
 505.337773959 474.90780664 510.583309218 473.312518086 515 470 c 0
 521.47701223 465.142240827 524.90780664 457.539235094 524.90780664 449.883018927 c 0
 524.90780664 444.662226041 523.312518086 439.416690782 520 435 c 2
 331.25 183.333333333 l 1
 399.387384813 92.4834869158 l 1
 499.575803418 234.41707994 l 2
 504.394805358 241.243999355 512.230660871 244.911471001 520.136831476 244.911471001 c 0
 525.114103341 244.911471001 530.119242765 243.457964 534.41707994 240.424196582 c 0
 541.243999355 235.605194642 544.911471001 227.769339129 544.911471001 219.863168524 c 0
 544.911471001 214.885896659 543.457964 209.880757235 540.424196582 205.58292006 c 2
 420.424196582 35.58292006 l 2
 419.394536897 34.1242355063 417.980127374 32.5218563276 416.522904088 31.2385064428 c 0
 411.836782555 27.1115249529 405.955120067 25.1106719681 400.094302015 25.1106719681 c 0
 392.467321697 25.1106719681 384.875641723 28.4991443696 380 35 c 2
 300 141.666666667 l 1
 220 35 l 2
 215.070838907 28.4277852095 207.547046144 25.1745290579 200.029877333 25.1745290579 c 0
 192.239713855 25.1745290579 184.456664177 28.6683673176 179.575803418 35.58292006 c 2
 59.5758034184 205.58292006 l 2
 56.5420360006 209.880757235 55.0885289991 214.885896659 55.0885289991 219.863168525 c 0
 55.0885289991 227.769339129 58.7560006447 235.605194642 65.58292006 240.424196582 c 0
 69.880757235 243.457964 74.8858966584 244.911471001 79.8631685241 244.911471001 c 0
 87.7693391285 244.911471001 95.6051946414 241.243999355 100.424196582 234.41707994 c 2
 200.612615187 92.4834869158 l 1
 268.75 183.333333333 l 1
 80 435 l 2
 76.6874819139 439.416690782 75.0921933602 444.662226041 75.0921933602 449.883018926 c 0
 75.0921933602 457.539235094 78.5229877699 465.142240827 85 470 c 0
EndSplineSet
Validated: 524289
Ligature2: "Ligature Substitution lookup 244 subtable" u t a l a
Ligature2: "Ligature Substitution lookup 231 subtable" u t a l a tp_space
Ligature2: "tokiponaWords subtable" percent u t a l a space
LCarets2: 6 0 0 0 0 0 0
EndChar

StartChar: tp_walo
Encoding: 61042 61042 114
Width: 600
VWidth: 0
Flags: HW
HStem: 25 50<121.317 478.683>
LayerCount: 2
Back
SplineSet
520 330 m 5
 430 230 l 1029
80 330 m 5
 170 230 l 1029
80 50 m 5
 520 50 l 5
 300 470 l 5
 80 50 l 5
EndSplineSet
Fore
SplineSet
80 25 m 2
 78.345343975 25 73.2048390328 25.7163205249 70.173076777 27.0123602784 c 0
 60.7149299699 31.0555975847 55.068911775 40.5095976522 55.068911775 50.2253283224 c 0
 55.068911775 54.0831262905 55.9590763333 57.9821893233 57.854211618 61.6001748668 c 2
 142.495926659 223.188903581 l 1
 61.4176463438 313.275881709 l 2
 57.1828079057 317.981257752 55.0995496608 323.973422071 55.0995496608 329.954257647 c 0
 55.0995496608 336.838540335 57.8597256525 343.707813205 63.2758817094 348.582353656 c 0
 67.9812577519 352.817192094 73.9734220711 354.900450339 79.9542576468 354.900450339 c 0
 86.8385403346 354.900450339 93.707813205 352.140274348 98.5823536562 346.724118291 c 2
 167.243395642 270.43407164 l 1
 277.854211618 481.600174867 l 2
 279.754909247 485.228779431 282.966925126 488.822689659 286.698088754 491.1674079 c 0
 290.748908716 493.713002895 295.29240755 494.914144877 299.797601396 494.914144877 c 0
 308.824569439 494.914144877 317.69775312 490.091878548 322.145788382 481.600174867 c 2
 432.756604358 270.43407164 l 1
 501.417646344 346.724118291 l 2
 506.292186795 352.140274348 513.161459665 354.900450339 520.045742353 354.900450339 c 0
 526.026577929 354.900450339 532.018742248 352.817192094 536.724118291 348.582353656 c 0
 542.140274348 343.707813205 544.900450339 336.838540335 544.900450339 329.954257647 c 0
 544.900450339 323.973422071 542.817192094 317.981257752 538.582353656 313.275881709 c 2
 457.504073341 223.188903581 l 1
 542.145788382 61.6001748668 l 2
 543.182611228 59.620785796 544.99826239 54.1624796037 544.99826239 50.0467891501 c 0
 544.99826239 36.5283425905 533.726483286 25 520 25 c 2
 80 25 l 2
121.31730855 75 m 1
 478.68269145 75 l 1
 300 416.121501859 l 1
 121.31730855 75 l 1
EndSplineSet
Validated: 524289
Ligature2: "Ligature Substitution lookup 214 subtable" w a l o
Ligature2: "Ligature Substitution lookup 145 subtable" w a l o tp_space
Ligature2: "tokiponaWords subtable" percent w a l o space
LCarets2: 5 0 0 0 0 0
EndChar

StartChar: tp_wan
Encoding: 61043 61043 115
Width: 260
VWidth: 0
Flags: HW
HStem: 25 21G<153.191 166.809>
VStem: 135 50<25.2041 389.645>
LayerCount: 2
Back
SplineSet
60 350 m 1
 160 450 l 1
 160 50 l 1024
EndSplineSet
Fore
SplineSet
42.322265625 332.322265625 m 0
 37.5078125 337.13671875 35.1005859375 343.568359375 35.1005859375 350 c 0
 35.1005859375 356.431640625 37.5078125 362.86328125 42.322265625 367.677734375 c 2
 142.322265625 467.677734375 l 2
 147.147969639 472.503438389 153.559991705 474.884908661 159.962779785 474.884908661 c 0
 167.041875357 474.884908661 174.109683203 471.973772895 179.009765625 466.236328125 c 0
 183.086914062 461.462890625 185 452.846679688 185 450 c 2
 185 50 l 2
 185 36.3828125 173.6171875 25 160 25 c 0
 146.3828125 25 135 36.3828125 135 50 c 2
 135 389.64453125 l 1
 77.677734375 332.322265625 l 2
 72.86328125 327.5078125 66.431640625 325.100585938 60 325.100585938 c 0
 53.568359375 325.100585938 47.13671875 327.5078125 42.322265625 332.322265625 c 0
EndSplineSet
Validated: 524289
Ligature2: "Ligature Substitution lookup 80 subtable" w a n
Ligature2: "Ligature Substitution lookup 58 subtable" w a n tp_space
Ligature2: "tokiponaWords subtable" percent w a n space
LCarets2: 4 0 0 0 0
EndChar

StartChar: tp_waso
Encoding: 61044 61044 116
Width: 600
VWidth: 0
Flags: HW
LayerCount: 2
Back
SplineSet
100 600 m 0
 520 250 l 1
 300 50 l 1
 300 -100 l 1025
EndSplineSet
Refer: 153 -1 N 1 0 0 1 139 251 2
Refer: 153 -1 N 1 0 0 1 311 251 2
Fore
SplineSet
80.7944680101 616.004609992 m 0
 89.5119414133 626.465578076 105.543641908 627.923005393 116.004609992 619.20553199 c 2
 536.004609992 269.20553199 l 2
 547.807702315 259.369621721 547.357701246 241.084117616 536.81681985 231.501498165 c 2
 325 38.940752847 l 1
 325 -100 l 2
 325 -113.617128764 313.617128764 -125 300 -125 c 0
 286.382871236 -125 275 -113.617128764 275 -100 c 2
 275 50 l 2
 275 56.3027260488 277.914314584 63.7086240471 283.18318015 68.4985018349 c 2
 481.932791539 249.179966734 l 1
 83.9953900084 580.79446801 l 2
 73.5344219245 589.511941413 72.0769946068 605.543641908 80.7944680101 616.004609992 c 0
EndSplineSet
Refer: 153 -1 N 1 0 0 1 139 251 2
Refer: 153 -1 N 1 0 0 1 311 251 2
LCarets2: 5 0 0 0 0 0
Ligature2: "Ligature Substitution lookup 215 subtable" w a s o
Ligature2: "Ligature Substitution lookup 146 subtable" w a s o tp_space
Ligature2: "tokiponaWords subtable" percent w a s o space
EndChar

StartChar: tp_wawa
Encoding: 61045 61045 117
Width: 600
VWidth: 0
Flags: HW
HStem: 25 21G<93.1914 106.809 493.191 506.809> 25 21G<93.1914 106.809 493.191 506.809> 129 50<250.008 349.992> 321 50<250.008 349.992> 455 20G<93.1914 106.809 493.191 506.809> 455 20G<93.1914 106.809 493.191 506.809>
VStem: 75 50<25.2041 474.796> 179 50<200.008 299.992> 371 50<200.008 299.992> 475 50<25.2041 474.796>
LayerCount: 2
Back
SplineSet
204 250 m 4
 204 303 247 346 300 346 c 4
 353 346 396 303 396 250 c 4
 396 197 353 154 300 154 c 4
 247 154 204 197 204 250 c 4
500 450 m 5
 500 50 l 1029
100 450 m 5
 100 50 l 1029
EndSplineSet
Fore
SplineSet
100 475 m 0xbbc0
 113.617128764 475 125 463.617128764 125 450 c 2
 125 50 l 2
 125 36.3828712355 113.617128764 25 100 25 c 0
 86.3828712355 25 75 36.3828712355 75 50 c 2
 75 450 l 2
 75 463.617128764 86.3828712355 475 100 475 c 0xbbc0
500 475 m 0
 513.617128764 475 525 463.617128764 525 450 c 2
 525 50 l 2
 525 36.3828712355 513.617128764 25 500 25 c 0
 486.382871236 25 475 36.3828712355 475 50 c 2
 475 450 l 2
 475 463.617128764 486.382871236 475 500 475 c 0
179 250 m 0
 179 316.807092901 233.192857298 371 300 371 c 0
 366.807092901 371 421 316.807142702 421 250 c 0
 421 183.192907099 366.807142702 129 300 129 c 0
 233.192907099 129 179 183.192857298 179 250 c 0
229 250 m 0
 229 210.807142702 260.807092901 179 300 179 c 0
 339.192857298 179 371 210.807092901 371 250 c 0
 371 289.192857298 339.192907099 321 300 321 c 0
 260.807142702 321 229 289.192907099 229 250 c 0
EndSplineSet
Ligature2: "Ligature Substitution lookup 216 subtable" w a w a
Ligature2: "Ligature Substitution lookup 147 subtable" w a w a tp_space
Ligature2: "tokiponaWords subtable" percent w a w a space
LCarets2: 5 0 0 0 0 0
EndChar

StartChar: tp_weka
Encoding: 61046 61046 118
Width: 600
VWidth: 0
Flags: HW
LayerCount: 2
Back
SplineSet
399 151 m 5
 500 50 l 1029
500 450 m 5
 401 351 l 1029
100 50 m 5
 201 151 l 1029
100 450 m 5
 199 351 l 1029
EndSplineSet
Fore
SplineSet
82.3223304703 467.67766953 m 0
 87.1367125152 472.492051575 93.5683562576 474.899242597 100 474.899242597 c 0
 106.431643743 474.899242597 112.863287485 472.492051575 117.67766953 467.67766953 c 2
 216.67766953 368.67766953 l 2
 221.492051575 363.863287485 223.899242597 357.431643743 223.899242597 351 c 0
 223.899242597 344.568356257 221.492051574 338.136712515 216.67766953 333.32233047 c 0
 211.863287485 328.507948425 205.431643743 326.100757403 199 326.100757403 c 0
 192.568356257 326.100757403 186.136712515 328.507948425 181.32233047 333.32233047 c 2
 82.3223304703 432.32233047 l 2
 77.5079484255 437.136712515 75.1007574031 443.568356257 75.1007574031 450 c 0
 75.1007574031 456.431643743 77.5079484255 462.863287485 82.3223304703 467.67766953 c 0
82.3223304703 32.3223304703 m 0
 77.5079484255 37.1367125152 75.1007574031 43.5683562576 75.1007574031 50 c 0
 75.1007574031 56.4316437424 77.5079484255 62.8632874848 82.3223304703 67.6776695297 c 2
 183.32233047 168.67766953 l 2
 188.136712515 173.492051575 194.568356257 175.899242597 201 175.899242597 c 0
 207.431643743 175.899242597 213.863287485 173.492051574 218.67766953 168.67766953 c 0
 223.492051575 163.863287485 225.899242597 157.431643743 225.899242597 151 c 0
 225.899242597 144.568356257 223.492051574 138.136712515 218.67766953 133.32233047 c 2
 117.67766953 32.3223304703 l 2
 112.863287485 27.5079484255 106.431643743 25.1007574031 100 25.1007574031 c 0
 93.5683562576 25.1007574031 87.1367125152 27.5079484255 82.3223304703 32.3223304703 c 0
517.67766953 467.67766953 m 0
 522.492051575 462.863287485 524.899242597 456.431643743 524.899242597 450 c 0
 524.899242597 443.568356257 522.492051575 437.136712515 517.67766953 432.32233047 c 2
 418.67766953 333.32233047 l 2
 413.863287485 328.507948425 407.431643743 326.100757403 401 326.100757403 c 0
 394.568356257 326.100757403 388.136712515 328.507948425 383.32233047 333.32233047 c 0
 378.507948425 338.136712515 376.100757403 344.568356257 376.100757403 351 c 0
 376.100757403 357.431643743 378.507948425 363.863287485 383.32233047 368.67766953 c 2
 482.32233047 467.67766953 l 2
 487.136712515 472.492051575 493.568356257 474.899242597 500 474.899242597 c 0
 506.431643743 474.899242597 512.863287485 472.492051575 517.67766953 467.67766953 c 0
381.32233047 168.67766953 m 0
 386.136712515 173.492051575 392.568356257 175.899242597 399 175.899242597 c 0
 405.431643743 175.899242597 411.863287485 173.492051574 416.67766953 168.67766953 c 2
 517.67766953 67.6776695297 l 2
 522.492051575 62.8632874848 524.899242597 56.4316437424 524.899242597 50 c 0
 524.899242597 43.5683562576 522.492051575 37.1367125152 517.67766953 32.3223304703 c 0
 512.863287485 27.5079484255 506.431643743 25.1007574031 500 25.1007574031 c 0
 493.568356257 25.1007574031 487.136712515 27.5079484255 482.32233047 32.3223304703 c 2
 381.32233047 133.32233047 l 2
 376.507948425 138.136712515 374.100757403 144.568356257 374.100757403 151 c 0
 374.100757403 157.431643743 376.507948425 163.863287485 381.32233047 168.67766953 c 0
EndSplineSet
Validated: 524289
Ligature2: "Ligature Substitution lookup 217 subtable" w e k a
Ligature2: "Ligature Substitution lookup 148 subtable" w e k a tp_space
Ligature2: "tokiponaWords subtable" percent w e k a space
EndChar

